<svg width="339" height="360" viewBox="0 0 339 360" fill="none" xmlns="http://www.w3.org/2000/svg">
<path d="M164.819 45.9402L165.211 56.5169" stroke="#363636" stroke-miterlimit="10" stroke-linecap="round" stroke-linejoin="round"/>
<path d="M159.792 46.2014L160.51 56.7129" stroke="#363636" stroke-miterlimit="10" stroke-linecap="round" stroke-linejoin="round"/>
<path d="M154.764 46.6584L155.874 57.1699" stroke="#363636" stroke-miterlimit="10" stroke-linecap="round" stroke-linejoin="round"/>
<path d="M149.736 47.3113L151.238 57.6922" stroke="#363636" stroke-miterlimit="10" stroke-linecap="round" stroke-linejoin="round"/>
<path d="M144.774 48.0947L146.603 58.4103" stroke="#363636" stroke-miterlimit="10" stroke-linecap="round" stroke-linejoin="round"/>
<path d="M139.877 49.0088L142.032 59.3244" stroke="#363636" stroke-miterlimit="10" stroke-linecap="round" stroke-linejoin="round"/>
<path d="M134.914 50.1841L137.461 60.3691" stroke="#363636" stroke-miterlimit="10" stroke-linecap="round" stroke-linejoin="round"/>
<path d="M130.083 51.4897L132.956 61.6095" stroke="#363636" stroke-miterlimit="10" stroke-linecap="round" stroke-linejoin="round"/>
<path d="M125.251 52.926L128.516 62.9805" stroke="#363636" stroke-miterlimit="10" stroke-linecap="round" stroke-linejoin="round"/>
<path d="M115.783 56.3865L119.701 66.1797" stroke="#363636" stroke-miterlimit="10" stroke-linecap="round" stroke-linejoin="round"/>
<path d="M111.147 58.3452L115.457 68.0079" stroke="#363636" stroke-miterlimit="10" stroke-linecap="round" stroke-linejoin="round"/>
<path d="M106.577 60.4995L111.213 69.9664" stroke="#363636" stroke-miterlimit="10" stroke-linecap="round" stroke-linejoin="round"/>
<path d="M102.071 62.7847L107.034 72.0556" stroke="#363636" stroke-miterlimit="10" stroke-linecap="round" stroke-linejoin="round"/>
<path d="M97.6973 65.2004L102.921 74.3408" stroke="#363636" stroke-miterlimit="10" stroke-linecap="round" stroke-linejoin="round"/>
<path d="M93.3877 67.812L98.9377 76.7566" stroke="#363636" stroke-miterlimit="10" stroke-linecap="round" stroke-linejoin="round"/>
<path d="M89.1436 70.554L95.02 79.3026" stroke="#363636" stroke-miterlimit="10" stroke-linecap="round" stroke-linejoin="round"/>
<path d="M85.0293 73.4268L91.2323 81.9795" stroke="#363636" stroke-miterlimit="10" stroke-linecap="round" stroke-linejoin="round"/>
<path d="M80.9814 76.4954L87.4456 84.787" stroke="#363636" stroke-miterlimit="10" stroke-linecap="round" stroke-linejoin="round"/>
<path d="M73.2764 82.9587L80.3281 90.7934" stroke="#363636" stroke-miterlimit="10" stroke-linecap="round" stroke-linejoin="round"/>
<path d="M69.6201 86.4192L76.9331 93.9927" stroke="#363636" stroke-miterlimit="10" stroke-linecap="round" stroke-linejoin="round"/>
<path d="M66.0293 89.9448L73.6034 97.2571" stroke="#363636" stroke-miterlimit="10" stroke-linecap="round" stroke-linejoin="round"/>
<path d="M62.5684 93.6663L70.4037 100.652" stroke="#363636" stroke-miterlimit="10" stroke-linecap="round" stroke-linejoin="round"/>
<path d="M59.3037 97.4529L67.3349 104.178" stroke="#363636" stroke-miterlimit="10" stroke-linecap="round" stroke-linejoin="round"/>
<path d="M56.1045 101.37L64.3969 107.834" stroke="#363636" stroke-miterlimit="10" stroke-linecap="round" stroke-linejoin="round"/>
<path d="M53.1006 105.353L61.5889 111.555" stroke="#363636" stroke-miterlimit="10" stroke-linecap="round" stroke-linejoin="round"/>
<path d="M50.1621 109.531L58.9116 115.407" stroke="#363636" stroke-miterlimit="10" stroke-linecap="round" stroke-linejoin="round"/>
<path d="M47.4199 113.71L56.3653 119.325" stroke="#363636" stroke-miterlimit="10" stroke-linecap="round" stroke-linejoin="round"/>
<path d="M42.3926 122.458L51.7297 127.42" stroke="#363636" stroke-miterlimit="10" stroke-linecap="round" stroke-linejoin="round"/>
<path d="M40.1074 126.963L49.5751 131.534" stroke="#363636" stroke-miterlimit="10" stroke-linecap="round" stroke-linejoin="round"/>
<path d="M38.0176 131.534L47.6159 135.777" stroke="#363636" stroke-miterlimit="10" stroke-linecap="round" stroke-linejoin="round"/>
<path d="M36.0586 136.169L45.7875 140.086" stroke="#363636" stroke-miterlimit="10" stroke-linecap="round" stroke-linejoin="round"/>
<path d="M34.2305 140.87L44.0899 144.461" stroke="#363636" stroke-miterlimit="10" stroke-linecap="round" stroke-linejoin="round"/>
<path d="M32.5986 145.636L42.5887 148.835" stroke="#363636" stroke-miterlimit="10" stroke-linecap="round" stroke-linejoin="round"/>
<path d="M31.0967 150.402L41.2173 153.34" stroke="#363636" stroke-miterlimit="10" stroke-linecap="round" stroke-linejoin="round"/>
<path d="M29.791 155.299L40.0422 157.845" stroke="#363636" stroke-miterlimit="10" stroke-linecap="round" stroke-linejoin="round"/>
<path d="M28.6807 160.195L38.9972 162.415" stroke="#363636" stroke-miterlimit="10" stroke-linecap="round" stroke-linejoin="round"/>
<path d="M26.918 170.119L37.3651 171.556" stroke="#363636" stroke-miterlimit="10" stroke-linecap="round" stroke-linejoin="round"/>
<path d="M26.3301 175.146L36.7772 176.191" stroke="#363636" stroke-miterlimit="10" stroke-linecap="round" stroke-linejoin="round"/>
<path d="M25.873 180.174L36.3854 180.892" stroke="#363636" stroke-miterlimit="10" stroke-linecap="round" stroke-linejoin="round"/>
<path d="M25.6113 185.201L36.1237 185.527" stroke="#363636" stroke-miterlimit="10" stroke-linecap="round" stroke-linejoin="round"/>
<path d="M25.5469 190.228H36.0593" stroke="#363636" stroke-miterlimit="10" stroke-linecap="round" stroke-linejoin="round"/>
<path d="M25.6113 195.255L36.1237 194.864" stroke="#363636" stroke-miterlimit="10" stroke-linecap="round" stroke-linejoin="round"/>
<path d="M25.873 200.282L36.3854 199.564" stroke="#363636" stroke-miterlimit="10" stroke-linecap="round" stroke-linejoin="round"/>
<path d="M26.3301 205.31L36.7772 204.2" stroke="#363636" stroke-miterlimit="10" stroke-linecap="round" stroke-linejoin="round"/>
<path d="M26.918 210.272L37.3651 208.835" stroke="#363636" stroke-miterlimit="10" stroke-linecap="round" stroke-linejoin="round"/>
<path d="M28.6807 220.196L38.9972 218.041" stroke="#363636" stroke-miterlimit="10" stroke-linecap="round" stroke-linejoin="round"/>
<path d="M29.791 225.157L40.0422 222.546" stroke="#363636" stroke-miterlimit="10" stroke-linecap="round" stroke-linejoin="round"/>
<path d="M31.0967 229.989L41.2173 227.116" stroke="#363636" stroke-miterlimit="10" stroke-linecap="round" stroke-linejoin="round"/>
<path d="M32.5986 234.82L42.5887 231.556" stroke="#363636" stroke-miterlimit="10" stroke-linecap="round" stroke-linejoin="round"/>
<path d="M34.2305 239.586L44.0899 235.995" stroke="#363636" stroke-miterlimit="10" stroke-linecap="round" stroke-linejoin="round"/>
<path d="M36.0586 244.287L45.7875 240.304" stroke="#363636" stroke-miterlimit="10" stroke-linecap="round" stroke-linejoin="round"/>
<path d="M38.0176 248.922L47.6159 244.613" stroke="#363636" stroke-miterlimit="10" stroke-linecap="round" stroke-linejoin="round"/>
<path d="M40.1074 253.493L49.5751 248.857" stroke="#363636" stroke-miterlimit="10" stroke-linecap="round" stroke-linejoin="round"/>
<path d="M42.3926 257.998L51.7297 253.036" stroke="#363636" stroke-miterlimit="10" stroke-linecap="round" stroke-linejoin="round"/>
<path d="M47.4199 266.681L56.3653 261.131" stroke="#363636" stroke-miterlimit="10" stroke-linecap="round" stroke-linejoin="round"/>
<path d="M50.1621 270.925L58.9116 265.049" stroke="#363636" stroke-miterlimit="10" stroke-linecap="round" stroke-linejoin="round"/>
<path d="M53.1006 275.038L61.5889 268.835" stroke="#363636" stroke-miterlimit="10" stroke-linecap="round" stroke-linejoin="round"/>
<path d="M56.1045 279.086L64.3969 272.557" stroke="#363636" stroke-miterlimit="10" stroke-linecap="round" stroke-linejoin="round"/>
<path d="M59.3037 283.003L67.3349 276.213" stroke="#363636" stroke-miterlimit="10" stroke-linecap="round" stroke-linejoin="round"/>
<path d="M62.5684 286.79L70.4037 279.739" stroke="#363636" stroke-miterlimit="10" stroke-linecap="round" stroke-linejoin="round"/>
<path d="M66.0293 290.446L73.6034 283.134" stroke="#363636" stroke-miterlimit="10" stroke-linecap="round" stroke-linejoin="round"/>
<path d="M69.6201 294.037L76.9331 286.463" stroke="#363636" stroke-miterlimit="10" stroke-linecap="round" stroke-linejoin="round"/>
<path d="M73.2764 297.497L80.3281 289.663" stroke="#363636" stroke-miterlimit="10" stroke-linecap="round" stroke-linejoin="round"/>
<path d="M80.9814 303.961L87.4456 295.669" stroke="#363636" stroke-miterlimit="10" stroke-linecap="round" stroke-linejoin="round"/>
<path d="M85.0293 306.964L91.2323 298.477" stroke="#363636" stroke-miterlimit="10" stroke-linecap="round" stroke-linejoin="round"/>
<path d="M89.1436 309.837L95.02 301.153" stroke="#363636" stroke-miterlimit="10" stroke-linecap="round" stroke-linejoin="round"/>
<path d="M93.3877 312.579L98.9377 303.7" stroke="#363636" stroke-miterlimit="10" stroke-linecap="round" stroke-linejoin="round"/>
<path d="M97.6973 315.19L102.921 306.115" stroke="#363636" stroke-miterlimit="10" stroke-linecap="round" stroke-linejoin="round"/>
<path d="M102.071 317.671L107.034 308.335" stroke="#363636" stroke-miterlimit="10" stroke-linecap="round" stroke-linejoin="round"/>
<path d="M106.577 319.956L111.213 310.49" stroke="#363636" stroke-miterlimit="10" stroke-linecap="round" stroke-linejoin="round"/>
<path d="M111.147 322.046L115.457 312.448" stroke="#363636" stroke-miterlimit="10" stroke-linecap="round" stroke-linejoin="round"/>
<path d="M115.783 324.004L119.701 314.276" stroke="#363636" stroke-miterlimit="10" stroke-linecap="round" stroke-linejoin="round"/>
<path d="M125.251 327.465L128.516 317.476" stroke="#363636" stroke-miterlimit="10" stroke-linecap="round" stroke-linejoin="round"/>
<path d="M130.083 328.966L132.956 318.846" stroke="#363636" stroke-miterlimit="10" stroke-linecap="round" stroke-linejoin="round"/>
<path d="M134.914 330.272L137.461 320.022" stroke="#363636" stroke-miterlimit="10" stroke-linecap="round" stroke-linejoin="round"/>
<path d="M139.877 331.382L142.032 321.066" stroke="#363636" stroke-miterlimit="10" stroke-linecap="round" stroke-linejoin="round"/>
<path d="M144.774 332.361L146.603 321.98" stroke="#363636" stroke-miterlimit="10" stroke-linecap="round" stroke-linejoin="round"/>
<path d="M149.736 333.145L151.238 322.698" stroke="#363636" stroke-miterlimit="10" stroke-linecap="round" stroke-linejoin="round"/>
<path d="M154.764 333.732L155.874 323.286" stroke="#363636" stroke-miterlimit="10" stroke-linecap="round" stroke-linejoin="round"/>
<path d="M159.792 334.189L160.51 323.678" stroke="#363636" stroke-miterlimit="10" stroke-linecap="round" stroke-linejoin="round"/>
<path d="M164.819 334.45L165.211 323.939" stroke="#363636" stroke-miterlimit="10" stroke-linecap="round" stroke-linejoin="round"/>
<path d="M174.874 334.45L174.548 323.939" stroke="#363636" stroke-miterlimit="10" stroke-linecap="round" stroke-linejoin="round"/>
<path d="M179.903 334.189L179.185 323.678" stroke="#363636" stroke-miterlimit="10" stroke-linecap="round" stroke-linejoin="round"/>
<path d="M184.93 333.732L183.82 323.286" stroke="#363636" stroke-miterlimit="10" stroke-linecap="round" stroke-linejoin="round"/>
<path d="M189.958 333.145L188.456 322.698" stroke="#363636" stroke-miterlimit="10" stroke-linecap="round" stroke-linejoin="round"/>
<path d="M194.92 332.361L193.092 321.98" stroke="#363636" stroke-miterlimit="10" stroke-linecap="round" stroke-linejoin="round"/>
<path d="M199.882 331.382L197.662 321.066" stroke="#363636" stroke-miterlimit="10" stroke-linecap="round" stroke-linejoin="round"/>
<path d="M204.78 330.272L202.233 320.022" stroke="#363636" stroke-miterlimit="10" stroke-linecap="round" stroke-linejoin="round"/>
<path d="M209.611 328.966L206.738 318.846" stroke="#363636" stroke-miterlimit="10" stroke-linecap="round" stroke-linejoin="round"/>
<path d="M214.443 327.465L211.179 317.476" stroke="#363636" stroke-miterlimit="10" stroke-linecap="round" stroke-linejoin="round"/>
<path d="M223.911 324.004L219.993 314.276" stroke="#363636" stroke-miterlimit="10" stroke-linecap="round" stroke-linejoin="round"/>
<path d="M228.547 322.046L224.303 312.448" stroke="#363636" stroke-miterlimit="10" stroke-linecap="round" stroke-linejoin="round"/>
<path d="M233.118 319.956L228.547 310.49" stroke="#363636" stroke-miterlimit="10" stroke-linecap="round" stroke-linejoin="round"/>
<path d="M237.623 317.671L232.66 308.335" stroke="#363636" stroke-miterlimit="10" stroke-linecap="round" stroke-linejoin="round"/>
<path d="M241.997 315.19L236.773 306.115" stroke="#363636" stroke-miterlimit="10" stroke-linecap="round" stroke-linejoin="round"/>
<path d="M246.372 312.579L240.757 303.7" stroke="#363636" stroke-miterlimit="10" stroke-linecap="round" stroke-linejoin="round"/>
<path d="M250.551 309.837L244.675 301.153" stroke="#363636" stroke-miterlimit="10" stroke-linecap="round" stroke-linejoin="round"/>
<path d="M254.729 306.964L248.526 298.477" stroke="#363636" stroke-miterlimit="10" stroke-linecap="round" stroke-linejoin="round"/>
<path d="M258.713 303.961L252.249 295.669" stroke="#363636" stroke-miterlimit="10" stroke-linecap="round" stroke-linejoin="round"/>
<path d="M266.417 297.497L259.365 289.663" stroke="#363636" stroke-miterlimit="10" stroke-linecap="round" stroke-linejoin="round"/>
<path d="M270.139 294.037L262.826 286.463" stroke="#363636" stroke-miterlimit="10" stroke-linecap="round" stroke-linejoin="round"/>
<path d="M273.665 290.446L266.091 283.134" stroke="#363636" stroke-miterlimit="10" stroke-linecap="round" stroke-linejoin="round"/>
<path d="M277.125 286.79L269.29 279.739" stroke="#363636" stroke-miterlimit="10" stroke-linecap="round" stroke-linejoin="round"/>
<path d="M280.456 283.003L272.359 276.213" stroke="#363636" stroke-miterlimit="10" stroke-linecap="round" stroke-linejoin="round"/>
<path d="M283.59 279.086L275.298 272.557" stroke="#363636" stroke-miterlimit="10" stroke-linecap="round" stroke-linejoin="round"/>
<path d="M286.659 275.038L278.105 268.835" stroke="#363636" stroke-miterlimit="10" stroke-linecap="round" stroke-linejoin="round"/>
<path d="M289.532 270.925L280.782 265.049" stroke="#363636" stroke-miterlimit="10" stroke-linecap="round" stroke-linejoin="round"/>
<path d="M292.274 266.681L283.329 261.131" stroke="#363636" stroke-miterlimit="10" stroke-linecap="round" stroke-linejoin="round"/>
<path d="M297.302 257.998L288.03 253.036" stroke="#363636" stroke-miterlimit="10" stroke-linecap="round" stroke-linejoin="round"/>
<path d="M299.587 253.493L290.119 248.857" stroke="#363636" stroke-miterlimit="10" stroke-linecap="round" stroke-linejoin="round"/>
<path d="M301.742 248.922L292.078 244.613" stroke="#363636" stroke-miterlimit="10" stroke-linecap="round" stroke-linejoin="round"/>
<path d="M303.7 244.287L293.906 240.304" stroke="#363636" stroke-miterlimit="10" stroke-linecap="round" stroke-linejoin="round"/>
<path d="M305.463 239.586L295.604 235.995" stroke="#363636" stroke-miterlimit="10" stroke-linecap="round" stroke-linejoin="round"/>
<path d="M307.161 234.82L297.105 231.556" stroke="#363636" stroke-miterlimit="10" stroke-linecap="round" stroke-linejoin="round"/>
<path d="M308.597 229.989L298.477 227.116" stroke="#363636" stroke-miterlimit="10" stroke-linecap="round" stroke-linejoin="round"/>
<path d="M309.904 225.157L299.718 222.546" stroke="#363636" stroke-miterlimit="10" stroke-linecap="round" stroke-linejoin="round"/>
<path d="M311.014 220.196L300.763 218.041" stroke="#363636" stroke-miterlimit="10" stroke-linecap="round" stroke-linejoin="round"/>
<path d="M312.776 210.272L302.395 208.835" stroke="#363636" stroke-miterlimit="10" stroke-linecap="round" stroke-linejoin="round"/>
<path d="M313.429 205.31L302.917 204.2" stroke="#363636" stroke-miterlimit="10" stroke-linecap="round" stroke-linejoin="round"/>
<path d="M313.821 200.282L303.374 199.564" stroke="#363636" stroke-miterlimit="10" stroke-linecap="round" stroke-linejoin="round"/>
<path d="M314.083 195.255L303.57 194.864" stroke="#363636" stroke-miterlimit="10" stroke-linecap="round" stroke-linejoin="round"/>
<path d="M314.213 190.228H303.7" stroke="#363636" stroke-miterlimit="10" stroke-linecap="round" stroke-linejoin="round"/>
<path d="M314.083 185.201L303.57 185.527" stroke="#363636" stroke-miterlimit="10" stroke-linecap="round" stroke-linejoin="round"/>
<path d="M313.821 180.174L303.374 180.892" stroke="#363636" stroke-miterlimit="10" stroke-linecap="round" stroke-linejoin="round"/>
<path d="M313.429 175.146L302.917 176.191" stroke="#363636" stroke-miterlimit="10" stroke-linecap="round" stroke-linejoin="round"/>
<path d="M312.776 170.119L302.395 171.556" stroke="#363636" stroke-miterlimit="10" stroke-linecap="round" stroke-linejoin="round"/>
<path d="M311.014 160.195L300.763 162.415" stroke="#363636" stroke-miterlimit="10" stroke-linecap="round" stroke-linejoin="round"/>
<path d="M309.904 155.299L299.718 157.845" stroke="#363636" stroke-miterlimit="10" stroke-linecap="round" stroke-linejoin="round"/>
<path d="M308.597 150.402L298.477 153.34" stroke="#363636" stroke-miterlimit="10" stroke-linecap="round" stroke-linejoin="round"/>
<path d="M307.161 145.636L297.105 148.835" stroke="#363636" stroke-miterlimit="10" stroke-linecap="round" stroke-linejoin="round"/>
<path d="M305.463 140.87L295.604 144.461" stroke="#363636" stroke-miterlimit="10" stroke-linecap="round" stroke-linejoin="round"/>
<path d="M303.7 136.169L293.906 140.086" stroke="#363636" stroke-miterlimit="10" stroke-linecap="round" stroke-linejoin="round"/>
<path d="M301.742 131.534L292.078 135.777" stroke="#363636" stroke-miterlimit="10" stroke-linecap="round" stroke-linejoin="round"/>
<path d="M299.587 126.963L290.119 131.534" stroke="#363636" stroke-miterlimit="10" stroke-linecap="round" stroke-linejoin="round"/>
<path d="M297.302 122.458L288.03 127.42" stroke="#363636" stroke-miterlimit="10" stroke-linecap="round" stroke-linejoin="round"/>
<path d="M292.274 113.71L283.329 119.325" stroke="#363636" stroke-miterlimit="10" stroke-linecap="round" stroke-linejoin="round"/>
<path d="M289.532 109.531L280.782 115.407" stroke="#363636" stroke-miterlimit="10" stroke-linecap="round" stroke-linejoin="round"/>
<path d="M286.659 105.353L278.105 111.555" stroke="#363636" stroke-miterlimit="10" stroke-linecap="round" stroke-linejoin="round"/>
<path d="M283.59 101.37L275.298 107.834" stroke="#363636" stroke-miterlimit="10" stroke-linecap="round" stroke-linejoin="round"/>
<path d="M280.456 97.4529L272.359 104.178" stroke="#363636" stroke-miterlimit="10" stroke-linecap="round" stroke-linejoin="round"/>
<path d="M277.125 93.6663L269.29 100.652" stroke="#363636" stroke-miterlimit="10" stroke-linecap="round" stroke-linejoin="round"/>
<path d="M273.665 89.9448L266.091 97.2571" stroke="#363636" stroke-miterlimit="10" stroke-linecap="round" stroke-linejoin="round"/>
<path d="M270.139 86.4192L262.826 93.9927" stroke="#363636" stroke-miterlimit="10" stroke-linecap="round" stroke-linejoin="round"/>
<path d="M266.417 82.9587L259.365 90.7934" stroke="#363636" stroke-miterlimit="10" stroke-linecap="round" stroke-linejoin="round"/>
<path d="M258.713 76.4954L252.249 84.787" stroke="#363636" stroke-miterlimit="10" stroke-linecap="round" stroke-linejoin="round"/>
<path d="M254.729 73.4268L248.526 81.9795" stroke="#363636" stroke-miterlimit="10" stroke-linecap="round" stroke-linejoin="round"/>
<path d="M250.551 70.554L244.675 79.3026" stroke="#363636" stroke-miterlimit="10" stroke-linecap="round" stroke-linejoin="round"/>
<path d="M246.372 67.812L240.757 76.7566" stroke="#363636" stroke-miterlimit="10" stroke-linecap="round" stroke-linejoin="round"/>
<path d="M241.997 65.2004L236.773 74.3408" stroke="#363636" stroke-miterlimit="10" stroke-linecap="round" stroke-linejoin="round"/>
<path d="M237.623 62.7847L232.66 72.0556" stroke="#363636" stroke-miterlimit="10" stroke-linecap="round" stroke-linejoin="round"/>
<path d="M233.118 60.4995L228.547 69.9664" stroke="#363636" stroke-miterlimit="10" stroke-linecap="round" stroke-linejoin="round"/>
<path d="M228.547 58.3452L224.303 68.0079" stroke="#363636" stroke-miterlimit="10" stroke-linecap="round" stroke-linejoin="round"/>
<path d="M223.911 56.3865L219.993 66.1797" stroke="#363636" stroke-miterlimit="10" stroke-linecap="round" stroke-linejoin="round"/>
<path d="M214.443 52.926L211.179 62.9805" stroke="#363636" stroke-miterlimit="10" stroke-linecap="round" stroke-linejoin="round"/>
<path d="M209.611 51.4897L206.738 61.6095" stroke="#363636" stroke-miterlimit="10" stroke-linecap="round" stroke-linejoin="round"/>
<path d="M204.78 50.1841L202.233 60.3691" stroke="#363636" stroke-miterlimit="10" stroke-linecap="round" stroke-linejoin="round"/>
<path d="M199.882 49.0088L197.662 59.3244" stroke="#363636" stroke-miterlimit="10" stroke-linecap="round" stroke-linejoin="round"/>
<path d="M194.92 48.0947L193.092 58.4103" stroke="#363636" stroke-miterlimit="10" stroke-linecap="round" stroke-linejoin="round"/>
<path d="M189.958 47.3113L188.456 57.6922" stroke="#363636" stroke-miterlimit="10" stroke-linecap="round" stroke-linejoin="round"/>
<path d="M184.93 46.6584L183.82 57.1699" stroke="#363636" stroke-miterlimit="10" stroke-linecap="round" stroke-linejoin="round"/>
<path d="M179.903 46.2014L179.185 56.7129" stroke="#363636" stroke-miterlimit="10" stroke-linecap="round" stroke-linejoin="round"/>
<path d="M174.874 45.9402L174.548 56.5169" stroke="#363636" stroke-miterlimit="10" stroke-linecap="round" stroke-linejoin="round"/>
<path d="M169.847 41.1089V61.2178" stroke="#363636" stroke-width="2" stroke-miterlimit="10" stroke-linecap="round" stroke-linejoin="round"/>
<path d="M118.853 50.1187L125.708 68.9871" stroke="#363636" stroke-width="2" stroke-miterlimit="10" stroke-linecap="round" stroke-linejoin="round"/>
<path d="M73.9951 75.9729L86.9234 91.381" stroke="#363636" stroke-width="2" stroke-miterlimit="10" stroke-linecap="round" stroke-linejoin="round"/>
<path d="M40.6943 115.668L58.1279 125.723" stroke="#363636" stroke-width="2" stroke-miterlimit="10" stroke-linecap="round" stroke-linejoin="round"/>
<path d="M23 164.308L42.7842 167.834" stroke="#363636" stroke-width="2" stroke-miterlimit="10" stroke-linecap="round" stroke-linejoin="round"/>
<path d="M23 216.082L42.7842 212.622" stroke="#363636" stroke-width="2" stroke-miterlimit="10" stroke-linecap="round" stroke-linejoin="round"/>
<path d="M40.6943 264.788L58.1279 254.733" stroke="#363636" stroke-width="2" stroke-miterlimit="10" stroke-linecap="round" stroke-linejoin="round"/>
<path d="M73.9951 304.418L86.9234 289.075" stroke="#363636" stroke-width="2" stroke-miterlimit="10" stroke-linecap="round" stroke-linejoin="round"/>
<path d="M118.853 330.337L125.708 311.469" stroke="#363636" stroke-width="2" stroke-miterlimit="10" stroke-linecap="round" stroke-linejoin="round"/>
<path d="M169.847 339.347V319.238" stroke="#363636" stroke-width="2" stroke-miterlimit="10" stroke-linecap="round" stroke-linejoin="round"/>
<path d="M220.842 330.337L213.986 311.469" stroke="#363636" stroke-width="2" stroke-miterlimit="10" stroke-linecap="round" stroke-linejoin="round"/>
<path d="M265.699 304.418L252.771 289.075" stroke="#363636" stroke-width="2" stroke-miterlimit="10" stroke-linecap="round" stroke-linejoin="round"/>
<path d="M298.999 264.788L281.631 254.733" stroke="#363636" stroke-width="2" stroke-miterlimit="10" stroke-linecap="round" stroke-linejoin="round"/>
<path d="M316.694 216.082L296.91 212.622" stroke="#363636" stroke-width="2" stroke-miterlimit="10" stroke-linecap="round" stroke-linejoin="round"/>
<path d="M316.694 164.308L296.91 167.834" stroke="#363636" stroke-width="2" stroke-miterlimit="10" stroke-linecap="round" stroke-linejoin="round"/>
<path d="M298.999 115.668L281.631 125.723" stroke="#363636" stroke-width="2" stroke-miterlimit="10" stroke-linecap="round" stroke-linejoin="round"/>
<path d="M265.699 75.9729L252.771 91.381" stroke="#363636" stroke-width="2" stroke-miterlimit="10" stroke-linecap="round" stroke-linejoin="round"/>
<path d="M220.842 50.1187L213.986 68.9871" stroke="#363636" stroke-width="2" stroke-miterlimit="10" stroke-linecap="round" stroke-linejoin="round"/>

<path stroke="#C0C8CE" stroke-miterlimit="10" stroke-linecap="round" stroke-linejoin="round"/>
<path d="M177.357 34.7106H162.404L169.848 21.3264L177.357 34.7106Z" fill="#F67556" stroke="#F67556" stroke-miterlimit="10" stroke-linecap="round" stroke-linejoin="round"/>
<path d="M64.6553 200H62.6865L59.2295 188.527C59.0654 188.02 58.8818 187.379 58.6787 186.605C58.4756 185.832 58.3701 185.367 58.3623 185.211C58.1904 186.242 57.917 187.371 57.542 188.598L54.1904 200H52.2217L47.6631 182.867H49.7725L52.4795 193.449C52.8545 194.934 53.1279 196.277 53.2998 197.48C53.5107 196.051 53.8232 194.652 54.2373 193.285L57.3076 182.867H59.417L62.6396 193.379C63.0146 194.59 63.3311 195.957 63.5889 197.48C63.7373 196.371 64.0186 195.02 64.4326 193.426L67.1279 182.867H69.2373L64.6553 200Z" fill="#363636" transform="translate(-130,248) rotate(-90)"/>
<path d="M290.254 200H280.703V182.867H290.254V184.637H282.695V190.156H289.797V191.914H282.695V198.219H290.254V200Z" fill="#363636" transform="translate(470,-95) rotate(90)"/>
<path d="M176.086 90.0002H173.812L164.449 75.6213H164.355C164.48 77.3088 164.543 78.8557 164.543 80.262V90.0002H162.703V72.8674H164.953L174.293 87.1877H174.387C174.371 86.9768 174.336 86.301 174.281 85.1604C174.227 84.012 174.207 83.1917 174.223 82.6995V72.8674H176.086V90.0002Z" fill="#363636"/>
<path d="M174.371 304.44C174.371 305.948 173.824 307.124 172.73 307.968C171.637 308.812 170.152 309.233 168.277 309.233C166.246 309.233 164.684 308.972 163.59 308.448V306.526C164.293 306.823 165.059 307.058 165.887 307.229C166.715 307.401 167.535 307.487 168.348 307.487C169.676 307.487 170.676 307.237 171.348 306.737C172.02 306.229 172.355 305.526 172.355 304.628C172.355 304.034 172.234 303.55 171.992 303.175C171.758 302.792 171.359 302.44 170.797 302.12C170.242 301.8 169.395 301.437 168.254 301.03C166.66 300.46 165.52 299.784 164.832 299.003C164.152 298.222 163.812 297.202 163.812 295.944C163.812 294.624 164.309 293.573 165.301 292.792C166.293 292.011 167.605 291.62 169.238 291.62C170.941 291.62 172.508 291.933 173.938 292.558L173.316 294.292C171.902 293.698 170.527 293.401 169.191 293.401C168.137 293.401 167.312 293.628 166.719 294.081C166.125 294.534 165.828 295.163 165.828 295.968C165.828 296.562 165.938 297.05 166.156 297.433C166.375 297.808 166.742 298.155 167.258 298.476C167.781 298.788 168.578 299.136 169.648 299.519C171.445 300.159 172.68 300.847 173.352 301.581C174.031 302.315 174.371 303.269 174.371 304.44Z" fill="#363636"/>
<path d="M323.861 209.332L324.027 208.237L331.069 209.303C331.655 209.391 332.207 209.493 332.724 209.608C332.644 209.5 332.561 209.379 332.475 209.246C332.389 209.113 332.031 208.51 331.4 207.438L332.261 206.959L333.886 209.881L333.742 210.827L323.861 209.332Z" fill="#363636"/>
<path d="M326.903 221.574C325.213 221.218 324.007 220.685 323.286 219.974C322.564 219.268 322.318 218.366 322.549 217.269C322.771 216.216 323.365 215.506 324.332 215.136C325.304 214.768 326.615 214.758 328.265 215.105C329.969 215.464 331.177 215.996 331.89 216.7C332.603 217.405 332.846 218.301 332.616 219.389C332.393 220.45 331.793 221.165 330.817 221.532C329.84 221.904 328.535 221.918 326.903 221.574ZM328.028 216.229C326.606 215.93 325.534 215.878 324.812 216.076C324.095 216.274 323.66 216.739 323.506 217.47C323.35 218.211 323.565 218.815 324.151 219.283C324.74 219.756 325.738 220.141 327.142 220.437C328.547 220.733 329.61 220.782 330.332 220.584C331.057 220.393 331.497 219.926 331.653 219.186C331.807 218.455 331.596 217.854 331.02 217.383C330.448 216.913 329.451 216.529 328.028 216.229Z" fill="#363636"/>
<path d="M324.717 230.994C323.051 230.536 321.88 229.93 321.204 229.177C320.526 228.428 320.336 227.513 320.633 226.432C320.918 225.395 321.555 224.722 322.543 224.412C323.535 224.104 324.844 224.173 326.47 224.62C328.149 225.082 329.322 225.686 329.991 226.433C330.66 227.179 330.848 228.088 330.553 229.161C330.265 230.206 329.623 230.883 328.626 231.19C327.628 231.502 326.325 231.436 324.717 230.994ZM326.165 225.728C324.764 225.342 323.697 225.226 322.965 225.379C322.237 225.533 321.774 225.971 321.576 226.691C321.375 227.421 321.553 228.037 322.109 228.54C322.669 229.048 323.641 229.493 325.025 229.873C326.409 230.254 327.467 230.368 328.2 230.215C328.935 230.067 329.403 229.629 329.604 228.899C329.802 228.179 329.628 227.566 329.081 227.061C328.539 226.558 327.567 226.113 326.165 225.728Z" fill="#363636"/>
<path d="M308.782 259.216L309.303 258.239L315.59 261.587C316.113 261.865 316.599 262.145 317.048 262.426C317.009 262.296 316.971 262.155 316.934 262.001C316.897 261.847 316.76 261.159 316.522 259.938L317.493 259.773L318.053 263.069L317.603 263.914L308.782 259.216Z" fill="#363636"/>
<path d="M303.193 269.337L306.617 263.73L307.451 264.24L308.337 267.865C308.611 268.972 308.83 269.725 308.992 270.123C309.155 270.522 309.343 270.861 309.556 271.141C309.77 271.421 310.038 271.659 310.361 271.856C310.816 272.134 311.26 272.216 311.693 272.101C312.13 271.989 312.498 271.688 312.797 271.198C313.014 270.844 313.161 270.472 313.239 270.082C313.315 269.695 313.318 269.214 313.248 268.637L314.221 268.527C314.394 269.711 314.198 270.766 313.633 271.692C313.144 272.493 312.554 272.995 311.864 273.199C311.177 273.404 310.488 273.296 309.796 272.873C309.255 272.543 308.813 272.064 308.469 271.438C308.126 270.812 307.804 269.835 307.503 268.509L306.817 265.527L306.771 265.498L304.091 269.885L303.193 269.337Z" fill="#363636"/>
<path d="M302.331 279.991C300.912 279.005 300.009 278.045 299.621 277.11C299.23 276.178 299.355 275.252 299.994 274.331C300.608 273.448 301.432 273.024 302.466 273.06C303.505 273.099 304.716 273.599 306.101 274.561C307.531 275.554 308.438 276.514 308.821 277.44C309.204 278.366 309.079 279.286 308.445 280.199C307.826 281.09 306.996 281.515 305.953 281.474C304.909 281.436 303.701 280.942 302.331 279.991ZM305.446 275.504C304.252 274.675 303.285 274.211 302.543 274.112C301.805 274.016 301.223 274.275 300.797 274.889C300.366 275.51 300.329 276.151 300.687 276.81C301.046 277.475 301.815 278.217 302.994 279.036C304.173 279.855 305.133 280.314 305.875 280.412C306.617 280.518 307.205 280.259 307.636 279.638C308.062 279.024 308.102 278.388 307.754 277.731C307.41 277.076 306.641 276.333 305.446 275.504Z" fill="#363636"/>
<path d="M277.959 301.285L278.773 300.534L283.605 305.768C284.006 306.204 284.373 306.628 284.705 307.041C284.71 306.906 284.721 306.759 284.737 306.602C284.753 306.445 284.85 305.75 285.028 304.519L285.999 304.684L285.442 307.98L284.738 308.629L277.959 301.285Z" fill="#363636"/>
<path d="M270.426 311.073L271.572 310.132L270.115 308.356L270.955 307.667L272.413 309.442L276.17 306.359L276.798 307.125L277.42 315.361L276.49 316.124L272.227 310.93L271.081 311.871L270.426 311.073ZM273.067 310.24L275.175 312.808C275.588 313.312 276.038 313.896 276.523 314.559L276.565 314.524C276.457 314.047 276.385 313.637 276.351 313.293L275.947 307.877L273.067 310.24Z" fill="#363636"/>
<path d="M264.879 318.868C263.868 317.467 263.335 316.261 263.279 315.25C263.22 314.242 263.645 313.41 264.554 312.753C265.426 312.124 266.344 311.998 267.308 312.376C268.275 312.757 269.252 313.631 270.239 314.999C271.258 316.41 271.794 317.616 271.848 318.617C271.901 319.618 271.478 320.444 270.576 321.095C269.696 321.73 268.772 321.855 267.803 321.47C266.83 321.087 265.855 320.22 264.879 318.868ZM269.308 315.671C268.457 314.492 267.698 313.733 267.031 313.393C266.367 313.058 265.733 313.109 265.127 313.546C264.513 313.989 264.266 314.58 264.384 315.321C264.502 316.068 264.981 317.023 265.821 318.187C266.661 319.351 267.415 320.103 268.081 320.442C268.747 320.788 269.386 320.74 270 320.297C270.606 319.86 270.854 319.273 270.744 318.537C270.637 317.805 270.158 316.849 269.308 315.671Z" fill="#363636"/>
<path d="M231.199 332.498L232.227 332.086L234.879 338.697C235.099 339.247 235.291 339.774 235.454 340.278C235.507 340.153 235.569 340.02 235.64 339.879C235.711 339.738 236.049 339.123 236.654 338.036L237.502 338.536L235.808 341.417L234.92 341.774L231.199 332.498Z" fill="#363636"/>
<path d="M227.824 338.657C228.444 340.521 228.547 342.033 228.131 343.195C227.713 344.362 226.795 345.182 225.376 345.654C224.888 345.817 224.489 345.904 224.181 345.915L223.872 344.987C224.241 344.985 224.639 344.912 225.067 344.77C226.084 344.431 226.754 343.855 227.079 343.041C227.405 342.231 227.368 341.139 226.967 339.764L226.89 339.79C226.662 340.692 226.033 341.314 225.004 341.657C224.152 341.94 223.396 341.906 222.736 341.554C222.072 341.204 221.593 340.587 221.299 339.705C220.971 338.719 220.983 337.853 221.335 337.107C221.684 336.366 222.317 335.844 223.234 335.538C224.215 335.212 225.116 335.32 225.936 335.864C226.757 336.412 227.386 337.343 227.824 338.657ZM223.551 336.449C222.937 336.653 222.525 337.004 222.316 337.501C222.104 338.004 222.12 338.621 222.363 339.351C222.572 339.978 222.894 340.419 223.329 340.672C223.764 340.926 224.295 340.949 224.922 340.74C225.311 340.611 225.641 340.412 225.912 340.144C226.183 339.876 226.369 339.569 226.47 339.223C226.567 338.879 226.565 338.555 226.464 338.253C226.316 337.807 226.091 337.421 225.79 337.094C225.489 336.766 225.144 336.543 224.753 336.423C224.358 336.305 223.958 336.313 223.551 336.449Z" fill="#363636"/>
<path d="M212.757 344.237C212.312 342.568 212.243 341.251 212.552 340.287C212.856 339.323 213.55 338.697 214.633 338.408C215.672 338.131 216.575 338.34 217.341 339.037C218.108 339.738 218.709 340.903 219.144 342.532C219.593 344.214 219.664 345.532 219.357 346.486C219.051 347.441 218.36 348.061 217.286 348.348C216.238 348.628 215.33 348.415 214.562 347.71C213.789 347.006 213.187 345.848 212.757 344.237ZM218.034 342.828C217.659 341.423 217.221 340.444 216.719 339.889C216.218 339.339 215.607 339.16 214.885 339.353C214.154 339.548 213.712 340.012 213.559 340.747C213.403 341.486 213.51 342.55 213.88 343.937C214.25 345.324 214.686 346.295 215.188 346.849C215.687 347.41 216.301 347.592 217.032 347.397C217.754 347.204 218.195 346.745 218.355 346.018C218.516 345.296 218.409 344.233 218.034 342.828Z" fill="#363636"/>
<path d="M180.501 344.694L181.608 344.647L181.91 351.764C181.935 352.355 181.941 352.916 181.927 353.446C182.018 353.346 182.121 353.242 182.235 353.132C182.349 353.022 182.872 352.555 183.804 351.731L184.438 352.484L181.881 354.638L180.925 354.679L180.501 344.694Z" fill="#363636"/>
<path d="M171.363 355.193C170.452 355.175 169.734 354.949 169.209 354.515C168.684 354.081 168.429 353.491 168.443 352.743C168.453 352.251 168.614 351.805 168.927 351.406C169.24 351.006 169.735 350.646 170.411 350.327C169.608 349.924 169.039 349.505 168.706 349.07C168.372 348.64 168.211 348.144 168.222 347.584C168.238 346.755 168.54 346.097 169.128 345.612C169.716 345.131 170.514 344.9 171.521 344.919C172.587 344.94 173.403 345.188 173.968 345.664C174.533 346.144 174.807 346.813 174.79 347.67C174.768 348.813 174.054 349.691 172.647 350.302C173.269 350.669 173.713 351.061 173.979 351.476C174.244 351.896 174.372 352.361 174.362 352.871C174.348 353.596 174.07 354.167 173.529 354.585C172.983 355.007 172.261 355.21 171.363 355.193ZM173.67 347.621C173.681 347.074 173.5 346.644 173.127 346.332C172.751 346.019 172.218 345.856 171.53 345.843C170.851 345.83 170.32 345.979 169.935 346.29C169.551 346.602 169.353 347.036 169.343 347.592C169.334 348.034 169.504 348.429 169.853 348.778C170.202 349.131 170.815 349.478 171.693 349.818C172.377 349.54 172.876 349.226 173.188 348.876C173.5 348.531 173.661 348.113 173.67 347.621ZM171.395 354.27C171.964 354.281 172.414 354.153 172.742 353.886C173.071 353.619 173.24 353.258 173.249 352.802C173.257 352.383 173.129 352.02 172.866 351.714C172.603 351.408 172.112 351.098 171.394 350.783C170.737 351.044 170.271 351.329 169.996 351.638C169.717 351.947 169.573 352.312 169.565 352.731C169.556 353.191 169.715 353.559 170.043 353.834C170.365 354.114 170.816 354.259 171.395 354.27Z" fill="#363636"/>
<path d="M158.636 349.614C158.77 347.892 159.142 346.627 159.752 345.82C160.359 345.012 161.221 344.651 162.339 344.738C163.411 344.82 164.193 345.317 164.685 346.228C165.176 347.144 165.357 348.442 165.227 350.124C165.093 351.859 164.723 353.127 164.117 353.925C163.512 354.724 162.654 355.081 161.546 354.995C160.464 354.911 159.678 354.41 159.187 353.489C158.691 352.569 158.508 351.277 158.636 349.614ZM164.082 350.035C164.194 348.586 164.105 347.516 163.816 346.826C163.526 346.141 163.009 345.77 162.263 345.712C161.509 345.654 160.938 345.946 160.55 346.588C160.157 347.234 159.906 348.272 159.795 349.704C159.684 351.135 159.774 352.196 160.063 352.885C160.348 353.579 160.867 353.955 161.622 354.014C162.367 354.071 162.935 353.784 163.327 353.151C163.718 352.523 163.97 351.485 164.082 350.035Z" fill="#363636"/>
<path d="M121.888 337.392L128.113 339.49L127.801 340.417L124.462 342.083C123.443 342.595 122.757 342.975 122.405 343.222C122.052 343.468 121.763 343.727 121.537 343.997C121.311 344.267 121.138 344.582 121.017 344.94C120.847 345.445 120.866 345.896 121.073 346.293C121.28 346.695 121.655 346.987 122.199 347.171C122.592 347.303 122.987 347.364 123.385 347.354C123.778 347.342 124.249 347.239 124.795 347.043L125.119 347.967C124.002 348.399 122.93 348.441 121.902 348.095C121.012 347.795 120.392 347.331 120.041 346.703C119.688 346.079 119.642 345.383 119.901 344.614C120.103 344.014 120.472 343.477 121.007 343.003C121.541 342.529 122.422 341.999 123.649 341.412L126.406 340.083L126.423 340.032L121.552 338.39L121.888 337.392Z" fill="#363636"/>
<path d="M111.266 338.889C111.915 337.289 112.653 336.196 113.48 335.612C114.302 335.026 115.233 334.943 116.272 335.365C117.269 335.769 117.863 336.48 118.056 337.497C118.247 338.518 118.025 339.81 117.392 341.373C116.737 342.986 116.001 344.082 115.181 344.659C114.362 345.237 113.437 345.317 112.407 344.899C111.401 344.491 110.804 343.775 110.615 342.749C110.422 341.722 110.639 340.435 111.266 338.889ZM116.327 340.941C116.874 339.594 117.113 338.548 117.047 337.803C116.978 337.062 116.598 336.551 115.905 336.271C115.204 335.986 114.571 336.091 114.007 336.585C113.437 337.082 112.882 337.996 112.343 339.326C111.803 340.656 111.567 341.694 111.634 342.439C111.694 343.187 112.075 343.702 112.776 343.987C113.469 344.268 114.098 344.166 114.663 343.682C115.226 343.202 115.781 342.289 116.327 340.941Z" fill="#363636"/>
<path d="M102.514 335.127C103.257 333.568 104.059 332.521 104.919 331.987C105.776 331.451 106.71 331.425 107.722 331.907C108.693 332.37 109.244 333.115 109.375 334.142C109.505 335.173 109.207 336.449 108.481 337.972C107.732 339.543 106.931 340.593 106.079 341.12C105.226 341.648 104.298 341.673 103.295 341.194C102.316 340.727 101.762 339.976 101.635 338.941C101.503 337.904 101.796 336.633 102.514 335.127ZM107.444 337.477C108.07 336.165 108.372 335.135 108.349 334.387C108.325 333.644 107.976 333.111 107.301 332.79C106.618 332.464 105.98 332.531 105.388 332.991C104.789 333.452 104.181 334.331 103.563 335.627C102.945 336.923 102.647 337.945 102.67 338.692C102.686 339.442 103.035 339.98 103.718 340.305C104.393 340.627 105.027 340.563 105.62 340.114C106.21 339.668 106.819 338.79 107.444 337.477Z" fill="#363636"/>
<path d="M75.8778 313.164L81.0605 317.2L80.4598 317.972L76.7579 318.442C75.6266 318.589 74.8539 318.72 74.4398 318.837C74.0256 318.953 73.6674 319.102 73.3651 319.282C73.0628 319.463 72.7954 319.702 72.563 320.001C72.2353 320.421 72.1039 320.853 72.1688 321.296C72.2308 321.743 72.4883 322.143 72.9414 322.496C73.2685 322.751 73.6215 322.939 74.0004 323.061C74.3756 323.18 74.8536 323.237 75.4344 323.233L75.4343 324.213C74.2376 324.251 73.2114 323.937 72.3557 323.27C71.615 322.693 71.1828 322.051 71.059 321.342C70.9323 320.637 71.1183 319.964 71.6167 319.324C72.006 318.824 72.5313 318.439 73.1925 318.169C73.8538 317.898 74.8604 317.689 76.2123 317.54L79.2529 317.196L79.2865 317.153L75.2309 313.994L75.8778 313.164Z" fill="#363636"/>
<path d="M68.6445 307.281L73.5676 311.63L72.9204 312.363L69.1965 312.603C68.0583 312.68 67.2789 312.764 66.8583 312.854C66.4378 312.945 66.071 313.071 65.7581 313.232C65.4453 313.394 65.1636 313.616 64.9132 313.899C64.5601 314.299 64.4023 314.722 64.4396 315.169C64.4739 315.618 64.7062 316.033 65.1365 316.414C65.4473 316.688 65.788 316.898 66.1585 317.043C66.5257 317.185 66.9992 317.272 67.5791 317.304L67.5185 318.281C66.3217 318.245 65.3169 317.868 64.504 317.15C63.8005 316.529 63.4088 315.86 63.3291 315.145C63.2463 314.434 63.4735 313.774 64.0106 313.166C64.43 312.691 64.9781 312.339 65.6548 312.11C66.3316 311.881 67.3492 311.734 68.7077 311.669L71.7637 311.514L71.7999 311.473L67.9475 308.07L68.6445 307.281Z" fill="#363636"/>
<path d="M58.3142 304.592C59.5311 303.366 60.6338 302.643 61.6223 302.424C62.6076 302.201 63.498 302.484 64.2936 303.274C65.0569 304.032 65.3308 304.917 65.1154 305.93C64.8967 306.946 64.1934 308.052 63.0054 309.249C61.7789 310.484 60.6762 311.21 59.6973 311.426C58.7185 311.643 57.8345 311.359 57.0453 310.575C56.2756 309.811 56.0017 308.92 56.2235 307.901C56.4422 306.878 57.1391 305.775 58.3142 304.592ZM62.1904 308.44C63.2146 307.408 63.8398 306.536 64.066 305.823C64.289 305.113 64.1353 304.495 63.6049 303.968C63.0681 303.435 62.444 303.287 61.7327 303.525C61.0149 303.763 60.1503 304.391 59.1389 305.41C58.1275 306.429 57.5087 307.295 57.2825 308.008C57.0499 308.721 57.202 309.344 57.7389 309.877C58.2693 310.403 58.8885 310.553 59.5967 310.325C60.3016 310.1 61.1661 309.471 62.1904 308.44Z" fill="#363636"/>
<path d="M40.3438 274.981L43.8906 280.51L43.0678 281.038L39.4201 280.251C38.3042 280.014 37.5316 279.881 37.1023 279.854C36.673 279.826 36.2858 279.847 35.9407 279.916C35.5956 279.986 35.2639 280.123 34.9455 280.327C34.4967 280.615 34.2292 280.979 34.143 281.419C34.0531 281.861 34.1631 282.324 34.4731 282.807C34.697 283.156 34.9674 283.451 35.2842 283.692C35.5986 283.929 36.0304 284.142 36.5794 284.331L36.254 285.254C35.1126 284.893 34.249 284.255 33.6634 283.343C33.1566 282.552 32.9625 281.802 33.0812 281.093C33.1961 280.386 33.595 279.813 34.2778 279.375C34.811 279.033 35.4344 278.844 36.148 278.809C36.8616 278.773 37.8806 278.91 39.2051 279.219L42.1871 279.905L42.2331 279.876L39.4577 275.549L40.3438 274.981Z" fill="#363636"/>
<path d="M33.3063 267.884L34.0324 269.178L36.0353 268.054L36.5673 269.001L34.5644 270.126L36.9434 274.364L36.079 274.849L27.8614 274.021L27.2725 272.972L33.1323 269.683L32.4062 268.39L33.3063 267.884ZM33.6643 270.631L30.7672 272.257C30.1989 272.576 29.5459 272.916 28.8083 273.278L28.835 273.326C29.3236 273.303 29.7399 273.304 30.084 273.33L35.4878 273.88L33.6643 270.631Z" fill="#363636"/>
<path d="M26.6732 261.227C28.2268 260.473 29.5063 260.155 30.5118 260.274C31.5153 260.39 32.2621 260.952 32.752 261.96C33.222 262.927 33.188 263.853 32.6501 264.738C32.108 265.625 31.0787 266.436 29.562 267.173C27.9961 267.934 26.7155 268.255 25.7202 268.135C24.7249 268.016 23.9843 267.456 23.4983 266.456C23.0243 265.48 23.0604 264.548 23.6066 263.66C24.1507 262.767 25.1729 261.956 26.6732 261.227ZM29.0601 266.14C30.3677 265.505 31.2461 264.888 31.6952 264.29C32.1402 263.694 32.1994 263.06 31.8727 262.387C31.5421 261.707 31.0019 261.361 30.2519 261.351C29.4959 261.338 28.4723 261.645 27.1811 262.273C25.8898 262.9 25.0197 263.513 24.5706 264.111C24.1154 264.707 24.0531 265.345 24.3837 266.026C24.7103 266.698 25.2455 267.044 25.9892 267.062C26.7289 267.083 27.7525 266.776 29.0601 266.14Z" fill="#363636"/>
<path d="M18.5592 223.216L19.8885 229.65L18.9312 229.848L15.8078 227.806C14.8511 227.184 14.1774 226.784 13.7865 226.604C13.3957 226.424 13.0267 226.305 12.6795 226.246C12.3324 226.188 11.9736 226.197 11.6032 226.273C11.081 226.381 10.7009 226.625 10.4629 227.004C10.2204 227.385 10.1573 227.856 10.2735 228.419C10.3574 228.825 10.5041 229.197 10.7136 229.535C10.9222 229.869 11.2489 230.223 11.6937 230.596L11.0589 231.342C10.1228 230.595 9.54507 229.691 9.3256 228.628C9.13564 227.709 9.22325 226.939 9.58844 226.319C9.94917 225.7 10.5267 225.309 11.3212 225.145C11.9415 225.016 12.5911 225.064 13.27 225.286C13.9489 225.509 14.8512 226.002 15.9769 226.765L18.5149 228.475L18.5684 228.464L17.5283 223.429L18.5592 223.216Z" fill="#363636"/>
<path d="M13.6251 221.464C11.6819 221.75 10.1746 221.587 9.10332 220.976C8.02683 220.361 7.3796 219.314 7.16162 217.835C7.08652 217.326 7.0702 216.918 7.11267 216.612L8.07975 216.47C8.01821 216.834 8.02034 217.239 8.08613 217.685C8.24231 218.744 8.69298 219.505 9.43815 219.966C10.1788 220.428 11.261 220.582 12.6846 220.427L12.6727 220.346C11.8241 219.965 11.3207 219.237 11.1626 218.164C11.0316 217.276 11.1969 216.538 11.6583 215.949C12.1191 215.356 12.8093 214.992 13.7291 214.856C14.757 214.705 15.6078 214.867 16.2815 215.344C16.9501 215.816 17.3548 216.531 17.4957 217.486C17.6465 218.51 17.3829 219.378 16.7049 220.091C16.0223 220.804 14.9957 221.261 13.6251 221.464ZM16.5441 217.641C16.4497 217 16.176 216.534 15.7229 216.241C15.2646 215.945 14.6545 215.853 13.8926 215.965C13.2388 216.062 12.7491 216.302 12.4234 216.686C12.0977 217.071 11.983 217.59 12.0794 218.243C12.1392 218.649 12.2774 219.009 12.4941 219.322C12.7108 219.636 12.9806 219.873 13.3035 220.032C13.6258 220.187 13.9448 220.242 14.2604 220.195C14.7248 220.127 15.1443 219.973 15.519 219.733C15.8937 219.494 16.174 219.192 16.3599 218.829C16.5452 218.46 16.6066 218.064 16.5441 217.641Z" fill="#363636"/>
<path d="M10.7136 205.405C12.4346 205.258 13.7428 205.421 14.6383 205.894C15.5334 206.362 16.0285 207.155 16.1235 208.272C16.2147 209.344 15.8503 210.196 15.0305 210.828C14.2062 211.46 12.9539 211.848 11.2738 211.991C9.53918 212.139 8.22886 211.978 7.34283 211.509C6.4568 211.04 5.96667 210.252 5.87244 209.144C5.78051 208.063 6.149 207.206 6.97789 206.573C7.80639 205.935 9.05162 205.546 10.7136 205.405ZM11.1765 210.847C12.625 210.724 13.6663 210.464 14.3003 210.067C14.9298 209.67 15.2128 209.099 15.1495 208.355C15.0854 207.601 14.7053 207.084 14.0092 206.805C13.3082 206.522 12.2425 206.441 10.8121 206.563C9.3817 206.684 8.3495 206.944 7.7155 207.34C7.07657 207.733 6.78916 208.307 6.85327 209.06C6.91661 209.805 7.29198 210.32 7.97937 210.604C8.66223 210.889 9.72793 210.97 11.1765 210.847Z" fill="#363636"/>
<path d="M16.177 170.727L15.2939 177.237L14.3253 177.106L12.0576 174.142C11.3615 173.238 10.8591 172.637 10.5502 172.337C10.2413 172.038 9.93284 171.803 9.62485 171.632C9.31685 171.462 8.97545 171.351 8.60062 171.3C8.07226 171.228 7.63279 171.332 7.28221 171.611C6.92711 171.889 6.71097 172.313 6.63378 172.882C6.57803 173.293 6.59277 173.693 6.67801 174.081C6.76387 174.466 6.95454 174.908 7.25004 175.408L6.40372 175.9C5.7688 174.885 5.52424 173.84 5.67005 172.765C5.79625 171.835 6.13453 171.138 6.6849 170.675C7.23075 170.21 7.90559 170.033 8.70943 170.142C9.33714 170.227 9.93419 170.488 10.5006 170.923C11.067 171.359 11.7542 172.123 12.5625 173.217L14.3886 175.672L14.4428 175.68L15.1339 170.586L16.177 170.727Z" fill="#363636"/>
<path d="M6.93395 163.288C7.10814 162.393 7.4542 161.725 7.97211 161.282C8.49003 160.84 9.1158 160.69 9.84942 160.833C10.3325 160.927 10.744 161.163 11.0837 161.54C11.4235 161.917 11.6927 162.467 11.8912 163.188C12.4264 162.465 12.937 161.978 13.4228 161.724C13.9041 161.469 14.4199 161.396 14.9701 161.503C15.7843 161.661 16.3798 162.072 16.7568 162.735C17.1293 163.397 17.2193 164.223 17.0268 165.211C16.823 166.258 16.4381 167.019 15.8721 167.494C15.3016 167.968 14.5959 168.123 13.7549 167.959C12.6321 167.74 11.8908 166.886 11.5311 165.395C11.062 165.944 10.6 166.314 10.1451 166.504C9.68581 166.693 9.20564 166.739 8.70463 166.641C7.99338 166.503 7.47846 166.131 7.15987 165.526C6.83768 164.915 6.76238 164.169 6.93395 163.288ZM13.996 166.864C14.5328 166.968 14.9872 166.864 15.3592 166.551C15.7321 166.234 15.9842 165.737 16.1158 165.062C16.2455 164.395 16.19 163.846 15.9492 163.414C15.7083 162.981 15.315 162.712 14.7693 162.606C14.3354 162.521 13.9167 162.621 13.5133 162.905C13.1054 163.187 12.6581 163.732 12.1716 164.538C12.3281 165.26 12.5516 165.805 12.8422 166.172C13.1283 166.539 13.5129 166.77 13.996 166.864ZM7.83718 163.478C7.72831 164.037 7.77716 164.501 7.98372 164.871C8.19028 165.241 8.51722 165.47 8.96455 165.557C9.37609 165.637 9.75518 165.574 10.1018 165.367C10.4484 165.161 10.8386 164.731 11.2723 164.077C11.1285 163.385 10.9279 162.877 10.6706 162.553C10.4142 162.225 10.0803 162.02 9.66872 161.94C9.21691 161.852 8.82726 161.946 8.49976 162.221C8.16865 162.491 7.94779 162.91 7.83718 163.478Z" fill="#363636"/>
<path d="M14.636 151.531C16.3081 151.963 17.4882 152.551 18.1762 153.294C18.8654 154.033 19.0695 154.945 18.7886 156.03C18.5191 157.071 17.8928 157.754 16.9097 158.079C15.9222 158.402 14.6122 158.353 12.9798 157.93C11.2944 157.494 10.1116 156.908 9.43124 156.171C8.75092 155.435 8.55006 154.529 8.82867 153.452C9.10042 152.402 9.73228 151.716 10.7242 151.394C11.7173 151.067 13.0212 151.113 14.636 151.531ZM13.2675 156.818C14.6749 157.182 15.7435 157.283 16.4733 157.118C17.1987 156.953 17.655 156.509 17.8422 155.785C18.0318 155.053 17.8445 154.439 17.2805 153.945C16.7131 153.445 15.7346 153.015 14.3448 152.656C12.9551 152.296 11.8953 152.198 11.1655 152.362C10.4325 152.521 9.97119 152.966 9.78164 153.699C9.59438 154.422 9.77779 155.032 10.3319 155.529C10.8816 156.024 11.8601 156.454 13.2675 156.818Z" fill="#363636"/>
<path d="M26.1215 114.061C26.6813 114.367 27.0527 114.775 27.2359 115.286C27.4212 115.792 27.4164 116.366 27.2215 117.008L27.2695 117.034C27.7423 116.378 28.2515 115.979 28.7973 115.836C29.343 115.693 29.9077 115.781 30.4915 116.1C31.3272 116.557 31.8124 117.199 31.9472 118.026C32.078 118.851 31.8515 119.797 31.2677 120.864C31.0141 121.328 30.7453 121.734 30.4612 122.083C30.1833 122.429 29.8569 122.737 29.482 123.004L28.5344 122.486C28.93 122.209 29.2948 121.884 29.6287 121.511C29.9608 121.131 30.2318 120.75 30.4417 120.366C31.2704 118.85 31.091 117.768 29.9034 117.119C28.8398 116.537 27.851 117.082 26.9371 118.753L26.4648 119.617L25.6071 119.148L26.0859 118.272C26.4598 117.589 26.6062 116.965 26.5249 116.401C26.4397 115.835 26.1292 115.405 25.5934 115.112C25.1655 114.878 24.7487 114.843 24.343 115.005C23.9395 115.164 23.6 115.495 23.3245 115.999C23.1146 116.383 22.9687 116.773 22.8868 117.17C22.8049 117.566 22.7848 118.059 22.8263 118.648L21.8791 118.784C21.792 118.269 21.7964 117.734 21.8922 117.179C21.9863 116.617 22.1755 116.077 22.4597 115.557C22.9254 114.705 23.4832 114.151 24.1331 113.893C24.7789 113.633 25.4417 113.689 26.1215 114.061Z" fill="#363636"/>
<path d="M33.2645 106.827C34.7285 107.743 35.6766 108.66 36.1088 109.575C36.5434 110.487 36.4632 111.418 35.8684 112.368C35.2977 113.28 34.4947 113.743 33.4595 113.756C32.4204 113.767 31.1862 113.325 29.757 112.43C28.2814 111.506 27.3302 110.591 26.9033 109.684C26.4764 108.777 26.558 107.852 27.148 106.909C27.7236 105.99 28.5328 105.526 29.5757 105.518C30.6211 105.506 31.8507 105.942 33.2645 106.827ZM30.3664 111.457C31.5986 112.228 32.5874 112.645 33.3327 112.709C34.0742 112.77 34.6432 112.483 35.0398 111.85C35.4412 111.209 35.4475 110.567 35.0586 109.926C34.6682 109.278 33.8647 108.574 32.6479 107.812C31.4311 107.05 30.45 106.638 29.7047 106.574C28.9579 106.505 28.3838 106.791 27.9824 107.432C27.5858 108.065 27.5769 108.702 27.9557 109.343C28.3306 109.981 29.1341 110.685 30.3664 111.457Z" fill="#363636"/>
<path d="M38.3292 99.0324C39.737 100.033 40.6298 101.003 41.0076 101.943C41.388 102.878 41.2535 103.803 40.604 104.717C39.9809 105.594 39.1522 106.008 38.118 105.961C37.08 105.911 35.8739 105.397 34.4995 104.42C33.0805 103.412 32.1845 102.442 31.8115 101.512C31.4385 100.581 31.5741 99.6629 32.2184 98.7565C32.8468 97.8725 33.6818 97.4568 34.7234 97.5094C35.7677 97.5584 36.9697 98.0661 38.3292 99.0324ZM35.1648 103.484C36.3498 104.327 37.3124 104.801 38.0527 104.908C38.7894 105.012 39.3742 104.76 39.8072 104.151C40.2455 103.534 40.2893 102.894 39.9386 102.231C39.5869 101.562 38.826 100.811 37.6559 99.9796C36.4858 99.1479 35.5306 98.6786 34.7903 98.5718C34.0488 98.4585 33.459 98.7102 33.0207 99.3268C32.5877 99.936 32.5415 100.571 32.8821 101.233C33.219 101.892 33.9799 102.642 35.1648 103.484Z" fill="#363636"/>
<path d="M59.2289 70.8832C59.6566 71.3567 59.8727 71.8646 59.8774 72.4069C59.8854 72.9462 59.6917 73.4864 59.2963 74.0278L59.333 74.0683C59.9954 73.6052 60.6079 73.396 61.1702 73.4407C61.7326 73.4855 62.2368 73.7548 62.6827 74.2486C63.3211 74.9555 63.5677 75.7214 63.4224 76.5465C63.2741 77.3682 62.7484 78.1869 61.8454 79.0024C61.453 79.3567 61.0653 79.6516 60.6823 79.887C60.3057 80.1227 59.8963 80.3051 59.4541 80.4343L58.7302 79.6327C59.1951 79.5015 59.6466 79.3147 60.0849 79.0725C60.5235 78.8238 60.9051 78.5528 61.2298 78.2596C62.5116 77.1019 62.699 76.0209 61.7918 75.0163C60.9793 74.1167 59.8662 74.3052 58.4525 75.582L57.7219 76.2417L57.0667 75.5163L57.8074 74.8473C58.3858 74.325 58.7295 73.7843 58.8387 73.2252C58.9447 72.6627 58.7931 72.1549 58.3838 71.7017C58.057 71.3398 57.6753 71.1687 57.2387 71.1884C56.8055 71.205 56.3758 71.4058 55.9496 71.7907C55.6249 72.0839 55.3585 72.4043 55.1505 72.7519C54.9424 73.0994 54.7609 73.558 54.6061 74.1277L53.6668 73.9444C53.7543 73.4294 53.9349 72.9255 54.2084 72.4328C54.4823 71.9338 54.839 71.4857 55.2787 71.0886C55.9991 70.438 56.7086 70.0982 57.407 70.0692C58.1024 70.0369 58.7097 70.3082 59.2289 70.8832Z" fill="#363636"/>
<path d="M72.1235 69.7916L66.9852 73.8847L66.3761 73.1201L66.7863 69.4111C66.9083 68.2768 66.9611 67.4948 66.9449 67.0648C66.9288 66.6349 66.8683 66.2519 66.7637 65.9157C66.6591 65.5796 66.4889 65.2636 66.2532 64.9677C65.921 64.5507 65.5318 64.3217 65.0856 64.281C64.6366 64.2366 64.1876 64.3933 63.7384 64.7511C63.414 65.0095 63.1483 65.3086 62.9412 65.6484C62.7377 65.9853 62.5698 66.4365 62.4377 67.0021L61.4859 66.7727C61.7289 65.6003 62.2745 64.6762 63.1229 64.0004C63.8572 63.4154 64.5834 63.1458 65.3014 63.1914C66.0166 63.2334 66.6269 63.5717 67.1324 64.2062C67.5271 64.7017 67.7785 65.3025 67.8866 66.0088C67.9948 66.7151 67.9627 67.7427 67.7905 69.0918L67.4127 72.1284L67.4468 72.1711L71.4676 68.9681L72.1235 69.7916Z" fill="#363636"/>
<path d="M76.3843 60.2049C77.3798 61.6163 77.8997 62.8279 77.944 63.8395C77.992 64.8485 77.5579 65.6761 76.6418 66.3222C75.7629 66.9421 74.8435 67.058 73.8837 66.6697C72.9214 66.2778 71.9542 65.3928 70.9824 64.0149C69.979 62.5922 69.4559 61.3801 69.4131 60.3786C69.3704 59.377 69.8034 58.5558 70.712 57.9149C71.5984 57.2898 72.5241 57.175 73.4891 57.5707C74.4579 57.9638 75.4229 58.8418 76.3843 60.2049ZM71.9208 63.3529C72.7588 64.541 73.5091 65.3083 74.1719 65.6551C74.8321 65.9981 75.4676 65.9542 76.0783 65.5234C76.6966 65.0874 76.9504 64.4984 76.8399 63.7566C76.7304 63.0084 76.262 62.0478 75.4346 60.8747C74.6072 59.7016 73.8621 58.9416 73.1993 58.5949C72.5376 58.2418 71.8976 58.2833 71.2794 58.7193C70.6686 59.1501 70.414 59.734 70.5156 60.471C70.6145 61.2043 71.0829 62.1649 71.9208 63.3529Z" fill="#363636"/>
<path d="M108.848 39.2254C109.079 39.8202 109.1 40.3717 108.911 40.8801C108.726 41.3869 108.353 41.8227 107.79 42.1876L107.81 42.2386C108.594 42.0418 109.241 42.0646 109.751 42.3068C110.26 42.549 110.635 42.9802 110.876 43.6005C111.221 44.4885 111.178 45.292 110.748 46.0112C110.317 46.7261 109.534 47.3037 108.4 47.744C107.907 47.9352 107.44 48.0726 106.998 48.1561C106.562 48.2422 106.114 48.2667 105.655 48.2299L105.264 47.223C105.746 47.266 106.234 47.2524 106.73 47.1822C107.228 47.1061 107.681 46.9889 108.089 46.8306C109.699 46.2056 110.26 45.2622 109.77 44.0004C109.331 42.8703 108.224 42.6499 106.448 43.3391L105.531 43.6953L105.177 42.784L106.107 42.4229C106.834 42.1409 107.348 41.7582 107.649 41.2746C107.948 40.7869 107.988 40.2583 107.767 39.689C107.59 39.2344 107.295 38.9386 106.88 38.8014C106.469 38.6626 105.996 38.6971 105.461 38.9049C105.053 39.0632 104.69 39.2676 104.371 39.5182C104.053 39.7689 103.72 40.1327 103.372 40.6099L102.56 40.1039C102.825 39.6538 103.174 39.2474 103.605 38.8845C104.038 38.5157 104.532 38.2242 105.084 38.0098C105.989 37.6586 106.773 37.5939 107.436 37.8157C108.097 38.0332 108.568 38.5031 108.848 39.2254Z" fill="#363636"/>
<path d="M120.404 40.6721L118.992 41.1247L119.693 43.3121L118.657 43.6437L117.957 41.4563L113.328 42.9392L113.026 41.9953L115.481 34.1095L116.627 33.7424L118.677 40.1417L120.09 39.6891L120.404 40.6721ZM117.642 40.4733L116.628 37.3095C116.429 36.6888 116.226 35.981 116.02 35.1859L115.968 35.2026C115.893 35.6859 115.808 36.0935 115.713 36.4254L114.094 41.61L117.642 40.4733Z" fill="#363636"/>
<path d="M128.461 35.4214C128.887 37.0951 128.941 38.4124 128.621 39.3733C128.306 40.333 127.605 40.9512 126.519 41.228C125.477 41.4935 124.576 41.2737 123.818 40.5686C123.059 39.8591 122.471 38.6873 122.055 37.0533C121.625 35.3663 121.569 34.0473 121.886 33.0965C122.204 32.1456 122.901 31.5329 123.979 31.2583C125.03 30.9906 125.936 31.2137 126.696 31.9276C127.461 32.6404 128.049 33.805 128.461 35.4214ZM123.168 36.7698C123.527 38.1785 123.954 39.1631 124.45 39.7235C124.944 40.2795 125.553 40.4652 126.277 40.2807C127.011 40.094 127.458 39.6343 127.619 38.9019C127.784 38.1639 127.689 37.0994 127.335 35.7083C126.98 34.3171 126.555 33.3414 126.06 32.781C125.568 32.2151 124.955 32.0255 124.222 32.2123C123.498 32.3968 123.051 32.8514 122.883 33.5761C122.714 34.2964 122.809 35.361 123.168 36.7698Z" fill="#363636"/>
<path d="M220.473 43.3894L214.288 41.1742L214.618 40.2539L217.987 38.6508C219.016 38.1576 219.709 37.791 220.066 37.551C220.423 37.311 220.717 37.058 220.948 36.7921C221.178 36.5263 221.358 36.2153 221.485 35.8592C221.665 35.3572 221.655 34.9058 221.455 34.5049C221.256 34.0998 220.886 33.8004 220.346 33.6068C219.955 33.4669 219.561 33.3984 219.163 33.4011C218.77 33.4053 218.298 33.5001 217.747 33.6853L217.441 32.7553C218.566 32.3449 219.639 32.3226 220.66 32.6883C221.544 33.0049 222.156 33.4805 222.495 34.115C222.835 34.7453 222.869 35.4423 222.595 36.206C222.382 36.8024 222.003 37.3324 221.459 37.796C220.916 38.2596 220.025 38.7732 218.787 39.3367L216.006 40.6134L215.988 40.6649L220.828 42.3983L220.473 43.3894Z" fill="#363636"/>
<path d="M231.117 42.0638C230.438 43.6521 229.68 44.7306 228.842 45.2993C228.008 45.8698 227.076 45.9348 226.045 45.4942C225.056 45.0716 224.475 44.3499 224.302 43.3292C224.13 42.3043 224.376 41.0166 225.038 39.4661C225.722 37.8652 226.479 36.7838 227.309 36.2216C228.139 35.6595 229.066 35.5969 230.088 36.0339C231.086 36.4601 231.669 37.1878 231.839 38.2169C232.013 39.2478 231.772 40.5301 231.117 42.0638ZM226.094 39.9174C225.523 41.2542 225.264 42.2957 225.316 43.0418C225.371 43.7838 225.742 44.3016 226.429 44.5953C227.125 44.8926 227.759 44.7996 228.333 44.3161C228.912 43.8302 229.484 42.9272 230.048 41.6072C230.612 40.2871 230.868 39.254 230.815 38.5078C230.768 37.7593 230.397 37.2364 229.701 36.9391C229.014 36.6454 228.383 36.7352 227.809 37.2085C227.237 37.6776 226.666 38.5806 226.094 39.9174Z" fill="#363636"/>
<path d="M270.4 68.8971L269.268 67.9394L267.785 69.6935L266.955 68.9918L268.438 67.2377L264.726 64.0999L265.366 63.343L273.353 61.2426L274.272 62.0194L269.934 67.1511L271.067 68.1088L270.4 68.8971ZM269.104 66.4494L271.249 63.9123C271.669 63.4146 272.162 62.8672 272.726 62.2702L272.685 62.2349C272.235 62.4277 271.845 62.572 271.513 62.6677L266.259 64.0442L269.104 66.4494Z" fill="#363636"/>
<path d="M278.794 72.6456C277.604 73.8976 276.517 74.6441 275.534 74.8851C274.554 75.1292 273.657 74.8651 272.845 74.0928C272.065 73.3519 271.772 72.4729 271.965 71.4558C272.162 70.4354 272.841 69.314 274.002 68.0918C275.202 66.8299 276.288 66.0801 277.262 65.8426C278.236 65.6051 279.126 65.8693 279.932 66.6354C280.718 67.3826 281.011 68.268 280.812 69.2918C280.616 70.3186 279.943 71.4366 278.794 72.6456ZM274.835 68.8829C273.833 69.9367 273.227 70.8225 273.017 71.5402C272.809 72.2547 272.976 72.8694 273.518 73.3842C274.066 73.9054 274.693 74.0393 275.399 73.786C276.112 73.5326 276.962 72.8856 277.951 71.845C278.94 70.8045 279.54 69.9253 279.751 69.2075C279.968 68.4896 279.802 67.8701 279.254 67.3489C278.712 66.834 278.09 66.6984 277.387 66.9419C276.687 67.1821 275.836 67.8291 274.835 68.8829Z" fill="#363636"/>
<path d="M304.967 104.996C306.68 104.035 308.146 103.648 309.365 103.837C310.59 104.027 311.569 104.774 312.3 106.077C312.552 106.527 312.713 106.901 312.783 107.202L311.93 107.681C311.858 107.319 311.711 106.941 311.49 106.548C310.966 105.614 310.274 105.064 309.413 104.9C308.556 104.732 307.49 104.975 306.216 105.628L306.256 105.7C307.185 105.753 307.915 106.253 308.446 107.199C308.885 107.981 308.994 108.73 308.774 109.445C308.555 110.163 308.04 110.75 307.23 111.205C306.323 111.714 305.471 111.866 304.671 111.661C303.878 111.458 303.245 110.936 302.772 110.093C302.266 109.191 302.202 108.286 302.581 107.378C302.964 106.468 303.759 105.674 304.967 104.996ZM303.606 109.609C303.923 110.174 304.345 110.512 304.873 110.623C305.406 110.736 306.009 110.604 306.681 110.227C307.257 109.904 307.629 109.505 307.796 109.029C307.963 108.554 307.884 108.028 307.561 107.452C307.36 107.094 307.103 106.808 306.788 106.592C306.474 106.377 306.138 106.252 305.779 106.218C305.422 106.188 305.105 106.251 304.827 106.408C304.418 106.637 304.081 106.931 303.816 107.289C303.552 107.646 303.398 108.028 303.354 108.434C303.312 108.844 303.396 109.236 303.606 109.609Z" fill="#363636"/>
<path d="M313.247 118.599C311.693 119.354 310.414 119.672 309.408 119.552C308.405 119.437 307.658 118.875 307.168 117.867C306.698 116.899 306.732 115.973 307.27 115.089C307.812 114.202 308.841 113.391 310.358 112.654C311.924 111.893 313.204 111.572 314.2 111.692C315.195 111.811 315.936 112.371 316.422 113.371C316.896 114.346 316.86 115.278 316.313 116.167C315.769 117.06 314.747 117.871 313.247 118.599ZM310.86 113.687C309.552 114.322 308.674 114.939 308.225 115.537C307.78 116.133 307.721 116.767 308.047 117.44C308.378 118.12 308.918 118.466 309.668 118.476C310.424 118.489 311.448 118.181 312.739 117.554C314.03 116.927 314.9 116.314 315.349 115.716C315.805 115.12 315.867 114.481 315.536 113.801C315.21 113.129 314.674 112.783 313.931 112.765C313.191 112.744 312.167 113.051 310.86 113.687Z" fill="#363636"/>
<path d="M331.528 155.132C331.692 156.029 331.613 156.778 331.292 157.378C330.971 157.979 330.443 158.347 329.708 158.481C329.224 158.57 328.755 158.5 328.301 158.273C327.847 158.045 327.396 157.632 326.948 157.033C326.713 157.901 326.416 158.541 326.056 158.954C325.7 159.367 325.247 159.623 324.696 159.724C323.88 159.873 323.175 159.708 322.583 159.228C321.994 158.747 321.61 158.011 321.428 157.021C321.237 155.972 321.318 155.123 321.672 154.474C322.03 153.825 322.631 153.423 323.474 153.269C324.599 153.064 325.601 153.589 326.479 154.846C326.716 154.164 327.011 153.651 327.365 153.308C327.724 152.965 328.155 152.747 328.657 152.655C329.37 152.525 329.985 152.684 330.502 153.131C331.025 153.582 331.367 154.249 331.528 155.132ZM323.648 154.377C323.11 154.475 322.725 154.738 322.493 155.165C322.261 155.597 322.208 156.151 322.331 156.828C322.453 157.496 322.705 157.987 323.087 158.302C323.469 158.616 323.934 158.724 324.48 158.624C324.915 158.544 325.269 158.299 325.541 157.888C325.818 157.476 326.036 156.806 326.195 155.878C325.786 155.263 325.379 154.837 324.975 154.6C324.575 154.363 324.133 154.289 323.648 154.377ZM330.618 155.285C330.515 154.725 330.3 154.31 329.973 154.041C329.646 153.772 329.258 153.678 328.81 153.76C328.398 153.835 328.068 154.032 327.82 154.351C327.573 154.67 327.366 155.212 327.201 155.979C327.587 156.571 327.959 156.971 328.316 157.179C328.675 157.391 329.06 157.46 329.473 157.384C329.926 157.302 330.254 157.073 330.459 156.697C330.669 156.325 330.722 155.854 330.618 155.285Z" fill="#363636"/>
<path d="M328.66 169.042C326.945 169.248 325.632 169.13 324.72 168.689C323.81 168.252 323.287 167.477 323.154 166.364C323.026 165.296 323.36 164.432 324.158 163.772C324.96 163.111 326.198 162.68 327.872 162.479C329.6 162.272 330.915 162.387 331.817 162.825C332.719 163.263 333.236 164.034 333.368 165.138C333.498 166.215 333.159 167.084 332.353 167.745C331.547 168.411 330.316 168.843 328.66 169.042ZM328.009 163.619C326.565 163.793 325.534 164.089 324.914 164.507C324.298 164.925 324.035 165.505 324.124 166.248C324.214 166.999 324.612 167.502 325.318 167.757C326.028 168.016 327.096 168.06 328.521 167.888C329.946 167.717 330.969 167.422 331.589 167.004C332.214 166.589 332.481 166.006 332.391 165.255C332.302 164.513 331.909 164.012 331.212 163.751C330.52 163.49 329.452 163.446 328.009 163.619Z" fill="#363636"/>
<path d="M173.352 10.2734C173.352 12.2474 173.039 13.7214 172.414 14.6953C171.794 15.6693 170.844 16.1562 169.562 16.1562C168.333 16.1562 167.398 15.6589 166.758 14.6641C166.117 13.6641 165.797 12.2005 165.797 10.2734C165.797 8.28385 166.107 6.80729 166.727 5.84375C167.346 4.88021 168.292 4.39844 169.562 4.39844C170.802 4.39844 171.742 4.90104 172.383 5.90625C173.029 6.91146 173.352 8.36719 173.352 10.2734ZM167.109 10.2734C167.109 11.9349 167.305 13.1458 167.695 13.9062C168.086 14.6615 168.708 15.0391 169.562 15.0391C170.427 15.0391 171.052 14.6562 171.438 13.8906C171.828 13.1198 172.023 11.9141 172.023 10.2734C172.023 8.63281 171.828 7.43229 171.438 6.67188C171.052 5.90625 170.427 5.52344 169.562 5.52344C168.708 5.52344 168.086 5.90104 167.695 6.65625C167.305 7.40625 167.109 8.61198 167.109 10.2734Z" fill="#363636"/>
</svg>