<svg width="127" fill="none" xmlns="http://www.w3.org/2000/svg" height="150" viewBox="0 0 127 150">







<g opacity="0.7">
<path opacity="0.7" d="M115.3 86.6C115.3 93.5 114 100.4 111.5 106.8C109 113.2 105.2 119.2 100.4 124.2C95.6 129.2 89.9 133.3 83.5 136.1C77.1 138.9 70.2 140.3 63.2999 140.3C56.3999 140.3 49.5 138.8 43.0999 136.1C36.6999 133.4 31 129.3 26.2 124.3C21.4 119.3 17.6 113.4 15.1 107C12.5 100.6 11.2 93.7 11.2 86.8C11.2 79.9 12.5 73 15 66.5C17.5 60.1 21.3 54.1 26.1 49.1C30.9 44.1 36.7 40 43 37.3C49.4 34.5 56.2999 33.1 63.2 33.1C70.1 33.1 77.1 34.5 83.4 37.3C89.8 40.1 95.5 44.2 100.3 49.2C105.1 54.2 108.8 60.2 111.4 66.6C114 72.8 115.3 79.7 115.3 86.6ZM115.2 86.6C115.2 79.7 113.8 72.8 111.3 66.4C108.7 60 104.9 54.1 100.2 49.2C95.3999 44.3 89.7 40.2 83.4 37.5C77.1 34.8 70.2 33.4 63.4 33.4C56.5 33.4 49.7 34.8 43.4 37.5C37.1 40.2 31.4 44.2 26.6 49.2C21.9 54.2 18.1 60 15.5 66.4C12.9 72.8 11.6 79.6 11.6 86.5C11.6 100.3 16.9 114 26.5 123.9C31.3 128.9 37 132.9 43.2999 135.6C49.5999 138.3 56.5 139.7 63.4 139.7C70.3 139.7 77.1 138.2 83.4 135.5C89.7 132.8 95.5 128.8 100.2 123.8C105 118.8 108.8 113 111.3 106.6C113.9 100.4 115.2 93.5 115.2 86.6Z" fill="#FFE07D"/>
</g><path fill="#91794C" d="M92.7001 75L92.3001 74.8C91.0001 74.2 89.5001 74.6 88.5001 75.7C88.7001 74.2 88.9001 72.6 88.9001 71.1C88.9001 70.2 88.8001 69.2 88.8001 68.3H89.2001C91.2001 68.3 92.8001 66.5 92.8001 64.3V62.1C92.8001 61.6 92.5001 61.3 92.0001 61.3H91.6001C89.9001 61.3 88.5001 62.6 88.1001 64.3C87.5001 61.7 86.6001 59.1 85.3001 56.8H85.6001C87.6001 56.8 89.2001 55 89.2001 52.8V50.6C89.2001 50.1 88.9001 49.8 88.4001 49.8H88.0001C86.0001 49.8 84.4001 51.6 84.4001 53.8V55.2V55.1C83.0001 52.8 81.2001 50.8 79.3001 49.1C81.3001 49.1 82.9001 47.3 82.9001 45.1V42.9C82.9001 42.4 82.6001 42.1 82.1001 42.1H81.7001C79.7001 42.1 78.1001 43.9 78.1001 46.1V48.1C76.5001 46.9 74.7001 45.8 72.9001 45C72.4001 44.8 71.9001 45.1 71.8001 45.6C71.6001 46.1 71.9001 46.7 72.3001 46.9C74.8001 47.9 77.0001 49.5 79.0001 51.3C77.3001 50.5 75.3001 51.3 74.4001 53.1L74.2001 53.5C74.0001 53.9 74.1001 54.4 74.5001 54.6L76.2001 55.6C78.0001 56.6 80.2001 55.9 81.1001 53.9L81.2001 53.6C81.8001 54.4 82.4001 55.2 83.0001 56.1C85.2001 59.6 86.5001 63.6 87.0001 67.8C86.3001 65.9 84.3001 64.8 82.5001 65.5L82.1001 65.7C81.7001 65.8 81.5001 66.3 81.6001 66.8L82.2001 68.9C82.8001 71 84.9001 72.2 86.8001 71.5L87.2001 71.4C87.2001 74.8 86.5001 78.1 85.4001 81.1C85.6001 78.9 84.2001 76.9 82.3001 76.6L81.9001 76.5C81.5001 76.4 81.1001 76.8 81.1001 77.2L80.9001 79.4C80.7001 81.6 82.1001 83.6 84.0001 83.9H84.3001C82.1001 88.3 78.7001 91.8 74.7001 94.2C75.5001 93 75.6001 91.3 74.9001 89.8L74.7001 89.4C74.5001 89 74.0001 88.9 73.7001 89.1L72.0001 90.2C70.3001 91.3 69.7001 93.8 70.7001 95.7L70.8001 96C68.7001 96.7 66.4001 97.1 64.1001 97.1C61.8001 97.1 59.5001 96.7 57.4001 96L57.5001 95.7C58.5001 93.8 57.9001 91.3 56.2001 90.2L54.5001 89.1C54.1001 88.9 53.7001 89 53.5001 89.4L53.3001 89.8C52.6001 91.2 52.7001 92.9 53.5001 94.2C49.5001 91.9 46.2001 88.3 43.9001 83.9H44.2001C46.2001 83.6 47.6001 81.6 47.3001 79.4L47.1001 77.2C47.0001 76.7 46.7001 76.4 46.3001 76.5L45.9001 76.6C43.9001 76.9 42.5001 78.9 42.8001 81.1C41.7001 78.1 41.1001 74.8 41.0001 71.4L41.4001 71.5C43.3001 72.2 45.3001 71.1 46.0001 68.9L46.6001 66.8C46.7001 66.4 46.5001 65.9 46.1001 65.7L45.7001 65.5C43.9001 64.8 42.0001 65.9 41.2001 67.8C41.7001 63.6 43.0001 59.6 45.2001 56.1C45.7001 55.2 46.3001 54.4 47.0001 53.6L47.1001 53.9C48.0001 55.9 50.2001 56.6 52.0001 55.6L53.7001 54.6C54.1001 54.4 54.2001 53.9 54.0001 53.5L53.8001 53.1C52.9001 51.2 50.9001 50.5 49.2001 51.3C51.2001 49.4 53.4001 47.9 55.9001 46.9C56.4001 46.7 56.6001 46.1 56.4001 45.6C56.2001 45.1 55.7001 44.8 55.3001 45C53.4001 45.8 51.7001 46.8 50.1001 48.1V46.1C50.1001 43.9 48.5001 42.1 46.5001 42.1H46.1001C45.7001 42.1 45.3001 42.5 45.3001 42.9V45.1C45.3001 47.3 46.9001 49.1 48.9001 49.1C47.0001 50.8 45.2001 52.8 43.8001 55.1V55.2V53.8C43.8001 51.6 42.2001 49.8 40.2001 49.8H39.8001C39.4001 49.8 39.0001 50.2 39.0001 50.6V52.8C39.0001 55 40.6001 56.8 42.6001 56.8H42.9001C41.6001 59.2 40.7001 61.7 40.1001 64.3C39.7001 62.6 38.3001 61.3 36.6001 61.3H36.2001C35.8001 61.3 35.4001 61.7 35.4001 62.1V64.3C35.4001 66.5 37.0001 68.3 39.0001 68.3C38.9001 69.2 38.9001 70.1 38.9001 71.1C38.9001 72.7 39.0001 74.2 39.3001 75.7C38.3001 74.7 36.9001 74.3 35.5001 74.8L35.0001 75C34.6001 75.2 34.4001 75.7 34.6001 76.1L35.3001 78.1C36.0001 80.2 38.1001 81.2 40.0001 80.5L40.4001 80.4C41.0001 82.3 41.8001 84.1 42.7001 85.8C41.4001 85.2 39.8001 85.5 38.7001 86.7L38.4001 87C38.1001 87.3 38.1001 87.9 38.4001 88.2L39.8001 89.7C41.2001 91.3 43.5001 91.3 44.9001 89.7L45.1001 89.4C46.2001 90.8 47.4001 92.1 48.8001 93.3C47.7001 93.4 46.6001 94.1 46.0001 95.4L45.8001 95.8C45.6001 96.2 45.7001 96.7 46.1001 96.9L47.8001 98C49.5001 99.1 51.7001 98.4 52.7001 96.4L52.9001 96.1C56.2001 98 60.0001 99 64.0001 99C68.0001 99 71.7001 98 75.1001 96.1L75.3001 96.4C76.3001 98.3 78.5001 99 80.2001 98L81.9001 96.9C82.3001 96.7 82.4001 96.2 82.2001 95.8L82.0001 95.4C81.4001 94.2 80.3001 93.5 79.2001 93.3C80.5001 92.2 81.8001 90.9 82.9001 89.4L83.1001 89.7C84.5001 91.3 86.8001 91.3 88.2001 89.7L89.6001 88.2C89.9001 87.9 89.9001 87.3 89.6001 87L89.3001 86.7C88.2001 85.5 86.6001 85.2 85.3001 85.8C86.2001 84.1 87.0001 82.3 87.6001 80.4L88.0001 80.5C89.9001 81.3 92.0001 80.2 92.7001 78.1L93.4001 76.1C93.2001 75.7 93.1001 75.2 92.7001 75Z"/><path d="M48.7 49.1H47.5C45.5 49.1 43.9 47.3 43.9 45.1V42.9C43.9 42.4 44.2 42.1 44.7 42.1H45.1C47.1 42.1 48.7 43.9 48.7 46.1V49.1Z" fill="#FFE07D"/>
<path d="M45.2001 52.8L45.8001 54C46.7001 56 48.9001 56.7 50.7001 55.7L52.4001 54.7C52.8001 54.5 52.9001 54 52.7001 53.6L52.5001 53.2C51.6001 51.2 49.4001 50.5 47.6001 51.5L45.2001 52.8Z" fill="#FFE07D"/>
<path d="M42.3 56.8H41.1C39.1 56.8 37.5 55 37.5 52.8V50.6C37.5 50.1 37.8 49.8 38.3 49.8H38.7C40.7 49.8 42.3 51.6 42.3 53.8V56.8Z" fill="#FFE07D"/>
<path d="M38.8 68.3H37.6C35.6 68.3 34 66.5 34 64.3V62.1C34 61.6 34.3 61.3 34.8 61.3H35.2C37.2 61.3 38.8 63.1 38.8 65.3V68.3Z" fill="#FFE07D"/>
<path d="M38.9 71L40 71.4C41.9 72.1 43.9 71 44.6 68.8L45.2 66.7C45.3 66.3 45.1 65.8 44.7 65.6L44.3 65.4C42.4 64.7 40.4 65.8 39.7 68L38.9 71Z" fill="#FFE07D"/>
<path d="M41.7001 84L42.9001 83.8C44.9001 83.5 46.3001 81.5 46.0001 79.3L45.8001 77.1C45.7001 76.6 45.4001 76.3 45.0001 76.4L44.6001 76.5C42.6001 76.8 41.2001 78.8 41.5001 81L41.7001 84Z" fill="#FFE07D"/>
<path d="M40.1 80L39 80.5C37.1 81.3 35 80.2 34.3 78.1L33.6 76.1C33.5 75.7 33.6 75.2 34 75L34.4 74.8C36.3 74 38.4 75.1 39.1 77.2L40.1 80Z" fill="#FFE07D"/>
<path d="M44.7 88.8L43.9 89.7C42.5 91.3 40.2 91.3 38.8 89.7L37.4 88.2C37.1 87.9 37.1 87.3 37.4 87L37.7 86.7C39.1 85.1 41.4 85.1 42.8 86.7L44.7 88.8Z" fill="#FFE07D"/>
<path d="M52.2001 95.3L51.6001 96.5C50.6001 98.4 48.4001 99.1 46.7001 98.1L45.0001 97C44.6001 96.8 44.5001 96.3 44.7001 95.9L44.9001 95.5C45.9001 93.6 48.1001 92.9 49.8001 93.9L52.2001 95.3Z" fill="#FFE07D"/>
<path d="M55.7 96.8L56.3 95.6C57.3 93.7 56.7 91.2 55 90.1L53.3 89C52.9 88.8 52.5 88.9 52.3 89.3L52.1 89.7C51.1 91.6 51.7 94.1 53.4 95.2L55.7 96.8Z" fill="#FFE07D"/>
<path d="M77 49.1H78.2C80.2 49.1 81.8 47.3 81.8 45.1V42.9C81.8 42.4 81.5 42.1 81 42.1H80.6C78.6 42.1 77 43.9 77 46.1V49.1Z" fill="#FFE07D"/>
<path d="M80.5 52.8L80 54C79.1 56 76.9 56.7 75.1 55.7L73.4 54.7C73 54.5 72.9 54 73.1 53.6L73.3 53.2C74.2 51.2 76.4 50.5 78.2 51.5L80.5 52.8Z" fill="#FFE07D"/>
<path d="M83.3 56.8H84.5C86.5 56.8 88.1 55 88.1 52.8V50.6C88.1 50.1 87.8 49.8 87.3 49.8H87C85 49.8 83.4 51.6 83.4 53.8V56.8H83.3Z" fill="#FFE07D"/>
<path d="M86.9 68.3H88.1C90.1 68.3 91.7 66.5 91.7 64.3V62.1C91.7 61.6 91.4 61.3 90.9 61.3H90.5C88.5 61.3 86.9 63.1 86.9 65.3V68.3Z" fill="#FFE07D"/>
<path d="M86.8001 71L85.7001 71.4C83.8001 72.1 81.8001 71 81.1001 68.8L80.5001 66.7C80.4001 66.3 80.6001 65.8 81.0001 65.6L81.4001 65.4C83.3001 64.7 85.3001 65.8 86.0001 68L86.8001 71Z" fill="#FFE07D"/>
<path d="M84 84L82.8 83.8C80.8 83.5 79.4 81.5 79.7 79.3L79.9 77.1C80 76.6 80.3 76.3 80.7 76.4L81.1 76.5C83.1 76.8 84.5 78.8 84.2 81L84 84Z" fill="#FFE07D"/>
<path d="M85.6 80L86.7 80.5C88.6 81.3 90.7 80.2 91.4 78.1L92.1 76.1C92.2 75.7 92.1 75.2 91.7 75L91.3 74.8C89.4 74 87.3 75.1 86.6 77.2L85.6 80Z" fill="#FFE07D"/>
<path d="M81 88.8L81.8 89.7C83.2 91.3 85.5 91.3 86.9 89.7L88.3 88.2C88.6 87.9 88.6 87.3 88.3 87L88 86.7C86.6 85.1 84.3 85.1 82.9 86.7L81 88.8Z" fill="#FFE07D"/>
<path d="M73.5 95.3L74.1 96.5C75.1 98.4 77.3 99.1 79 98.1L80.7 97C81.1 96.8 81.2 96.3 81 95.9L80.8 95.5C79.8 93.6 77.6 92.9 75.9 93.9L73.5 95.3Z" fill="#FFE07D"/>
<path d="M70 96.8L69.4 95.6C68.4 93.7 69 91.2 70.7 90.1L72.4 89C72.8 88.8 73.2 88.9 73.4 89.3L73.6 89.7C74.6 91.6 74 94.1 72.3 95.2L70 96.8Z" fill="#FFE07D"/>
<path d="M62.8 99C49 99 37.8 86.5 37.8 71.1C37.8 65.3 39.4 59.8 42.3 55.1C45.2 50.5 49.2001 47 53.9001 45C54.4001 44.8 54.9 45.1 55 45.6C55.2001 46.1 54.9 46.7 54.5 46.9C50.1 48.8 46.4001 52 43.7001 56.3C41.0001 60.7 39.5 65.8 39.5 71.2C39.5 85.5 49.9001 97.1 62.7001 97.1C75.5 97.1 85.9001 85.5 85.9001 71.2C85.9001 65.8 84.4 60.7 81.7 56.3C79 52 75.3001 48.8 70.9001 46.9C70.4001 46.7 70.2001 46.1 70.4001 45.6C70.6001 45.1 71.1 44.8 71.5 45C76.2001 47 80.2 50.5 83.1 55.1C86.1 59.8 87.6 65.3 87.6 71.1C87.8 86.5 76.6 99 62.8 99Z" fill="#FFD064"/>
<path d="M62.7999 52.9C61.4999 56.4 60.1 59.5 53.7 59.5V65.3H60.0999V105.3H68.3V52.9H62.7999Z" fill="#91794C"/>
<path d="M62.7999 52.9C61.4999 56.4 60.1 59.5 53.7 59.5V65.3H60.0999V105.3H67.1999V52.9H62.7999Z" fill="#FFE07D"/>
<path d="M60.2 65.3H59.1V105.3H60.2V65.3Z" fill="#FFD064"/>
<path d="M62.8 52.9C61.5 56.4 60.1 59.5 53.7 59.5V65.3H52.6V59.5C59 59.5 60.4 56.4 61.7 52.9H62.8Z" fill="#FFD064"/>
<defs>
<linearGradient id="paint0_linear" x1="54.1026" y1="38.6356" x2="94.2759" y2="246.758" gradientUnits="userSpaceOnUse">
<stop stop-color="#E8C876"/>
<stop offset="0.0644261" stop-color="#E6C470"/>
<stop offset="0.148" stop-color="#DFBA60"/>
<stop offset="0.2146" stop-color="#D7AF4E"/>
<stop offset="1" stop-color="#B5984F"/>
</linearGradient>
<linearGradient id="paint1_linear" x1="61.2089" y1="58.0618" x2="73.07" y2="215.837" gradientUnits="userSpaceOnUse">
<stop stop-color="#EABE55"/>
<stop offset="0.981" stop-color="#937333"/>
</linearGradient>
</defs>
</svg>