<svg width="124" height="147" viewBox="0 0 124 147" fill="none" xmlns="http://www.w3.org/2000/svg">
<path d="M34.5 0V131.6L33.6 131L0 112.3V0H34.5Z" fill="#61696E"/>
<path d="M123.8 0V112.3L90.2 131L89.3 131.6V0H123.8Z" fill="#61696E"/>
<path d="M89.3001 0V131.6L61.9001 146.8L34.6001 131.6V0H89.3001Z" fill="#61696E"/>
<path opacity="0.5" d="M89.3 0V131.6H89.2L61.9 146.8L34.6 131.6H34.5V0H89.3Z" fill="#E4E9EF"/>
<path d="M43.3999 47.6C48.5999 47.6 50.6999 50.1 50.6999 55.1V56.7C50.6999 60.3 49.6999 62.5 46.7999 63.4C50.0999 64.3 51.2999 66.9 51.2999 70.6V73.4C51.2999 78.5 48.7999 81.3 43.5999 81.3H35.8999V47.6H43.3999ZM42.4999 61.9C45.4999 61.9 46.9999 60.9 46.9999 57.4V55.4C46.9999 52.4 45.9999 51 43.2999 51H39.5999V61.9H42.4999ZM43.5999 77.9C46.2999 77.9 47.5999 76.5 47.5999 73.3V70.3C47.5999 66.5 46.0999 65.3 42.8999 65.3H39.5999V77.9H43.5999Z" fill="#979CA0"/>
<path d="M58.5 74.5L57.2 81.3H53.7L60.0999 47.6H65.5L71.9 81.3H68.0999L66.8 74.5H58.5ZM59 71.3H66.5L62.7 51.9L59 71.3Z" fill="#979CA0"/>
<path d="M82.9 47.6C88.1 47.6 90.6 50.8 90.6 56V73C90.6 78.1 88.2 81.3 82.9 81.3H75V47.6H82.9ZM82.9 77.9C85.6 77.9 86.9 76.2 86.9 73.1V55.8C86.9 52.7 85.6 51 82.9 51H78.9V77.9H82.9Z" fill="#979CA0"/>
<path d="M42.1001 47.6C47.3001 47.6 49.4001 50.1 49.4001 55.1V56.7C49.4001 60.3 48.4001 62.5 45.5001 63.4C48.8001 64.3 50.0001 66.9 50.0001 70.6V73.4C50.0001 78.5 47.5001 81.3 42.3001 81.3H34.6001V47.6H42.1001ZM41.2001 61.9C44.2001 61.9 45.7001 60.9 45.7001 57.4V55.4C45.7001 52.4 44.7001 51 42.0001 51H38.3001V61.9H41.2001ZM42.3001 77.9C45.0001 77.9 46.3001 76.5 46.3001 73.3V70.3C46.3001 66.5 44.8001 65.3 41.6001 65.3H38.3001V77.9H42.3001Z" fill="#EFF2F4"/>
<path d="M57.2001 74.5L55.9001 81.3H52.4001L58.8001 47.6H64.2001L70.6001 81.3H67.0001L65.7001 74.5H57.2001ZM57.7001 71.3H65.2001L61.4001 51.9L57.7001 71.3Z" fill="#EFF2F4"/>
<path d="M81.6002 47.6C86.8002 47.6 89.3002 50.8 89.3002 56V73C89.3002 78.1 86.9002 81.3 81.6002 81.3H73.7002V47.6H81.6002ZM81.6002 77.9C84.3002 77.9 85.6002 76.2 85.6002 73.1V55.8C85.6002 52.7 84.3002 51 81.6002 51H77.6002V77.9H81.6002Z" fill="#EFF2F4"/>
</svg>
