<svg width="20" height="31" viewBox="0 0 20 31" fill="none" xmlns="http://www.w3.org/2000/svg">
<path d="M17.6 2.2V1C17.6 0.4 17.1 0 16.4 0H3.39995C2.69995 0 2.19995 0.5 2.19995 1V2.2H17.6Z" fill="white"/>
<path d="M6.8999 27.5C6.8999 27 7.2999 26.6 7.7999 26.6H11.7999C12.2999 26.6 12.6999 27 12.6999 27.5V29.9C12.6999 30.4 12.2999 30.8 11.7999 30.8H7.7999C7.2999 30.8 6.8999 30.4 6.8999 29.9V27.5Z" fill="white"/>
<path d="M18.6 4.40002H1.2C0.6 4.40002 0 4.80002 0 5.30002V29.9C0 30.4 0.4 30.8 0.9 30.8H3.6C4.1 30.8 4.5 30.4 4.5 29.9V25.8C4.5 25.3 5.1 24.9 5.7 24.9H13.9C14.6 24.9 15.1 25.3 15.1 25.8V29.9C15.1 30.4 15.5 30.8 16 30.8H18.9C19.4 30.8 19.8 30.4 19.8 29.9V5.30002C19.8 4.80002 19.2 4.40002 18.6 4.40002ZM6.1 21.1C6.1 21.6 5.5 22 4.9 22C4.2 22 3.7 21.6 3.7 21.1V19.3C3.7 18.8 4.3 18.4 4.9 18.4C5.6 18.4 6.1 18.8 6.1 19.3V21.1ZM6.1 15.8C6.1 16.3 5.5 16.7 4.9 16.7C4.2 16.7 3.7 16.3 3.7 15.8V14C3.7 13.5 4.3 13.1 4.9 13.1C5.6 13.1 6.1 13.5 6.1 14V15.8ZM6.1 10.6C6.1 11.1 5.5 11.5 4.9 11.5C4.2 11.5 3.7 11.1 3.7 10.6V8.80002C3.7 8.30002 4.3 7.90002 4.9 7.90002C5.6 7.90002 6.1 8.30002 6.1 8.80002V10.6ZM11 21.1C11 21.6 10.4 22 9.8 22C9.1 22 8.6 21.6 8.6 21.1V19.3C8.6 18.8 9.2 18.4 9.8 18.4C10.5 18.4 11 18.8 11 19.3V21.1ZM11 15.8C11 16.3 10.4 16.7 9.8 16.7C9.1 16.7 8.6 16.3 8.6 15.8V14C8.6 13.5 9.2 13.1 9.8 13.1C10.5 13.1 11 13.5 11 14V15.8ZM11 10.6C11 11.1 10.4 11.5 9.8 11.5C9.1 11.5 8.6 11.1 8.6 10.6V8.80002C8.6 8.30002 9.2 7.90002 9.8 7.90002C10.5 7.90002 11 8.30002 11 8.80002V10.6ZM16 21.1C16 21.6 15.4 22 14.8 22C14.2 22 13.6 21.6 13.6 21.1V19.3C13.6 18.8 14.2 18.4 14.8 18.4C15.4 18.4 16 18.8 16 19.3V21.1ZM16 15.8C16 16.3 15.4 16.7 14.8 16.7C14.2 16.7 13.6 16.3 13.6 15.8V14C13.6 13.5 14.2 13.1 14.8 13.1C15.4 13.1 16 13.5 16 14V15.8ZM16 10.6C16 11.1 15.4 11.5 14.8 11.5C14.2 11.5 13.6 11.1 13.6 10.6V8.80002C13.6 8.30002 14.2 7.90002 14.8 7.90002C15.4 7.90002 16 8.30002 16 8.80002V10.6Z" fill="white"/>
</svg>
