<svg width="62" height="54" viewBox="0 0 62 54" fill="none" xmlns="http://www.w3.org/2000/svg">
<path d="M34.7 45.6V37.3H27.9V48L31.5 48.6L34.6 48V45.6H34.7Z" fill="#FFD064"/>
<path d="M35.6 38.5H27.1C26.9 38.5 26.7 38.4999 26.5 38.3999L18.4 36.3C13.8 35.1 9.70002 32.6 6.50002 29.1C3.40002 25.5 1.40002 21.1999 0.800023 16.3999C0.500023 13.6999 1.30002 10.8999 3.10002 8.89995C4.90002 6.79995 7.50002 5.69995 10.3 5.69995H52.3C55 5.69995 57.6 6.89995 59.5 8.89995C61.4 10.8999 62.2 13.6999 61.8 16.3999C61.2 21.0999 59.2 25.5 56.1 29.1C53 32.7 48.9 35.2 44.2 36.3L36.1 38.3999C36 38.4999 35.8 38.5 35.6 38.5ZM27.4 34H35.3L43.1 32C50.8 30.1 56.3 23.6999 57.3 15.8999C57.5 14.4999 57 12.9999 56.1 11.8999C55.1 10.7999 53.8 10.2 52.3 10.2H10.3C8.90002 10.2 7.50002 10.7999 6.50002 11.8999C5.50002 12.9999 5.10002 14.3999 5.30002 15.8999C6.30002 23.6999 11.9 30.1 19.5 32L27.4 34Z" fill="#FFD064"/>
<path d="M15.3 4.89996L15.6 24.7C15.6 33.7 22.4001 40.8 31.4001 40.8C34.0001 40.8 36.5001 40.7 38.8001 39.6C44.1001 36.9 47.8001 31.4 47.8001 25V4.89996H15.3Z" fill="#FFE07D"/>
<path d="M38.7 39.6C36.5 40.7 34 41.3 31.3 41.3C22.3 41.3 15 34 15 25V5.69997L16.9 4.59998L19.5 5.69997V23.5C19.5 32.5 26.8 39.8 35.8 39.8C36.8 39.9 37.7 39.8 38.7 39.6Z" fill="#FFD064"/>
<path d="M49.3 3.89996C49.3 4.89996 48.5 5.79997 47.4 5.79997H15.4C14.3 5.79997 13.5 4.89996 13.5 3.89996V3.59998C13.5 4.69998 14.4 5.49997 15.4 5.49997H47.4C48.3 5.49997 49.1 4.79996 49.3 3.89996Z" fill="#C6A054"/>
<path d="M49.2 3.89999C49.1 4.79999 48.3 5.5 47.4 5.5H15.4C14.3 5.5 13.5 4.60001 13.5 3.60001V1.8C13.5 1.4 13.8 1 14.3 1H15.4V2.39999C15.4 3.29999 16.1 4 17 4H49.2V3.89999Z" fill="#E0C761"/>
<path d="M49.3001 1.69997V3.89997H16.9001C16.0001 3.89997 15.3 3.19998 15.3 2.29998V0.999978H48.5C48.9001 0.899978 49.3001 1.29997 49.3001 1.69997Z" fill="#FFE07D"/>
<path d="M42 50.6V52.6C42 52.9 41.7 53.2 41.4 53.2H21.2C20.9 53.2 20.6 52.9 20.6 52.6V49.7C20.6 48.8 21.3 48.1 22.2 48.1H22.8V50.1C22.8 50.4 23.1 50.7 23.4 50.7H42V50.6Z" fill="#FFD064"/>
<path d="M24.5 50.6H23.5C23.2 50.6 22.9 50.3 22.9 50V49C22.9 49.8 23.6 50.6 24.5 50.6Z" fill="#FFD064"/>
<path d="M42 49.8V50.6H24.5C23.6 50.6 22.9 49.9 22.9 49V48H40.2C41.2 48 42 48.8 42 49.8Z" fill="#FFE07D"/>
</svg>
