<svg width="22" height="31" viewBox="0 0 22 31" fill="none" xmlns="http://www.w3.org/2000/svg">
<path d="M9 29.7001C9 30.3001 9.5 30.8 10.1 30.8H10.9C11.5 30.8 12 30.3001 12 29.7001V25.8H9V29.7001Z" fill="white"/>
<path d="M21.1 25.6C21.1 25.6 21.2 25.6 21.1 25.6C21.2 25.6 21.2 25.6 21.2 25.5V25.4L20.8 24.6L17.2 17.4C17.2 17.3 17.2 17.3 17.2 17.2L17.3 17.1C17.3 17.1 17.3 17.1 17.4 17.1C18 17.4 18.6 17.7 19.5 17.9C19.7 17.9 19.9 18 20 18C20.1 18 20.2 17.9 20.1 17.8L18 14.3L17.7 13.8L17.1 12.8L15.1 9.5C15.1 9.4 15.1 9.4 15.1 9.3L15.2 9.2C15.7 9.4 16.4 9.5 17.2 9.5C17.3 9.5 17.5 9.5 17.6 9.5H17.7C17.8 9.5 17.9 9.4 17.8 9.3L11.2 0.3C10.9 -0.1 10.3 -0.1 10 0.3L3.4 9.3C3.3 9.4 3.4 9.5 3.5 9.5H3.6C3.7 9.5 3.9 9.5 4 9.5C4.8 9.5 5.4 9.3 6 9.2C6 9.2 6.1 9.2 6.1 9.3C6.1 9.3 6.1 9.4 6.1 9.5L4.1 12.8L3.5 13.8L3.2 14.3L1 17.9C0.9 18 1 18.1 1.1 18.1C1.3 18.1 1.5 18 1.6 18C2.4 17.8 3.1 17.5 3.7 17.2C3.7 17.2 3.7 17.2 3.8 17.2C3.9 17.2 3.9 17.2 3.9 17.3C3.9 17.4 4 17.4 3.9 17.5L0.3 24.7L0 25.4V25.5C0 25.5 0 25.5 0 25.6H0.1C1.3 25.4 2.5 25.3 3.7 25.1C4.8 25 5.9 24.8 7 24.7C8.2 24.5 9.4 24.4 10.6 24.2C11.8 24.4 13 24.5 14.2 24.7C15.3 24.9 16.4 25 17.5 25.2C18.7 25.3 19.9 25.5 21.1 25.6Z" fill="white"/>
</svg>
