<svg width="124" height="147" viewBox="0 0 124 147" fill="none" xmlns="http://www.w3.org/2000/svg">
<path d="M34.5 0V131.6L33.6 131L0 112.3V0H34.5Z" fill="#61696E"/>
<path d="M123.8 0V112.3L90.2 131L89.3 131.6V0H123.8Z" fill="#61696E"/>
<path d="M89.3001 0V131.6L61.9001 146.8L34.6001 131.6V0H89.3001Z" fill="#61696E"/>
<path opacity="0.5" d="M89.3 0V131.6H89.2L61.9 146.8L34.6 131.6H34.5V0H89.3Z" fill="#E4E9EF"/>
<path d="M45.0401 55.74V58.54H41.5801V55.54C41.5801 52.6 40.4101 50.82 37.7501 50.82C35.0901 50.82 33.9201 52.6 33.9201 55.54V72.84C33.9201 75.78 35.1301 77.56 37.7501 77.56C40.3701 77.56 41.5801 75.78 41.5801 72.84V66.3H38.2201V63H45.0401V72.62C45.0401 77.57 42.7001 80.84 37.6501 80.84C32.6001 80.84 30.3201 77.57 30.3201 72.62V55.74C30.3201 50.74 32.6601 47.51 37.6501 47.51C42.6401 47.51 45.0401 50.78 45.0401 55.74Z" fill="#979CA0"/>
<path d="M48.21 55.74C48.21 50.74 50.69 47.51 55.69 47.51C60.69 47.51 63.21 50.74 63.21 55.74V72.65C63.21 77.6 60.73 80.87 55.69 80.87C50.65 80.87 48.21 77.6 48.21 72.65V55.74ZM51.81 72.84C51.81 75.84 53.07 77.56 55.69 77.56C58.31 77.56 59.57 75.83 59.57 72.84V55.55C59.57 52.61 58.35 50.83 55.69 50.83C53.03 50.83 51.81 52.61 51.81 55.55V72.84Z" fill="#979CA0"/>
<path d="M69.8901 80.55H66.6201V47.84H71.2401L78.8101 71.48V47.84H82.0401V80.55H78.2501L69.8901 54.1V80.55Z" fill="#979CA0"/>
<path d="M97.41 62.32V65.59H89.41V77.23H99.22V80.55H85.77V47.84H99.23V51.16H89.42V62.32H97.41Z" fill="#979CA0"/>
<path d="M43.71 55.74V58.54H40.26V55.54C40.26 52.6 39.09 50.82 36.43 50.82C33.77 50.82 32.6 52.6 32.6 55.54V72.84C32.6 75.78 33.81 77.56 36.43 77.56C39.05 77.56 40.26 75.78 40.26 72.84V66.3H36.89V63H43.71V72.62C43.71 77.57 41.38 80.84 36.33 80.84C31.28 80.84 29 77.6 29 72.65V55.74C29 50.74 31.33 47.51 36.33 47.51C41.33 47.51 43.71 50.78 43.71 55.74Z" fill="#EFF2F4"/>
<path d="M46.8899 55.74C46.8899 50.74 49.3699 47.51 54.3699 47.51C59.3699 47.51 61.8899 50.74 61.8899 55.74V72.65C61.8899 77.6 59.4099 80.87 54.3699 80.87C49.3299 80.87 46.8899 77.6 46.8899 72.65V55.74ZM50.4999 72.84C50.4999 75.84 51.7599 77.56 54.3799 77.56C56.9999 77.56 58.2499 75.83 58.2499 72.84V55.55C58.2499 52.61 57.0399 50.83 54.3799 50.83C51.7199 50.83 50.4999 52.61 50.4999 55.55V72.84Z" fill="#EFF2F4"/>
<path d="M68.57 80.55H65.3V47.84H69.92L77.5 71.48V47.84H80.7301V80.55H76.93L68.57 54.1V80.55Z" fill="#EFF2F4"/>
<path d="M96.09 62.32V65.59H88.09V77.23H97.9V80.55H84.5V47.84H97.91V51.16H88.1V62.32H96.09Z" fill="#EFF2F4"/>
</svg>
