<svg width="37" height="31" viewBox="0 0 37 31" fill="none" xmlns="http://www.w3.org/2000/svg">
<path d="M26.3 30.9H25.3C24.7 30.9 24.3 30.4 24.3 29.9V25.9H27.3V29.9C27.4 30.4 26.9 30.9 26.3 30.9Z" fill="white"/>
<path d="M36.5999 25.6C36.5999 25.6 36.5999 25.7 36.5999 25.6C36.4999 25.7 36.4999 25.7 36.5999 25.6C36.4999 25.7 36.4999 25.7 36.4999 25.7C35.2999 25.5 34.0999 25.4 32.8999 25.2C31.7999 25 30.6999 24.9 29.5999 24.7C28.3999 24.5 27.1999 24.4 25.9999 24.2C24.7999 24.4 23.5999 24.5 22.3999 24.7C21.2999 24.9 20.1999 25 19.0999 25.2C17.8999 25.4 16.6999 25.5 15.4999 25.7H15.3999C15.3999 25.7 15.3999 25.7 15.3999 25.6V25.5L15.7999 24.7L19.3999 17.5C19.3999 17.4 19.3999 17.4 19.3999 17.3L19.2999 17.2C19.2999 17.2 19.2999 17.2 19.1999 17.2C18.5999 17.5 17.9999 17.8 17.0999 18C16.8999 18 16.6999 18.1 16.5999 18.1C16.4999 18.1 16.3999 18 16.4999 17.9L18.6999 14.3L18.9999 13.8L19.5999 12.8L21.5999 9.5C21.5999 9.4 21.5999 9.4 21.5999 9.3L21.4999 9.2C20.9999 9.4 20.2999 9.5 19.4999 9.5C19.3999 9.5 19.1999 9.5 19.0999 9.5H18.9999C18.8999 9.5 18.7999 9.4 18.8999 9.3L25.4999 0.3C25.7999 -0.1 26.3999 -0.1 26.6999 0.3L33.2999 9.3C33.3999 9.4 33.2999 9.5 33.1999 9.5H33.0999C32.9999 9.5 32.7999 9.5 32.6999 9.5C31.8999 9.5 31.2999 9.3 30.6999 9.2C30.6999 9.2 30.5999 9.2 30.5999 9.3C30.5999 9.3 30.5999 9.4 30.5999 9.5L32.5999 12.8L33.1999 13.8L33.4999 14.3L35.6999 17.9C35.7999 18 35.6999 18.1 35.5999 18.1C35.3999 18.1 35.1999 18 35.0999 18C34.2999 17.8 33.5999 17.5 32.9999 17.2C32.9999 17.2 32.9999 17.2 32.8999 17.2C32.7999 17.2 32.7999 17.2 32.7999 17.3C32.7999 17.4 32.6999 17.4 32.7999 17.5L36.3999 24.7L36.7999 25.5C36.5999 25.5 36.5999 25.5 36.5999 25.6Z" fill="white"/>
<path d="M12.2999 22.9H1.8999C1.5999 22.9 1.3999 22.7 1.3999 22.4V21.9C1.3999 21.6 1.5999 21.4 1.8999 21.4H12.2999C12.5999 21.4 12.7999 21.6 12.7999 21.9V22.4C12.7999 22.7 12.5999 22.9 12.2999 22.9Z" fill="white"/>
<path d="M12.2999 25.3H1.8999C1.5999 25.3 1.3999 25.1 1.3999 24.8V24.3C1.3999 24 1.5999 23.8 1.8999 23.8H12.2999C12.5999 23.8 12.7999 24 12.7999 24.3V24.8C12.7999 25.1 12.5999 25.3 12.2999 25.3Z" fill="white"/>
<path d="M13.6 27.9H0.6C0.3 27.9 0 27.6 0 27.3V26.7C0 26.4 0.3 26.1 0.6 26.1H13.6C13.9 26.1 14.2 26.4 14.2 26.7V27.3C14.2 27.6 13.9 27.9 13.6 27.9Z" fill="white"/>
<path d="M3.69995 30.9H3.19995C2.89995 30.9 2.69995 30.7 2.69995 30.4V27.5C2.69995 27.2 2.89995 27 3.19995 27H3.69995C3.99995 27 4.19995 27.2 4.19995 27.5V30.4C4.19995 30.7 3.99995 30.9 3.69995 30.9Z" fill="white"/>
<path d="M11 30.9H10.5C10.2 30.9 10 30.7 10 30.4V27.5C10 27.2 10.2 27 10.5 27H11C11.3 27 11.5 27.2 11.5 27.5V30.4C11.5 30.7 11.3 30.9 11 30.9Z" fill="white"/>
<path d="M4.2999 22.4H3.3999V27.4H4.2999V22.4Z" fill="white"/>
<path d="M10.6998 22.4H9.7998V27.4H10.6998V22.4Z" fill="white"/>
</svg>
