<svg width="34" height="26" viewBox="0 0 34 26" fill="none" xmlns="http://www.w3.org/2000/svg">
<path d="M21.2 25.4H5.4C4 25.4 2.6 24.8 1.6 23.8C0.6 22.8 0 21.4 0 20C0 17.1 2.4 14.7 5.3 14.7H7.3C7.8 14.7 8.2 15.1 8.2 15.6C8.2 16.1 7.8 16.5 7.3 16.5H5.3C3.4 16.5 1.8 18.1 1.8 20C1.8 20.9 2.2 21.8 2.8 22.5C3.5 23.2 4.3 23.5 5.2 23.5H21C21.5 23.5 21.9 23.9 21.9 24.4C22.2 25 21.8 25.4 21.2 25.4Z" fill="white"/>
<path d="M26.2 8.69995C22.2 8.69995 18.9 11.8 18.7 15.7C18.7 15.8 18.7 16 18.7 16.1C18.7 18.7 20.8 21.5 24.9 24.5C25.2 24.7 25.4 24.9 25.7 25.1L26.2 25.4L27 24.9C31.5 21.8 33.6999 18.9 33.6999 16.2C33.6999 12 30.4 8.69995 26.2 8.69995ZM26.2 18.7C24.4 18.7 22.9 17.2 22.9 15.3C22.9 13.4 24.4 12 26.2 12C28 12 29.5 13.5 29.5 15.3C29.5 17.1 28.1 18.7 26.2 18.7Z" fill="white"/>
<path d="M12.8 0C8.80005 0 5.50005 3.1 5.30005 7C5.30005 7.1 5.30005 7.3 5.30005 7.4C5.30005 10 7.40005 12.8 11.5 15.8C11.8 16 12 16.2 12.3 16.4L12.8 16.7L13.6 16.2C18.1 13.1 20.3 10.2 20.3 7.5C20.4001 3.3 17 0 12.8 0ZM12.8 10.1C11 10.1 9.50005 8.6 9.50005 6.7C9.50005 4.8 11 3.4 12.8 3.4C14.6 3.4 16.1 4.9 16.1 6.7C16.1 8.5 14.7 10.1 12.8 10.1Z" fill="white"/>
</svg>
