<svg width="56" height="66" viewBox="0 0 56 66" fill="none" xmlns="http://www.w3.org/2000/svg">
<path d="M32.0884 5.85974H23.9116C22.7624 5.85974 21.8342 6.78498 21.8342 7.9305V10.1334V10.8384V17.3591C21.8342 18.5046 22.7624 19.4298 23.9116 19.4298H32.1326C33.2817 19.4298 34.2099 18.5046 34.2099 17.3591V10.8824V10.1775V7.97456C34.2099 6.82903 33.2375 5.85974 32.0884 5.85974ZM32 10.4419V17.271H24.0442V10.4419V9.73691V8.06268H32V9.73691V10.4419Z" fill="#C7D1E0"/>
<path d="M29.127 8.89987H26.8729C26.0773 8.89987 25.4585 8.28304 25.4585 7.48999V1.40988C25.4585 0.616822 26.0773 0 26.8729 0H29.127C29.9226 0 30.5414 0.616822 30.5414 1.40988V7.44593C30.5414 8.23899 29.9226 8.89987 29.127 8.89987Z" fill="#ADB8C9"/>
<path d="M56 38.1109C56 53.5314 43.4475 66.0001 28.0221 66.0001C12.5525 66.0001 0 53.4874 0 38.1109C0 37.9787 0 37.8906 0 37.7584C0.176796 24.6289 9.41436 13.6583 21.7901 10.8826C22.4972 10.7063 23.2486 10.5741 24 10.486C25.2818 10.3098 26.6519 10.2217 27.9779 10.2217C29.3481 10.2217 30.674 10.3098 31.9558 10.486C32.7072 10.5741 33.4586 10.7063 34.1657 10.8826C46.5414 13.6583 55.8232 24.6289 55.9558 37.7584C56 37.8465 56 37.9787 56 38.1109Z" fill="#E2EAF7"/>
<path d="M27.9778 61.5941C40.6224 61.5941 50.8728 51.1 50.8728 38.1548C50.8728 25.2097 40.6224 14.7156 27.9778 14.7156C15.3332 14.7156 5.08276 25.2097 5.08276 38.1548C5.08276 51.1 15.3332 61.5941 27.9778 61.5941Z" fill="#5C687F"/>
<path d="M27.9778 60.9333C40.6224 60.9333 50.8728 50.7154 50.8728 38.1109C50.8728 25.5064 40.6224 15.2885 27.9778 15.2885C15.3332 15.2885 5.08276 25.5064 5.08276 38.1109C5.08276 50.7154 15.3332 60.9333 27.9778 60.9333Z" fill="#C3CCDB"/>
<g opacity="0.7">
<path opacity="0.7" d="M50.9613 38.1109C50.9613 41.1509 50.3867 44.191 49.2817 47.0107C48.1767 49.8305 46.4972 52.474 44.3756 54.6769C42.2541 56.8799 39.7347 58.6863 36.906 59.9199C34.0773 61.1536 31.0275 61.7704 27.9778 61.7704C24.9281 61.7704 21.8784 61.1095 19.0496 59.9199C16.2209 58.7303 13.7016 56.9239 11.58 54.721C9.45848 52.5181 7.77893 49.9186 6.67395 47.0988C5.52478 44.2791 4.9502 41.239 4.9502 38.199C4.9502 35.1589 5.52478 32.1189 6.62975 29.255C7.73473 26.4353 9.41428 23.7918 11.5358 21.5888C13.6574 19.3859 16.2209 17.5795 19.0054 16.3899C21.8342 15.1563 24.8839 14.5394 27.9336 14.5394C30.9833 14.5394 34.0773 15.1563 36.8618 16.3899C39.6905 17.6235 42.2099 19.4299 44.3314 21.6329C46.453 23.8358 48.0883 26.4793 49.2375 29.2991C50.3867 32.0308 50.9613 35.0708 50.9613 38.1109ZM50.9171 38.1109C50.9171 35.0708 50.2983 32.0308 49.1933 29.211C48.0441 26.3912 46.3646 23.7918 44.2872 21.6329C42.1657 19.474 39.6463 17.6676 36.8618 16.478C34.0773 15.2884 31.0275 14.6716 28.022 14.6716C24.9723 14.6716 21.9668 15.2884 19.1822 16.478C16.3977 17.6676 13.8784 19.4299 11.7568 21.6329C9.67948 23.8358 7.99992 26.3912 6.85075 29.211C5.70158 32.0308 5.12699 35.0267 5.12699 38.0668C5.12699 44.1469 7.46953 50.183 11.7126 54.5448C13.8342 56.7477 16.3535 58.5101 19.138 59.6996C21.9226 60.8892 24.9723 61.5061 28.022 61.5061C31.0717 61.5061 34.0773 60.8452 36.8618 59.6556C39.6463 58.466 42.2099 56.7036 44.2872 54.5007C46.4088 52.2978 48.0883 49.7424 49.1933 46.9226C50.3425 44.191 50.9171 41.1509 50.9171 38.1109Z" fill="white"/>
</g>
</svg>
