<svg width="28" height="26" viewBox="0 0 28 26" fill="none" xmlns="http://www.w3.org/2000/svg">
<path d="M21.9999 5.275C23.6999 5.275 24.3999 3.375 24.2999 1.875C24.1999 1.175 23.8999 0.575 23.2999 0.275C22.5999 -0.125 21.6999 -0.025 20.9999 0.175C19.4999 0.675 19.3999 2.875 20.0999 4.175C20.3999 4.875 21.1999 5.275 21.9999 5.275Z" fill="white"/>
<path d="M27.7 9.375C27.6 8.975 27.2 8.775 26.9 8.875L23.7 9.575C23.6 9.575 23.4999 9.575 23.4 9.475L22.7 8.275C22.5 8.075 22.3 8.075 22.2 8.275L21.2 10.075C21.2 10.175 21.2 10.275 21.2 10.375L22.2999 11.475C22.4999 11.675 22.9 11.775 23.2 11.675L27.1 10.475C27.5 10.375 27.7 9.975 27.6 9.575L27.7 9.375Z" fill="white"/>
<path d="M22.1999 17.475L18.9999 14.275C18.6999 13.975 18.6999 13.675 18.8999 13.375L21.5999 8.57498C22.0999 7.57498 21.7999 6.37498 21.0999 5.77498C20.6999 5.47498 19.9999 5.47498 19.4999 5.47498C19.0999 5.47498 18.5999 5.67498 18.2999 5.77498L14.1999 7.27498C14.0999 7.27498 13.8999 7.37498 13.8999 7.47498L10.4999 10.375C10.1999 10.675 10.0999 11.075 10.3999 11.475L10.6999 11.775C10.9999 12.075 11.3999 12.075 11.6999 11.875L14.5999 9.47498C14.6999 9.37498 14.7999 9.37498 14.8999 9.27498C14.8999 9.27498 17.8999 8.37498 18.7999 8.27498C18.8999 8.27498 19.0999 8.47498 18.7999 8.67498C18.3999 8.97498 17.1999 9.37498 16.5999 9.57498C16.2999 9.67498 16.0999 9.87498 15.9999 10.175L14.9999 12.375C14.7999 12.875 14.6999 13.475 14.7999 14.075C14.8999 14.575 15.0999 15.075 15.4999 15.375L19.3999 18.775C19.4999 18.875 19.5999 19.075 19.4999 19.175L17.8999 23.775C17.7999 24.175 17.6999 24.575 17.7999 24.975V25.075C17.7999 25.275 17.9999 25.375 18.0999 25.375L22.0999 25.475C22.2999 25.475 22.3999 25.375 22.3999 25.175V25.075C22.2999 24.775 22.1999 24.675 21.8999 24.575L20.3999 24.075C20.1999 24.075 20.1999 23.875 20.1999 23.775L22.2999 19.075C22.6999 18.475 22.5999 17.875 22.1999 17.475Z" fill="white"/>
<path d="M15.3001 15.775C15.0001 15.475 14.7001 15.175 14.5001 14.875C14.5001 14.775 14.3001 14.775 14.3001 14.875C13.9001 15.575 13.6001 16.375 13.3001 17.075C13.3001 17.175 13.2001 17.275 13.0001 17.275L8.0001 19.575C7.7001 19.675 7.6001 19.975 7.7001 20.275L9.1001 23.675C9.1001 23.7751 9.3001 23.875 9.4001 23.775L9.7001 23.675C9.9001 23.675 10.0001 23.175 10.1001 22.975V21.175C10.1001 21.175 10.1001 21.075 10.2001 21.075L15.0001 19.275C15.3001 19.175 15.5001 18.975 15.6001 18.6751L16.4001 16.775C16.4001 16.675 16.4001 16.575 16.3001 16.475C15.9001 16.375 15.7001 16.075 15.3001 15.775Z" fill="white"/>
<path d="M0.6 12.575H7C7.4 12.575 7.6 12.275 7.6 11.975C7.6 11.575 7.3 11.375 7 11.375H0.6C0.3 11.275 0 11.575 0 11.975C0 12.275 0.3 12.575 0.6 12.575Z" fill="white"/>
<path d="M10.2 15.475C10.2 15.075 9.9 14.875 9.6 14.875H0.6C0.2 14.875 0 15.175 0 15.475C0 15.875 0.3 16.075 0.6 16.075H9.6C10 16.075 10.2 15.775 10.2 15.475Z" fill="white"/>
<path d="M7.40005 5.67506H14.7C15.1 5.67506 15.3 5.37506 15.3 5.07506C15.3 4.67506 15 4.47506 14.7 4.47506H7.40005C7.00005 4.37506 6.80005 4.67506 6.80005 4.97506C6.80005 5.37506 7.00005 5.67506 7.40005 5.67506Z" fill="white"/>
<path d="M4.9999 9.075H8.4999C8.8999 9.075 9.0999 8.775 9.0999 8.475C9.0999 8.075 8.7999 7.875 8.4999 7.875H4.9999C4.5999 7.875 4.3999 8.175 4.3999 8.475C4.3999 8.875 4.6999 9.075 4.9999 9.075Z" fill="white"/>
</svg>
