<svg width="124" height="147" viewBox="0 0 124 147" fill="none" xmlns="http://www.w3.org/2000/svg">
<path d="M34.5 0V131.6L33.6 131L0 112.3V0H34.5Z" fill="#61696E"/>
<path d="M123.8 0V112.3L90.2 131L89.3 131.6V0H123.8Z" fill="#61696E"/>
<path d="M89.3001 0V131.6L61.9001 146.8L34.6001 131.6V0H89.3001Z" fill="#61696E"/>
<path opacity="0.5" d="M89.3 0V131.6H89.2L61.9 146.8L34.6 131.6H34.5V0H89.3Z" fill="#E4E9EF"/>
<path d="M17.8002 72.84C17.8002 75.78 18.9702 77.56 21.6302 77.56C24.2902 77.56 25.4202 75.78 25.4202 72.84V47.84H28.8002V72.65C28.8002 77.6 26.5102 80.92 21.4602 80.92C16.4102 80.92 14.1702 77.6 14.1702 72.65V47.84H17.8002V72.84Z" fill="#979CA0"/>
<path d="M35.6401 80.55H32.3701V47.84H36.9901L44.5601 71.48V47.84H47.8001V80.55H44.0001L35.6401 54.1V80.55Z" fill="#979CA0"/>
<path d="M58.67 47.84C63.81 47.84 66 50.84 66 55.84V59.76C66 64.95 63.57 67.66 58.39 67.66H55.17V80.56H51.52V47.84H58.67ZM58.39 64.38C61.1 64.38 62.39 63.12 62.39 59.99V55.64C62.39 52.64 61.31 51.16 58.65 51.16H55.15V64.38H58.39Z" fill="#979CA0"/>
<path d="M72.0799 74L70.7999 80.55H67.45L73.71 47.84H78.99L85.2499 80.55H81.6099L80.35 74H72.0799ZM72.5499 70.87H79.7999L76.1399 52L72.5499 70.87Z" fill="#979CA0"/>
<path d="M91.8001 47.84V80.55H88.1001V47.84H91.8001Z" fill="#979CA0"/>
<path d="M103.14 47.84C108.24 47.84 110.57 50.92 110.57 55.97V72.46C110.57 77.46 108.24 80.55 103.14 80.55H95.48V47.84H103.14ZM103.14 77.23C105.76 77.23 107.02 75.59 107.02 72.6V55.78C107.02 52.78 105.76 51.16 103.09 51.16H99.13V77.23H103.14Z" fill="#979CA0"/>
<path d="M16.6 72.84C16.6 75.78 17.77 77.56 20.43 77.56C23.09 77.56 24.21 75.78 24.21 72.84V47.84H27.63V72.65C27.63 77.6 25.34 80.92 20.29 80.92C15.24 80.92 13 77.6 13 72.65V47.84H16.6V72.84Z" fill="#EFF2F4"/>
<path d="M34.4502 80.55H31.1702V47.84H35.8002L43.3702 71.48V47.84H46.5902V80.55H42.8002L34.4502 54.1V80.55Z" fill="#EFF2F4"/>
<path d="M57.4801 47.84C62.6201 47.84 64.8101 50.84 64.8101 55.84V59.76C64.8101 64.95 62.3801 67.66 57.2001 67.66H53.9701V80.56H50.3301V47.84H57.4801ZM57.2001 64.38C59.9101 64.38 61.2001 63.12 61.2001 59.99V55.64C61.2001 52.64 60.1301 51.16 57.4701 51.16H53.9701V64.38H57.2001Z" fill="#EFF2F4"/>
<path d="M70.89 74L69.63 80.59H66.26L72.52 47.88H77.8L84.06 80.59H80.42L79.16 74H70.89ZM71.35 70.87H78.64L74.95 52L71.35 70.87Z" fill="#EFF2F4"/>
<path d="M90.5502 47.84V80.55H86.9102V47.84H90.5502Z" fill="#EFF2F4"/>
<path d="M101.95 47.84C107.05 47.84 109.38 50.92 109.38 55.97V72.46C109.38 77.46 107.05 80.55 101.95 80.55H94.29V47.84H101.95ZM101.95 77.23C104.56 77.23 105.82 75.59 105.82 72.6V55.78C105.82 52.78 104.56 51.16 101.9 51.16H97.94V77.23H101.95Z" fill="#EFF2F4"/>
</svg>
