<svg width="21" height="26" viewBox="0 0 21 26" fill="none" xmlns="http://www.w3.org/2000/svg">
<path d="M14.433 3.95149C15.4457 2.90413 16.1307 1.45001 15.9432 0C14.4843 0.0502988 12.7161 0.827344 11.6688 1.87461C10.7301 2.80175 9.90818 4.28351 10.1275 5.70508C11.7555 5.81147 13.4187 4.99715 14.433 3.95149ZM17.5401 13.9653C17.509 10.7145 20.2042 9.15322 20.3236 9.07778C18.8083 6.87025 16.4485 6.56819 15.608 6.53412C13.5986 6.33034 11.69 7.70972 10.6698 7.70972C9.65376 7.70972 8.08217 6.56087 6.4156 6.59173C4.22467 6.6266 2.20591 7.8591 1.08067 9.81246C-1.19528 13.7421 0.497331 19.5633 2.71512 22.7508C3.79928 24.3112 5.09013 26.0617 6.78523 25.9983C8.42153 25.935 9.03838 24.947 11.0126 24.947C12.9876 24.947 13.5405 25.9983 15.2684 25.9667C17.0265 25.935 18.1392 24.3762 19.2142 22.8109C20.4579 21.0012 20.9706 19.2491 21 19.1606C20.9622 19.1395 17.5762 17.8527 17.5401 13.9653Z" fill="#5A5A5A"/>
</svg>
