<svg width="25" height="20" viewBox="0 0 25 20" fill="none" xmlns="http://www.w3.org/2000/svg">
<path fill-rule="evenodd" clip-rule="evenodd" d="M10.9879 0.483876L10.8839 0.366117C10.4333 -0.0844884 9.72424 -0.11915 9.23388 0.262131L9.11612 0.366117L0.366117 9.11612L0.31437 9.17107L0.245418 9.25587L0.155839 9.39492L0.0890319 9.53583L0.0448064 9.66751L0.00863396 9.85238L0 10L0.00348483 10.094L0.0253001 10.2509L0.0621726 10.3902L0.117092 10.529L0.182494 10.6509L0.274611 10.7818L0.366117 10.8839L9.11612 19.6339C9.60427 20.122 10.3957 20.122 10.8839 19.6339C11.3345 19.1833 11.3692 18.4742 10.9879 17.9839L10.8839 17.8661L4.27 11.25H23.75C24.4404 11.25 25 10.6904 25 10C25 9.30964 24.4404 8.75 23.75 8.75H4.2675L10.8839 2.13388C11.3345 1.68328 11.3692 0.97424 10.9879 0.483876Z" fill="#363636"/>
</svg>
