<svg width="20" height="25" viewBox="0 0 20 25" fill="none" xmlns="http://www.w3.org/2000/svg">
<path fill-rule="evenodd" clip-rule="evenodd" d="M19.5161 10.9879L19.6339 10.8839C20.0845 10.4333 20.1191 9.72424 19.7379 9.23388L19.6339 9.11612L10.8839 0.366116L10.8289 0.314369L10.7441 0.245418L10.6051 0.155839L10.4642 0.0890315L10.3325 0.044806L10.1476 0.00863352L10 -4.37114e-07L9.90595 0.00348439L9.74909 0.0252996L9.60982 0.0621722L9.47097 0.117091L9.34911 0.182494L9.21819 0.27461L9.11612 0.366116L0.366117 9.11612C-0.122038 9.60427 -0.122038 10.3957 0.366117 10.8839C0.816722 11.3345 1.52576 11.3691 2.01612 10.9879L2.13388 10.8839L8.75 4.27L8.75 23.75C8.75 24.4404 9.30964 25 10 25C10.6904 25 11.25 24.4404 11.25 23.75L11.25 4.2675L17.8661 10.8839C18.3167 11.3345 19.0258 11.3692 19.5161 10.9879Z" fill="white"/>
</svg>
