<svg width="29" height="27" viewBox="0 0 29 27" fill="none" xmlns="http://www.w3.org/2000/svg">
<path d="M14.7316 4.97344C13.9936 4.72419 13.4039 4.1703 13.2433 3.361C12.9654 2.02242 13.7312 0.0191654 15.2534 0.000702237C15.9945 -0.0146837 16.8251 0.22226 17.3747 0.760769C17.8656 1.23773 17.9613 1.84702 17.8224 2.51169C17.5167 3.91489 16.2477 5.48426 14.7316 4.97344Z" fill="#CFD7DD"/>
<path d="M5.30164 16.4391C6.57996 16.4391 7.7533 16.8914 8.67036 17.6453L10.1926 16.2729H9.52566C9.09029 16.2729 8.73211 15.919 8.73211 15.4821V14.9897C8.73211 14.5558 9.0872 14.1989 9.52566 14.1989H10.6187L10.5076 14.1404C10.4767 14.125 10.4458 14.1066 10.418 14.0881L9.98265 13.8112C9.60285 13.5681 9.26938 13.248 9.04397 12.8572C8.97913 12.7495 8.92664 12.6326 8.8865 12.5126C8.80931 12.2787 8.80004 12.0233 8.84636 11.7802C9.31569 9.33077 10.4396 7.38291 11.542 5.832C11.8137 5.45043 12.2151 5.17964 12.6751 5.09348C12.7091 5.08732 12.7462 5.08117 12.7832 5.07501C13.0364 5.04116 13.3668 5.10886 13.6818 5.20733C14.219 5.37658 14.7161 5.64737 15.1577 5.99202L19.9221 9.91236C19.9529 9.93698 19.9807 9.96467 20.0085 9.99544L23.1549 9.17691C23.5687 9.06921 23.9886 9.31538 24.0967 9.72773C24.2048 10.1401 23.9577 10.5586 23.544 10.6663L20.8113 11.3771L22.6856 16.5375C23.0129 16.4729 23.3525 16.4391 23.7015 16.4391C26.6224 16.4391 29 18.8085 29 21.7195C29 24.6306 26.6224 27 23.7015 27C20.7805 27 18.4029 24.6306 18.4029 21.7195C18.4029 19.6947 19.5515 17.9346 21.2313 17.0484L20.8793 16.079L15.3059 21.7072L15.2688 21.7995L15.1052 22.218L15.0033 22.4734C15.0064 22.5627 15.0527 22.6396 15.1608 22.6612L16.6552 23.452C16.8745 23.5443 17.0165 23.7689 17.0505 24.0674L17.0659 24.2151C17.0721 24.4121 16.9084 24.5229 16.7263 24.4859L12.4528 23.612C12.2707 23.5751 12.1194 23.3966 12.1564 23.212L12.1842 23.0735C12.2027 22.8796 12.2398 22.6827 12.2984 22.4858H10.5415C10.1679 25.0337 7.95709 26.9969 5.29855 26.9969C2.37756 26.9969 0 24.6275 0 21.7165C0 18.8054 2.38064 16.4391 5.30164 16.4391ZM19.9468 21.7195C19.9468 23.7843 21.6327 25.4614 23.7015 25.4614C25.7702 25.4614 27.4561 23.7843 27.4561 21.7195C27.4561 19.6547 25.7702 17.9777 23.7015 17.9777C23.5378 17.9777 23.3772 17.9869 23.2198 18.0084L24.4456 21.3841C24.5907 21.7842 24.3838 22.2242 23.9824 22.3688C23.896 22.3996 23.8064 22.415 23.72 22.415C23.405 22.415 23.1086 22.2211 22.9944 21.9072L21.7624 18.5131C20.6755 19.1716 19.9468 20.3625 19.9468 21.7195ZM13.0519 20.9502L11.4771 17.1868L9.70784 18.7839C10.137 19.4209 10.4304 20.1563 10.5477 20.9502H13.0519ZM8.54376 19.8332L7.30558 20.9502H8.97604C8.89268 20.5502 8.74446 20.1748 8.54376 19.8332ZM13.6571 18.3993L14.1634 16.2729H12.7678L13.6571 18.3993ZM19.32 11.7833C19.2736 11.7833 19.2242 11.771 19.181 11.7433L15.1484 9.33692C15.062 9.28461 14.9539 9.31538 14.9014 9.40154L13.7404 11.3956C13.6941 11.4786 13.7219 11.5833 13.8022 11.6294L16.9795 13.4481C17.211 13.5804 17.4086 13.765 17.5599 13.9804C17.6001 14.0389 17.6279 14.1004 17.6433 14.1681C17.6588 14.2358 17.6742 14.3035 17.6835 14.3743L20.1351 14.0358L19.32 11.7833ZM19.0421 15.7436L17.5167 15.9529C17.4704 16.1314 17.4148 16.3068 17.3469 16.476L16.717 18.0915L19.0421 15.7436ZM5.30164 25.4614C7.10796 25.4614 8.62095 24.1844 8.97604 22.4888H5.30164C4.9836 22.4888 4.69644 22.2919 4.5822 21.9965C4.46795 21.7011 4.54823 21.3626 4.78599 21.1503L7.50937 18.6916C6.88874 18.2423 6.12606 17.9746 5.30473 17.9746C3.23286 17.9746 1.55004 19.6547 1.55004 21.7165C1.54696 23.7843 3.23286 25.4614 5.30164 25.4614Z" fill="#CFD7DD"/>
</svg>
