<svg width="16" height="14" viewBox="0 0 16 14" fill="none" xmlns="http://www.w3.org/2000/svg">
<path fill-rule="evenodd" clip-rule="evenodd" d="M9.41115 0C10.3202 0 11.1512 0.499339 11.5578 1.28983L12.2733 2.68117C12.4088 2.94466 12.6858 3.11111 12.9889 3.11111H13.6C14.9255 3.11111 16 4.15578 16 5.44444V11.6667C16 12.9553 14.9255 14 13.6 14H2.4C1.07452 14 0 12.9553 0 11.6667V5.44444C0 4.15578 1.07452 3.11111 2.4 3.11111H3.01115C3.31416 3.11111 3.59117 2.94466 3.72669 2.68117L4.44223 1.28983C4.84877 0.499339 5.6798 0 6.58885 0H9.41115ZM8 4.66667C9.76731 4.66667 11.2 6.05956 11.2 7.77778C11.2 9.496 9.76731 10.8889 8 10.8889C6.23269 10.8889 4.8 9.496 4.8 7.77778C4.8 6.05956 6.23269 4.66667 8 4.66667ZM8 6.22222C7.11634 6.22222 6.4 6.91867 6.4 7.77778C6.4 8.63689 7.11634 9.33333 8 9.33333C8.88366 9.33333 9.6 8.63689 9.6 7.77778C9.6 6.91867 8.88366 6.22222 8 6.22222Z" fill="#CFD7DD"/>
</svg>
