<svg width="24" height="24" viewBox="0 0 24 24" fill="none" xmlns="http://www.w3.org/2000/svg">
<path d="M0.367079 23.5808C-0.12236 23.0917 -0.12236 22.2882 0.367079 21.7991L10.1908 11.9825L0.367079 2.16594C-0.12236 1.67686 -0.12236 0.873362 0.367079 0.38428C0.576839 0.139738 0.891479 0 1.24108 0C1.59068 0 1.90532 0.139738 2.15004 0.38428L11.9738 10.2009L21.7975 0.38428C22.0422 0.139738 22.3569 0 22.7065 0C23.0561 0 23.3707 0.139738 23.6154 0.38428C23.8602 0.628821 24 0.943232 24 1.29258C24 1.64192 23.8602 1.95633 23.6154 2.20087L13.7567 11.9825L23.5805 21.7991C23.8252 22.0437 23.965 22.3581 23.965 22.7074C23.965 23.0568 23.8252 23.3712 23.5805 23.6157C23.3358 23.8603 23.0211 24 22.6715 24C22.3219 24 22.0073 23.8603 21.7626 23.6157L11.9738 13.7642L2.15004 23.5808C1.90532 23.8253 1.59068 23.9651 1.24108 23.9651C0.891479 23.9651 0.576839 23.8253 0.367079 23.5808Z" fill="#363636"/>
</svg>
