<svg width="25" height="25" viewBox="0 0 25 25" fill="none" xmlns="http://www.w3.org/2000/svg">
<path fill-rule="evenodd" clip-rule="evenodd" d="M25 12.5C25 19.4038 19.4032 25 12.5003 25C5.59676 25 0 19.4038 0 12.5C0 5.59623 5.59676 0 12.5003 0C19.4032 0 25 5.59623 25 12.5Z" fill="#CFD7DD"/>
<path fill-rule="evenodd" clip-rule="evenodd" d="M13.793 12.5002L17.7321 8.56166C18.0893 8.20442 18.0893 7.62518 17.7321 7.26793C17.3748 6.91069 16.7956 6.91069 16.4391 7.26793L12.5 11.2072L8.56088 7.26793C8.20364 6.91069 7.62516 6.91069 7.26793 7.26793C6.91069 7.62518 6.91069 8.20442 7.26793 8.56166L11.207 12.5002L7.26793 16.4394C6.91069 16.7967 6.91069 17.3752 7.26793 17.7324C7.44654 17.9111 7.68102 18 7.91477 18C8.14851 18 8.38226 17.9111 8.56088 17.7324L12.5 13.7932L16.4391 17.7324C16.6177 17.9111 16.8515 18 17.0852 18C17.319 18 17.5535 17.9111 17.7321 17.7324C18.0893 17.3752 18.0893 16.7967 17.7321 16.4394L13.793 12.5002Z" fill="white"/>
</svg>
