<svg width="21" height="27" viewBox="0 0 21 27" fill="none" xmlns="http://www.w3.org/2000/svg">
<path d="M9.012 26.011C9.012 26.5542 9.51466 27 10.1272 27H10.8961C11.5087 27 12.0113 26.5542 12.0113 26.011V23.1429H9.012V26.011Z" fill="#CFD7DD"/>
<path d="M20.9964 22.3049C20.9964 22.296 20.9897 22.2842 20.9864 22.2754L20.6002 21.5964L17.0284 15.2786C16.9951 15.2166 17.0084 15.1487 17.055 15.1044C17.0883 15.069 17.1382 15.0483 17.1915 15.0483C17.2081 15.0483 17.2281 15.0512 17.2447 15.0572C17.7973 15.3022 18.4731 15.5502 19.2687 15.7214C19.4551 15.7598 19.6349 15.7952 19.8113 15.8247C19.8213 15.8247 19.8279 15.8277 19.8379 15.8277C19.9411 15.8277 20.011 15.7244 19.9544 15.6446L14.8713 8.23453C14.838 8.19025 14.8446 8.14006 14.8713 8.10168C14.8979 8.06625 14.9412 8.04263 14.9878 8.04263C14.9944 8.04263 14.9978 8.04263 15.0044 8.04263C15.5437 8.18139 16.1961 8.29948 16.9418 8.33195C17.0883 8.33786 17.2314 8.34081 17.3712 8.34081H17.4478C17.561 8.34081 17.6209 8.22567 17.5577 8.14891L11.083 0.263487C10.7967 -0.0878291 10.2075 -0.0878291 9.9179 0.263487L3.44325 8.15187C3.38 8.23158 3.44325 8.34376 3.5531 8.34376H3.62967C3.76615 8.34376 3.91262 8.34081 4.05909 8.33491C4.80476 8.30243 5.45722 8.18434 5.99649 8.04559C6.00315 8.04559 6.00648 8.04559 6.01314 8.04559C6.05974 8.04559 6.10635 8.0692 6.12965 8.10463C6.15628 8.14301 6.15961 8.1932 6.12965 8.23748L1.04979 15.6417C0.993203 15.7244 1.06311 15.8247 1.16298 15.8247C1.17296 15.8247 1.17962 15.8247 1.18961 15.8218C1.36271 15.7923 1.5458 15.7598 1.73221 15.7185C2.52781 15.5443 3.2069 15.2992 3.75616 15.0542C3.77281 15.0483 3.79278 15.0453 3.80943 15.0453C3.85936 15.0453 3.91262 15.066 3.94591 15.1014C3.98918 15.1457 4.00583 15.2136 3.96921 15.2756L0.400665 21.5964L0.0145161 22.2754C0.00120066 22.3019 -0.00212821 22.3285 0.00120066 22.3521C0.00785839 22.3757 0.017845 22.3964 0.0378182 22.4141C0.0644491 22.4377 0.0977378 22.4496 0.134355 22.4496C0.141013 22.4496 0.147671 22.4496 0.154329 22.4496C1.33608 22.3019 2.52115 22.1543 3.70623 22.0067C4.79144 21.8709 5.87665 21.7381 6.96186 21.6023C8.14028 21.4547 9.32203 21.3684 10.5005 21.2208C11.6789 21.3684 12.8606 21.4547 14.039 21.6023C15.1242 21.7381 16.2095 21.8709 17.2947 22.0067C18.4797 22.1543 19.6615 22.3019 20.8466 22.4496C20.8532 22.4496 20.8599 22.4496 20.8665 22.4496C20.8965 22.4496 20.9231 22.4407 20.9431 22.4289C20.9564 22.42 20.9697 22.4082 20.9797 22.3964C20.9864 22.3905 20.9897 22.3817 20.993 22.3757C20.9997 22.3521 21.003 22.3285 20.9964 22.3049Z" fill="#CFD7DD"/>
</svg>
