<svg width="12" height="17" viewBox="0 0 12 17" fill="none" xmlns="http://www.w3.org/2000/svg">
<path d="M3.30371 12.3468C3.83503 12.9899 4.37616 13.7986 4.65934 14.287C5.00421 14.922 5.1472 15.3507 5.40375 16.1187C5.55375 16.5393 5.69674 16.6668 5.99675 16.6668C6.32479 16.6668 6.4748 16.4524 6.58975 16.1187C6.82947 15.3982 7.01452 14.8501 7.30752 14.3277C8.43745 12.2654 10.2795 10.8001 11.3169 8.79205C11.3169 8.79205 11.9997 7.56552 11.9997 5.84784C11.9997 4.24684 11.3268 3.13428 11.3268 3.13428L3.30792 12.3604L3.30371 12.3468Z" fill="#34A853"/>
<path d="M0.58452 8.5748C1.23079 9.99942 2.46306 11.2477 3.3042 12.3467L7.76222 7.23159C7.76222 7.23159 7.13277 8.02938 5.99583 8.02938C4.72852 8.02938 3.69673 7.0525 3.69673 5.81783C3.69673 4.96848 4.21963 4.37964 4.21963 4.37964C0.9392 4.8518 1.12145 5.62109 0.574707 8.57209L0.58452 8.5748Z" fill="#FBBC04"/>
<path d="M7.81804 0.267334C9.30405 0.729996 10.5658 1.70552 11.3228 3.13014L7.76197 7.24119C7.76197 7.24119 8.28488 6.64963 8.28488 5.803C8.28488 4.54255 7.18579 3.59145 5.99979 3.59145C4.87406 3.59145 4.2334 4.37974 4.2334 4.37974C4.50677 3.77733 7.33159 0.472208 7.82225 0.268691L7.81804 0.267334Z" fill="#4285F4"/>
<path d="M1.39722 2.07587C2.28321 1.05558 3.83651 0 5.98141 0C7.01741 0 7.80387 0.265929 7.80387 0.265929L4.22904 4.37698C3.98792 4.25039 1.63554 2.47748 1.39722 2.07045V2.07587Z" fill="#1A73E8"/>
<path d="M0.58459 8.57501C0.58459 8.57501 0 7.4516 0 5.83431C0 4.30115 0.619637 2.95794 1.40189 2.0896L4.23372 4.39613L0.588795 8.57501H0.58459Z" fill="#EA4335"/>
</svg>
