<svg width="75" height="30" viewBox="0 0 75 30" fill="none" xmlns="http://www.w3.org/2000/svg">
<g clip-path="url(#clip0)">
<path d="M35.4723 14.656V23.45H32.7026V1.7328H40.0483C40.9252 1.71435 41.7969 1.87099 42.6133 2.19368C43.4297 2.51637 44.1746 2.99871 44.805 3.61289C45.4417 4.18977 45.9484 4.89726 46.2912 5.6878C46.6339 6.47834 46.8046 7.33362 46.7919 8.19615C46.8102 9.06329 46.642 9.92415 46.2991 10.7197C45.9561 11.5153 45.4464 12.2268 44.805 12.8054C43.5205 14.0392 41.9349 14.6555 40.0483 14.6543H35.4723V14.656ZM35.4723 4.40651V11.9875H40.1171C40.6264 12.0027 41.1331 11.9107 41.605 11.7174C42.0769 11.524 42.5035 11.2336 42.8576 10.8647C43.2098 10.5197 43.4898 10.1072 43.681 9.65133C43.8722 9.19551 43.9707 8.70571 43.9707 8.21088C43.9707 7.71605 43.8722 7.22624 43.681 6.77042C43.4898 6.3146 43.2098 5.90203 42.8576 5.55709C42.5079 5.18039 42.0828 4.88285 41.6103 4.68419C41.1379 4.48553 40.6289 4.39029 40.1171 4.40478H35.4723V4.40651Z" fill="#5F6368"/>
<path d="M53.1747 8.10605C55.2219 8.10605 56.8378 8.65708 58.0225 9.75914C59.2073 10.8612 59.799 12.3722 59.7979 14.2922V23.45H57.1486V21.388H57.0282C55.8813 23.0861 54.356 23.9352 52.4522 23.9352C50.8271 23.9352 49.4675 23.45 48.3734 22.4796C47.8483 22.0343 47.4285 21.4765 47.1446 20.847C46.8607 20.2175 46.7198 19.5321 46.7322 18.8408C46.7322 17.3032 47.3091 16.0804 48.4628 15.1724C49.6166 14.2644 51.1568 13.8093 53.0836 13.807C54.7282 13.807 56.0826 14.1102 57.1469 14.7167V14.079C57.15 13.6077 57.049 13.1416 56.8511 12.7145C56.6533 12.2875 56.3635 11.9101 56.0029 11.6098C55.2705 10.9442 54.316 10.581 53.3296 10.5926C51.7824 10.5926 50.5582 11.2499 49.6567 12.5645L47.2173 11.0172C48.5592 9.07642 50.545 8.10605 53.1747 8.10605ZM49.5913 18.9014C49.5895 19.2565 49.6719 19.6068 49.8317 19.9233C49.9915 20.2398 50.224 20.5132 50.51 20.7208C51.1225 21.2062 51.8829 21.4633 52.6621 21.4486C53.8308 21.4467 54.9512 20.9781 55.7775 20.1456C56.695 19.2757 57.1538 18.2551 57.1538 17.0837C56.2902 16.3906 55.086 16.044 53.5412 16.044C52.4161 16.044 51.4779 16.3172 50.7267 16.8636C49.9681 17.4181 49.5913 18.0922 49.5913 18.9014Z" fill="#5F6368"/>
<path d="M75.0053 8.59123L65.7569 30H62.8978L66.3298 22.5091L60.2485 8.59123H63.2591L67.6544 19.2653H67.7146L71.9896 8.59123H75.0053Z" fill="#5F6368"/>
<path d="M24.2804 12.7603C24.2814 11.9102 24.2101 11.0614 24.0671 10.2235H12.3862V15.0286H19.0765C18.9396 15.796 18.6498 16.5276 18.2247 17.1792C17.7995 17.8308 17.2478 18.3889 16.6027 18.82V21.939H20.5955C22.9334 19.7678 24.2804 16.5569 24.2804 12.7603Z" fill="#4285F4"/>
<path d="M12.386 24.9523C15.7286 24.9523 18.543 23.8468 20.5953 21.9407L16.6025 18.8217C15.4912 19.5807 14.0599 20.0139 12.386 20.0139C9.15531 20.0139 6.41315 17.8201 5.43258 14.864H1.31934V18.0783C2.35026 20.1446 3.93106 21.8817 5.88526 23.0955C7.83946 24.3094 10.0901 24.9522 12.386 24.9523Z" fill="#34A853"/>
<path d="M5.43264 14.864C4.91424 13.3149 4.91424 11.6374 5.43264 10.0884V6.87402H1.3194C0.45215 8.61229 0.000488281 10.5308 0.000488281 12.4762C0.000488281 14.4216 0.45215 16.34 1.3194 18.0783L5.43264 14.864Z" fill="#FBBC04"/>
<path d="M12.386 4.9385C14.1524 4.90943 15.8592 5.58167 17.1375 6.80992L20.6727 3.24901C18.431 1.1282 15.4613 -0.0361694 12.386 9.83791e-06C10.0901 0.000115236 7.83946 0.642974 5.88526 1.85682C3.93106 3.07066 2.35026 4.80771 1.31934 6.87403L5.43258 10.0884C6.41315 7.13222 9.15531 4.9385 12.386 4.9385Z" fill="#EA4335"/>
</g>
<defs>
<clipPath id="clip0">
<rect width="75" height="30" fill="white"/>
</clipPath>
</defs>
</svg>
