<svg width="32" height="34" viewBox="0 0 32 34" fill="none" xmlns="http://www.w3.org/2000/svg">
<path d="M17.1289 32.406C16.9579 32.3073 16.8113 32.1664 16.6892 31.9832L11.6299 23.3732L1.60098 23.272C1.38123 23.2578 1.18587 23.2013 1.0149 23.1026C0.672955 22.9052 0.471317 22.5635 0.428335 22.1444C0.403706 21.7922 0.580475 21.3873 0.879436 21.1656L20.7443 5.31609C21.2263 4.97479 21.7513 5.05258 22.0933 5.25C22.4352 5.44742 22.7651 5.86318 22.6678 6.42658L18.9169 31.5795C18.85 31.9915 18.6121 32.3048 18.2948 32.4596C17.9103 32.6319 17.4708 32.6035 17.1289 32.406ZM12.8981 21.1764C13.0691 21.2751 13.2157 21.4161 13.3379 21.5993L17.0896 27.9335L19.8981 9.05206L4.92624 20.9673L12.2877 21.0493C12.4647 21.0388 12.7272 21.0777 12.8981 21.1764Z" fill="#363636"/>
</svg>
