<svg width="40" height="27" viewBox="0 0 40 27" fill="none" xmlns="http://www.w3.org/2000/svg">
<path d="M29.1374 26.007C29.1374 26.5508 29.5884 26.997 30.1379 26.997H30.8278C31.3774 26.997 31.8284 26.5508 31.8284 26.007V23.1429H29.1374V26.007Z" fill="#CFD7DD"/>
<path d="M39.9967 22.3277C39.9967 22.3189 39.9908 22.307 39.9878 22.2982L39.6413 21.6185L36.4367 15.2942C36.4068 15.2321 36.4188 15.1642 36.4606 15.1198C36.4905 15.0844 36.5353 15.0637 36.583 15.0637C36.598 15.0637 36.6159 15.0667 36.6308 15.0726C37.1266 15.3179 37.7329 15.5661 38.4467 15.7375C38.6139 15.7759 38.7752 15.8114 38.9335 15.8409C38.9425 15.8409 38.9484 15.8439 38.9574 15.8439C39.05 15.8439 39.1127 15.7405 39.0619 15.6607L34.5014 8.24296C34.4715 8.19863 34.4775 8.14839 34.5014 8.10997C34.5253 8.07451 34.5641 8.05087 34.6059 8.05087C34.6119 8.05087 34.6149 8.05087 34.6208 8.05087C35.1047 8.18976 35.69 8.30797 36.3591 8.34048C36.4905 8.34639 36.6189 8.34935 36.7443 8.34935H36.813C36.9146 8.34935 36.9683 8.23409 36.9116 8.15726L31.1026 0.263757C30.8458 -0.087919 30.3171 -0.087919 30.0573 0.263757L24.2483 8.16021C24.1916 8.24 24.2483 8.3523 24.3469 8.3523H24.4156C24.538 8.3523 24.6694 8.34935 24.8009 8.34344C25.4699 8.31093 26.0552 8.19272 26.5391 8.05382C26.545 8.05382 26.548 8.05382 26.554 8.05382C26.5958 8.05382 26.6376 8.07746 26.6585 8.11293C26.6824 8.15135 26.6854 8.20158 26.6585 8.24591L22.101 15.6577C22.0502 15.7405 22.1129 15.8409 22.2025 15.8409C22.2115 15.8409 22.2174 15.8409 22.2264 15.838C22.3817 15.8084 22.546 15.7759 22.7132 15.7345C23.427 15.5602 24.0363 15.3149 24.5291 15.0696C24.544 15.0637 24.5619 15.0607 24.5769 15.0607C24.6217 15.0607 24.6694 15.0814 24.6993 15.1169C24.7381 15.1612 24.7531 15.2292 24.7202 15.2913L21.5186 21.6155L21.1721 22.2952C21.1602 22.3218 21.1572 22.3484 21.1602 22.3721C21.1661 22.3957 21.1751 22.4164 21.193 22.4341C21.2169 22.4578 21.2468 22.4696 21.2796 22.4696C21.2856 22.4696 21.2916 22.4696 21.2976 22.4696C22.3578 22.3218 23.421 22.1741 24.4843 22.0263C25.4579 21.8903 26.4315 21.7574 27.4052 21.6214C28.4624 21.4737 29.5227 21.3289 30.58 21.1811C31.6372 21.3289 32.6975 21.4737 33.7547 21.6214C34.7284 21.7574 35.702 21.8903 36.6756 22.0263C37.7389 22.1741 38.7991 22.3218 39.8623 22.4696C39.8683 22.4696 39.8743 22.4696 39.8803 22.4696C39.9072 22.4696 39.931 22.4607 39.949 22.4489C39.9609 22.44 39.9729 22.4282 39.9818 22.4164C39.9878 22.4105 39.9908 22.4016 39.9938 22.3957C39.9997 22.375 40.0027 22.3514 39.9967 22.3277Z" fill="#CFD7DD"/>
<path d="M19.3682 20.2797H15.3303V19.1538H17.3881C17.8391 19.1538 18.2064 18.7903 18.2064 18.344V17.7146C18.2064 17.2683 17.8391 16.9048 17.3881 16.9048H15.3303V15.7789H17.3881C17.8391 15.7789 18.2064 15.4154 18.2064 14.9691V14.3397C18.2064 13.8934 17.8391 13.5299 17.3881 13.5299H2.79846C2.34748 13.5299 1.98013 13.8934 1.98013 14.3397V14.9691C1.98013 15.4154 2.34748 15.7789 2.79846 15.7789H4.85624V16.9048H2.79846C2.34748 16.9048 1.98013 17.2683 1.98013 17.7146V18.344C1.98013 18.7903 2.34748 19.1538 2.79846 19.1538H4.85624V20.2797H0.818332C0.367354 20.2797 0 20.6432 0 21.0895V22.0263C0 22.4725 0.367354 22.836 0.818332 22.836H3.81988V26.6867C3.81988 26.8581 3.96324 27 4.13646 27H5.63873C5.81195 27 5.95531 26.8581 5.95531 26.6867V22.839H14.2282V26.6867C14.2282 26.8581 14.3716 27 14.5448 27H16.0471C16.2203 27 16.3637 26.8581 16.3637 26.6867V22.839H19.3652C19.8162 22.839 20.1835 22.4755 20.1835 22.0293V21.0924C20.1865 20.6432 19.8192 20.2797 19.3682 20.2797ZM6.20021 15.7789H13.9833V16.9048H6.20021V15.7789ZM6.20021 19.1538H13.9833V20.2797H6.20021V19.1538Z" fill="#CFD7DD"/>
</svg>
