<svg width="19" height="19" viewBox="0 0 19 19" fill="none" xmlns="http://www.w3.org/2000/svg">
<path fill-rule="evenodd" clip-rule="evenodd" d="M5.7 9.5C5.7 10.7409 4.90689 11.7966 3.79992 12.1879L3.8 18.05C3.8 18.5747 3.37467 19 2.85 19C2.32533 19 1.9 18.5747 1.9 18.05L1.89914 12.1875C0.792659 11.796 0 10.7406 0 9.5C0 8.25941 0.792659 7.20396 1.89914 6.81247L1.9 0.95C1.9 0.425329 2.32533 0 2.85 0C3.37467 0 3.8 0.425329 3.8 0.95L3.79992 6.81214C4.90689 7.20336 5.7 8.25906 5.7 9.5ZM3.8 9.5C3.8 8.97533 3.37467 8.55 2.85 8.55C2.32533 8.55 1.9 8.97533 1.9 9.5C1.9 10.0247 2.32533 10.45 2.85 10.45C3.37467 10.45 3.8 10.0247 3.8 9.5ZM12.35 16.15C12.35 17.724 11.074 19 9.5 19C7.92599 19 6.65 17.724 6.65 16.15C6.65 14.9094 7.44266 13.854 8.54914 13.4625L8.55 0.95C8.55 0.425329 8.97533 0 9.5 0C10.0247 0 10.45 0.425329 10.45 0.95L10.4499 13.4621C11.5569 13.8534 12.35 14.9091 12.35 16.15ZM10.45 16.15C10.45 15.6253 10.0247 15.2 9.5 15.2C8.97533 15.2 8.55 15.6253 8.55 16.15C8.55 16.6747 8.97533 17.1 9.5 17.1C10.0247 17.1 10.45 16.6747 10.45 16.15ZM19 2.85C19 4.09621 18.2001 5.1556 17.0858 5.54281C17.0955 5.59359 17.1 5.64627 17.1 5.7V18.05C17.1 18.5747 16.6747 19 16.15 19C15.6253 19 15.2 18.5747 15.2 18.05V5.7C15.2 5.64627 15.2045 5.59359 15.213 5.54229C14.0999 5.1556 13.3 4.09621 13.3 2.85C13.3 1.27599 14.576 0 16.15 0C17.724 0 19 1.27599 19 2.85ZM17.1 2.85C17.1 2.32533 16.6747 1.9 16.15 1.9C15.6253 1.9 15.2 2.32533 15.2 2.85C15.2 3.37467 15.6253 3.8 16.15 3.8C16.6747 3.8 17.1 3.37467 17.1 2.85Z" fill="#363636"/>
</svg>
