<svg width="25" height="25" viewBox="0 0 25 25" fill="none" xmlns="http://www.w3.org/2000/svg">
<path fill-rule="evenodd" clip-rule="evenodd" d="M25 21.25C25 23.3211 23.3211 25 21.25 25H3.75C1.67893 25 0 23.3211 0 21.25V3.75C0 1.67893 1.67893 0 3.75 0H8.75063C9.44064 0 10 0.559364 10 1.24937C10 1.93943 9.44068 2.49886 8.75063 2.499L3.75 2.5C3.05964 2.5 2.5 3.05964 2.5 3.75V20.3475L7.73283 13.0235C8.12521 12.4741 8.87436 12.3421 9.42655 12.6987L9.55023 12.7897L15.9812 18.1475L17.7099 15.5566C18.1183 14.9441 18.9545 14.8231 19.5176 15.2632L19.6339 15.3661L22.5 18.2313V16.25C22.5 15.5596 23.0596 15 23.75 15C24.4404 15 25 15.5596 25 16.25V21.25ZM18.75 0C19.4404 0 20 0.559644 20 1.25V5H23.75C24.4404 5 25 5.55964 25 6.25C25 6.94036 24.4404 7.5 23.75 7.5H20V11.25C20 11.9404 19.4404 12.5 18.75 12.5C18.0596 12.5 17.5 11.9404 17.5 11.25V7.5H13.75C13.0596 7.5 12.5 6.94036 12.5 6.25C12.5 5.55964 13.0596 5 13.75 5H17.5V1.25C17.5 0.559644 18.0596 0 18.75 0ZM7.5 5C8.88071 5 10 6.11929 10 7.5C10 8.88071 8.88071 10 7.5 10C6.11929 10 5 8.88071 5 7.5C5 6.11929 6.11929 5 7.5 5Z" fill="#CFD7DD"/>
</svg>
