<svg width="29" height="32" viewBox="0 0 29 32" fill="none" xmlns="http://www.w3.org/2000/svg">
<path d="M23.5681 21.2145C20.9644 21.2145 18.7647 23.0863 18.226 25.5376H7.76625C4.98297 25.5376 2.73839 23.3092 2.73839 20.546C2.73839 17.7827 4.98297 15.5543 7.76625 15.5543H23.209C26.3963 15.5543 29 12.9694 29 9.80501C29 6.64067 26.3963 4.05571 23.209 4.05571H10.6842C10.1006 1.73816 7.94582 0 5.43189 0C2.42415 0 0 2.40669 0 5.39276C0 8.37883 2.42415 10.7855 5.43189 10.7855C7.94582 10.7855 10.1006 9.04735 10.6842 6.7298H23.209C24.87 6.7298 26.2616 8.06685 26.2616 9.76045C26.2616 11.4095 24.9149 12.7911 23.209 12.7911H7.76625C3.50155 12.7911 0 16.2674 0 20.5014C0 24.7354 3.50155 28.2117 7.76625 28.2117H18.3607C19.0341 30.3955 21.0991 32 23.5232 32C26.531 32 28.9551 29.5933 28.9551 26.6072C29 23.6212 26.5759 21.2145 23.5681 21.2145ZM5.43189 8.06685C3.95046 8.06685 2.73839 6.86351 2.73839 5.39276C2.73839 3.92201 3.95046 2.71866 5.43189 2.71866C6.91331 2.71866 8.12539 3.92201 8.12539 5.39276C8.12539 6.86351 6.91331 8.06685 5.43189 8.06685ZM23.5681 29.2813C22.0867 29.2813 20.8746 28.078 20.8746 26.6072C20.8746 25.1365 22.0867 23.9331 23.5681 23.9331C25.0495 23.9331 26.2616 25.1365 26.2616 26.6072C26.2616 28.078 25.0495 29.2813 23.5681 29.2813Z" fill="#CFD7DD"/>
</svg>
