<svg width="21" height="27" viewBox="0 0 21 27" fill="none" xmlns="http://www.w3.org/2000/svg">
<path d="M14.8386 5.63327C16.5862 5.63327 17.3479 3.53391 17.1687 1.94773C17.0791 1.2013 16.7654 0.594817 16.0933 0.268251C15.3315 -0.104968 14.3906 -0.0583154 13.6288 0.221598C12.0605 0.781426 11.9709 3.16069 12.7327 4.46696C13.1807 5.26005 13.9873 5.63327 14.8386 5.63327Z" fill="#363636"/>
<path d="M15.2419 8.8056L14.2113 10.765C14.1665 10.8583 14.1665 10.9983 14.2561 11.0916L15.4212 12.2579C15.6452 12.4911 16.0037 12.5844 16.3621 12.4911L20.4845 11.1849C20.8878 11.0449 21.067 10.625 20.9774 10.2518L20.8878 9.92525C20.7533 9.55204 20.3949 9.31877 20.0364 9.41208L16.7206 10.2518C16.631 10.2985 16.4966 10.2518 16.4517 10.1119L15.7348 8.8056C15.5556 8.61899 15.3315 8.61899 15.2419 8.8056Z" fill="#363636"/>
<path d="M11.4332 8.89891C10.4922 8.94556 7.31085 9.97191 7.31085 9.97191C7.17642 10.0186 7.08681 10.0652 6.95238 10.1585L3.90542 12.7244C3.59176 12.9577 3.14368 12.9577 2.87483 12.6777L2.60598 12.3512C2.29232 12.0246 2.33713 11.5114 2.65078 11.2315L6.19064 8.05916C6.28026 7.96586 6.41468 7.87256 6.54911 7.8259L10.8507 6.19307C11.254 6.05312 11.7021 5.91316 12.1501 5.86651C12.7327 5.81985 13.4496 5.81985 13.8529 6.14642C14.6146 6.7529 14.9283 7.96586 14.4354 9.08552L11.6573 14.2173C11.478 14.5438 11.5228 14.9171 11.7917 15.197L15.1971 18.5559C15.6452 18.9758 15.7796 19.6289 15.5108 20.1888L13.4048 25.2272C13.36 25.3672 13.4048 25.5538 13.584 25.5538L15.1523 26.0203C15.3763 26.067 15.5556 26.2536 15.6452 26.5335L15.69 26.6734C15.7348 26.86 15.6004 27 15.4212 27H11.2092C11.0299 27 10.8507 26.86 10.8507 26.6734V26.5335C10.8059 26.1136 10.8507 25.6471 10.9851 25.2272L12.5534 20.3754C12.5982 20.1888 12.5534 20.0022 12.419 19.9088L8.25182 16.4099C7.84855 16.0834 7.5797 15.6168 7.49008 15.057C7.35566 14.4505 7.40047 13.844 7.62451 13.2842L8.52067 10.9516C8.61029 10.6717 8.83433 10.4384 9.10318 10.3451C9.77531 10.0652 10.9851 9.59869 11.4332 9.31878C11.7021 9.13217 11.5676 8.89891 11.4332 8.89891Z" fill="#363636"/>
<path d="M5.92179 18.3227C6.28026 17.5296 6.59392 16.7365 6.95238 15.9434C6.99719 15.8501 7.13162 15.8501 7.17643 15.9434C7.35566 16.2233 7.62451 16.5499 7.98298 16.8765C8.34144 17.203 8.6551 17.4829 8.96876 17.6695C9.05838 17.7162 9.10318 17.8561 9.05837 17.9495L8.20702 19.9555C8.07259 20.2354 7.84855 20.4687 7.5797 20.562L2.60598 22.5214C2.56117 22.568 2.51636 22.6147 2.51636 22.6613V24.6207C2.51636 24.854 2.38194 25.3672 2.1579 25.4138L1.84424 25.5071C1.70981 25.5538 1.57539 25.5071 1.53058 25.3672L0.0519052 21.7749C-0.0825198 21.4484 0.0519055 21.1218 0.365564 20.9819L5.65294 18.5093C5.78737 18.5093 5.87699 18.416 5.92179 18.3227Z" fill="#363636"/>
</svg>
