<svg width="31" height="27" viewBox="0 0 31 27" fill="none" xmlns="http://www.w3.org/2000/svg">
<path d="M15.2507 5.70261C16.9965 6.25761 18.4187 4.4395 18.739 2.82234C18.8864 2.06001 18.7615 1.36466 18.1945 0.831988C17.5506 0.222762 16.5961 -0.0292216 15.7472 0.00267505C14.0046 0.0537097 13.1654 2.36303 13.5145 3.88769C13.7131 4.8095 14.3986 5.43467 15.2507 5.70261Z" fill="#CFD7DD"/>
<path d="M1.39982 11.7183L1.22364 13.1824C1.22364 13.1824 1.76179 13.1983 2.09493 13.0069C2.42807 12.8187 2.80285 12.0086 2.80285 12.0086L12.6144 13.1218L13.8573 11.5142C13.8573 11.5142 14.5332 13.125 15.1738 13.7438C15.5006 14.0595 16.0932 14.1712 17.0573 14.1456C17.0702 14.1488 17.0862 14.1488 17.1022 14.1488L17.2335 14.1393H17.2367C17.4994 14.1297 17.7877 14.1106 18.1048 14.0819H18.1112L21.4682 13.865C21.7853 13.8458 22.0576 13.6672 22.2082 13.412C22.2786 13.2908 22.3235 13.1537 22.3331 13.0037L22.3459 12.7996C22.3555 12.6688 22.3363 12.5444 22.2947 12.4296C22.1697 12.0819 21.8366 11.8268 21.4394 11.8172L17.9286 11.7438C17.2848 11.7024 16.8075 11.6737 16.8075 11.6737C16.8075 11.6737 16.1957 8.40425 15.3436 6.92425C14.4915 5.44424 12.6497 5.67709 11.6406 6.25442C7.70703 8.49994 7.07279 11.444 7.07279 11.444L2.8509 10.9719C2.8509 10.9719 2.77082 10.452 2.42807 10.0629C2.08532 9.67374 1.57921 9.66736 1.57921 9.66736C1.57921 9.66736 1.39982 11.023 1.41904 11.023L0 11.1888L1.39982 11.7183Z" fill="#CFD7DD"/>
<path d="M30.1619 22.2538C29.9601 22.2315 29.7615 22.2729 29.5853 22.3718C29.3258 22.5185 29.1496 22.7865 29.1176 23.0799C29.0407 23.7465 28.682 24.2537 28.0221 24.6301C27.9708 24.6588 27.9196 24.6875 27.8651 24.7162C27.3046 25.0001 26.7376 25.0958 26.5774 25.1213L17.4962 25.1181C17.5026 25.0894 17.5154 25.0192 17.5378 24.9171C17.7012 24.1293 18.2714 21.3256 18.7294 18.5442L18.9152 16.2891C18.9665 15.6576 18.534 15.0898 17.9126 14.9686L15.3212 14.5444C14.2417 14.3881 6.62433 13.6449 6.62433 13.6449C6.29119 16.6304 8.89544 17.7787 10.2024 17.8935C11.5221 18.0083 12.9476 18.0147 13.8477 18.1264C14.1007 18.1582 14.3186 18.2125 14.4979 18.2954C14.6101 18.3464 14.7254 18.3879 14.8439 18.423C15.0969 18.4964 15.2571 18.7483 15.2155 19.0099L15.0841 19.8552C14.9336 20.9269 14.4883 23.7976 14.3121 24.9171C14.2993 24.9937 14.2897 25.0607 14.2801 25.1181L0.993009 25.1149C0.829643 25.1149 0.666277 25.1564 0.525334 25.2393C0.233838 25.4052 0.0512521 25.7178 0.0512521 26.0559C0.0512521 26.5726 0.474082 26.9936 0.993009 26.9936L26.6255 27C26.6575 27 26.6895 27 26.7216 26.9968C26.8177 26.9872 27.7018 26.8884 28.6467 26.4291C28.7556 26.378 28.8613 26.3206 28.9606 26.2632C29.4155 26.0048 29.8031 25.689 30.1138 25.3286C30.6103 24.7545 30.905 24.0687 30.9947 23.2968C31.0492 22.7801 30.6776 22.3144 30.1619 22.2538Z" fill="#CFD7DD"/>
</svg>
