<svg width="15" height="22" viewBox="0 0 15 22" fill="none" xmlns="http://www.w3.org/2000/svg">
<path d="M12.7083 2.23989C11.3095 0.797769 9.43452 0 7.47024 0C7.44048 0 7.44048 0 7.41071 0C3.39286 0.0306834 0 3.55927 0 7.67085C0 9.97211 1.0119 12.1506 2.7381 13.6234C3.06548 13.8996 3.27381 14.2985 3.33333 14.6974C3.33333 14.7587 3.33333 14.7587 3.33333 15.4031C3.33333 15.8633 3.33333 16.6304 3.33333 17.9805C3.33333 18.4407 3.69048 18.8396 4.16667 18.8396H4.375C4.40476 20.5886 5.80357 22 7.5 22C9.19643 22 10.5952 20.5886 10.625 18.8396H10.8333C11.2798 18.8396 11.6667 18.4714 11.6667 17.9805C11.6667 16.6611 11.6667 15.894 11.6667 15.4338C11.6667 14.7894 11.6667 14.7587 11.6667 14.6667C11.6964 14.2678 11.9048 13.8996 12.2024 13.6234C13.9881 12.1506 15 9.97211 15 7.64017C14.9107 5.61506 14.1369 3.68201 12.7083 2.23989ZM8.89881 18.8703C8.86905 19.6681 8.21429 20.3124 7.44048 20.3124C6.66667 20.3124 6.0119 19.6681 5.98214 18.8703H8.89881ZM9.94048 15.7099V17.152H4.97024V15.7099H9.94048ZM7.44048 1.71827C10.625 1.71827 13.244 4.38773 13.244 7.70153C13.244 9.51186 12.4405 11.2301 11.0714 12.3654C10.5655 12.795 10.2083 13.3473 10.0298 14.0223H4.85119C4.67262 13.3473 4.28571 12.7643 3.77976 12.3347C2.44048 11.1688 1.66667 9.48117 1.66667 7.67085C1.66667 4.44909 4.31548 1.71827 7.41071 1.68759L7.44048 1.71827Z" fill="#363636"/>
</svg>
