<svg width="21" height="14" viewBox="0 0 21 14" fill="none" xmlns="http://www.w3.org/2000/svg">
<path d="M15.2971 13.4851C15.2971 13.7671 15.5339 13.9985 15.8224 13.9985H16.1846C16.4731 13.9985 16.7099 13.7671 16.7099 13.4851V12H15.2971V13.4851Z" fill="#363636"/>
<path d="M20.9983 11.5773C20.9983 11.5727 20.9952 11.5666 20.9936 11.562L20.8117 11.2096L19.1293 7.93033C19.1136 7.89815 19.1199 7.86291 19.1418 7.83992C19.1575 7.82153 19.181 7.81081 19.2061 7.81081C19.2139 7.81081 19.2233 7.81234 19.2312 7.8154C19.4915 7.94259 19.8098 8.07131 20.1845 8.16018C20.2723 8.18011 20.357 8.19849 20.4401 8.21382C20.4448 8.21382 20.4479 8.21535 20.4526 8.21535C20.5012 8.21535 20.5342 8.16172 20.5075 8.12034L18.1132 4.27413C18.0975 4.25114 18.1007 4.22509 18.1132 4.20517C18.1258 4.18678 18.1461 4.17452 18.1681 4.17452C18.1712 4.17452 18.1728 4.17452 18.1759 4.17452C18.43 4.24654 18.7373 4.30784 19.0885 4.32469C19.1575 4.32776 19.2249 4.32929 19.2908 4.32929H19.3268C19.3801 4.32929 19.4084 4.26953 19.3786 4.22969L16.3289 0.136763C16.194 -0.0455876 15.9165 -0.0455876 15.7801 0.136763L12.7304 4.23122C12.7006 4.27259 12.7304 4.33082 12.7821 4.33082H12.8182C12.8825 4.33082 12.9515 4.32929 13.0204 4.32623C13.3717 4.30937 13.679 4.24808 13.933 4.17606C13.9361 4.17606 13.9377 4.17606 13.9408 4.17606C13.9628 4.17606 13.9847 4.18831 13.9957 4.2067C14.0083 4.22662 14.0098 4.25267 13.9957 4.27566L11.603 8.11881C11.5763 8.16172 11.6093 8.21382 11.6563 8.21382C11.661 8.21382 11.6642 8.21382 11.6689 8.21228C11.7504 8.19696 11.8366 8.18011 11.9244 8.15865C12.2992 8.06824 12.619 7.94106 12.8778 7.81387C12.8856 7.81081 12.895 7.80927 12.9028 7.80927C12.9264 7.80927 12.9515 7.82 12.9671 7.83839C12.9875 7.86137 12.9954 7.89662 12.9781 7.9288L11.2972 11.208L11.1154 11.5605C11.1091 11.5743 11.1075 11.5881 11.1091 11.6003C11.1122 11.6126 11.1169 11.6233 11.1263 11.6325C11.1389 11.6448 11.1546 11.6509 11.1718 11.6509C11.1749 11.6509 11.1781 11.6509 11.1812 11.6509C11.7378 11.5743 12.296 11.4977 12.8542 11.421C13.3654 11.3506 13.8766 11.2816 14.3877 11.2111C14.9428 11.1345 15.4994 11.0594 16.0545 10.9828C16.6095 11.0594 17.1662 11.1345 17.7212 11.2111C18.2324 11.2816 18.7435 11.3506 19.2547 11.421C19.8129 11.4977 20.3695 11.5743 20.9277 11.6509C20.9309 11.6509 20.934 11.6509 20.9371 11.6509C20.9513 11.6509 20.9638 11.6463 20.9732 11.6402C20.9795 11.6356 20.9857 11.6294 20.9904 11.6233C20.9936 11.6202 20.9952 11.6156 20.9967 11.6126C20.9999 11.6019 21.0014 11.5896 20.9983 11.5773Z" fill="#363636"/>
<path d="M10.1683 10.5154H8.0484V9.93159H9.12874C9.3655 9.93159 9.55836 9.74311 9.55836 9.51173V9.18534C9.55836 8.95395 9.3655 8.76547 9.12874 8.76547H8.0484V8.18164H9.12874C9.3655 8.18164 9.55836 7.99316 9.55836 7.76178V7.43538C9.55836 7.204 9.3655 7.01552 9.12874 7.01552H1.46919C1.23243 7.01552 1.03957 7.204 1.03957 7.43538V7.76178C1.03957 7.99316 1.23243 8.18164 1.46919 8.18164H2.54952V8.76547H1.46919C1.23243 8.76547 1.03957 8.95395 1.03957 9.18534V9.51173C1.03957 9.74311 1.23243 9.93159 1.46919 9.93159H2.54952V10.5154H0.429625C0.192861 10.5154 0 10.7039 0 10.9353V11.421C0 11.6524 0.192861 11.8409 0.429625 11.8409H2.00544V13.8376C2.00544 13.9264 2.0807 14 2.17164 14H2.96033C3.05128 14 3.12654 13.9264 3.12654 13.8376V11.8424H7.46982V13.8376C7.46982 13.9264 7.54509 14 7.63603 14H8.42472C8.51566 14 8.59092 13.9264 8.59092 13.8376V11.8424H10.1667C10.4035 11.8424 10.5964 11.654 10.5964 11.4226V10.9368C10.5979 10.7039 10.4051 10.5154 10.1683 10.5154ZM3.25511 8.18164H7.34125V8.76547H3.25511V8.18164ZM3.25511 9.93159H7.34125V10.5154H3.25511V9.93159Z" fill="#363636"/>
</svg>
