<svg width="32" height="32" viewBox="0 0 32 32" fill="none" xmlns="http://www.w3.org/2000/svg">
<path d="M16 6.99721C12.4791 6.99721 9.58217 9.89415 9.58217 13.415C9.58217 16.9359 12.4791 19.8329 16 19.8329C19.5209 19.8329 22.4178 16.9359 22.4178 13.415C22.4178 9.89415 19.5209 6.99721 16 6.99721ZM16 16.9359C14.039 16.9359 12.4791 15.3315 12.4791 13.415C12.4791 11.454 14.0836 9.89415 16 9.89415C17.961 9.89415 19.5209 11.4986 19.5209 13.415C19.5209 15.376 17.961 16.9359 16 16.9359Z" fill="#363636"/>
<path d="M16 0C7.17549 0 0 7.17549 0 16C0 24.8245 7.17549 32 16 32C24.8245 32 32 24.8245 32 16C32 7.17549 24.8245 0 16 0ZM8.37883 26.9192C8.46797 26.7409 8.51254 26.5627 8.51254 26.3398C8.51254 24.9582 9.67131 23.7994 11.0529 23.7994H21.1699C22.4624 23.8886 23.4875 24.9136 23.532 26.1616V26.429C23.532 26.5627 23.5766 26.6964 23.6657 26.8301C21.4819 28.3454 18.8524 29.2368 16.0446 29.2368C13.1476 29.3259 10.5181 28.4345 8.37883 26.9192ZM26.117 24.6462C25.4039 22.4624 23.3538 20.9025 20.9916 20.9025H10.8301C8.51253 20.9916 6.5961 22.5515 5.92758 24.6462C3.87744 22.3287 2.67409 19.298 2.67409 16C2.67409 8.64624 8.64624 2.67409 16 2.67409C23.3538 2.67409 29.3259 8.64624 29.3259 16C29.3259 19.298 28.1226 22.3287 26.117 24.6462Z" fill="#363636"/>
</svg>
