<svg width="22" height="22" viewBox="0 0 22 22" fill="none" xmlns="http://www.w3.org/2000/svg">
<path d="M3.17397 22C1.49363 22 0.0933522 20.6912 0 19.0085V18.8215V3.17847C0 1.49575 1.30693 0.0934844 2.98727 0H3.17397H16.5856C18.2659 0 19.6351 1.30878 19.7595 2.9915V3.17847V6.85552L19.884 6.88669C21.1598 7.32295 22 8.53824 22 9.87819V12.1218C22 13.4618 21.1598 14.6771 19.884 15.1133L19.7595 15.1445V18.8215C19.7595 20.5043 18.4526 21.8754 16.7723 22H16.5856H3.17397ZM3.17397 1.86969C2.48939 1.86969 1.9604 2.36827 1.86704 3.02266V3.17847V18.8527C1.86704 19.5071 2.36492 20.068 3.01839 20.1615H3.17397H16.5856C17.239 20.1615 17.7992 19.6629 17.8925 19.0085V18.8527V15.3003H16.5856C14.843 15.3003 13.4116 13.8669 13.4116 12.1218V9.87819C13.4116 8.13315 14.843 6.69972 16.5856 6.69972H17.8925V3.17847C17.8925 2.52408 17.3946 1.96317 16.7412 1.86969H16.5856H3.17397ZM16.5856 8.56941C15.8699 8.56941 15.2786 9.16147 15.2786 9.87819V12.1218C15.2786 12.8385 15.8699 13.4306 16.5856 13.4306H18.826C19.5417 13.4306 20.133 12.8385 20.133 12.1218V9.87819C20.133 9.16147 19.5417 8.56941 18.826 8.56941H16.5856Z" fill="#363636"/>
</svg>
