<svg width="44" height="44" viewBox="0 0 44 44" fill="none" xmlns="http://www.w3.org/2000/svg">
<path d="M21.8947 0.00270746C25.3283 0.00270746 28.5946 0.800823 31.525 2.22856C31.9845 2.43835 32.4469 2.69096 32.9052 2.9438L30.8968 4.75254L27.8833 1.59899L22.6929 6.22174L19.636 2.90239L10.09 11.5185L16.2025 18.2843L13.816 20.383L19.8454 27.1489L17.4589 29.2504L26.0857 38.8745L31.1905 34.166L35.6303 39.2115C34.7505 39.8839 33.7877 40.5576 32.7421 41.1444C29.56 42.9533 25.8749 44 21.9382 44C9.83849 44 0.000128401 34.1273 0.000128401 21.982C-0.0409876 9.92085 9.79767 0 21.8961 0L21.8947 0.00270746ZM17.8751 20.6358L23.1103 15.9273L27.7991 21.1825L22.5637 25.8882L17.8751 20.6343V20.6358ZM21.601 29.7143L26.7955 24.9645L31.525 30.2184L26.2896 34.9268L21.601 29.7143ZM14.1519 11.6841L19.3831 6.97839L24.0745 12.2309L18.8392 16.9394L14.1519 11.6841ZM23.7386 9.16426L27.6304 5.63358L31.1484 9.54124L27.2524 13.1133L23.7359 9.16426H23.7386ZM30.6873 25.3428L34.5791 21.8135L38.097 25.7626L34.2025 29.2947L30.6873 25.3428ZM34.1195 33.2864L38.0141 29.7557L41.5293 33.6634L37.636 37.2355L34.1195 33.2864ZM35.7105 15.1293L38.3078 12.7778L40.6508 15.3833L38.0562 17.7361L35.7105 15.1293ZM32.3613 7.35536L34.9586 4.96118L37.3043 7.60939L34.707 9.9636L32.3626 7.3568L32.3613 7.35536ZM39.0204 22.9072L41.6149 20.5529L44 23.1585L41.362 25.5113L39.0204 22.9072ZM27.3394 17.0637L31.2326 13.5344L34.7491 17.4421L30.8573 20.9728L27.3394 17.0637Z" fill="#006CB4"/>
</svg>
