<svg width="24" height="24" viewBox="0 0 24 24" fill="none" xmlns="http://www.w3.org/2000/svg">
<path fill-rule="evenodd" clip-rule="evenodd" d="M22.8 21.6C23.4627 21.6 24 22.1373 24 22.8C24 23.4627 23.4627 24 22.8 24H1.2C0.537258 24 0 23.4627 0 22.8C0 22.1373 0.537258 21.6 1.2 21.6H22.8ZM5.15147 13.5515L18.3515 0.351472C18.7841 -0.0811089 19.4647 -0.114384 19.9355 0.251646L20.0485 0.351472L23.6485 3.95147C24.0811 4.38405 24.1144 5.06473 23.7484 5.53548L23.6485 5.64853L10.4485 18.8485C10.261 19.0361 10.0178 19.1551 9.75773 19.1896L9.6 19.2H6C5.3846 19.2 4.87739 18.7368 4.80807 18.1399L4.8 18V14.4C4.8 14.1348 4.8878 13.8786 5.0473 13.6704L5.15147 13.5515L18.3515 0.351472L5.15147 13.5515ZM19.2 2.89717L7.2 14.8972V16.8001H9.10294L21.1029 4.80011L19.2 2.89717Z" fill="#363636"/>
</svg>
