<svg width="72" height="29" viewBox="0 0 72 29" fill="none" xmlns="http://www.w3.org/2000/svg">
<g clip-path="url(#clip0)">
<path d="M13.163 3.73882C12.3193 4.71836 10.9693 5.49096 9.61929 5.38059C9.45054 4.05614 10.1115 2.64891 10.8849 1.77973C11.7287 0.772597 13.2052 0.0551855 14.4005 0C14.5412 1.37964 13.9927 2.73168 13.163 3.73882ZM14.3865 5.64272C12.4318 5.53235 10.7584 6.73264 9.83023 6.73264C8.88804 6.73264 7.46773 5.69791 5.92085 5.7255C3.90992 5.75309 2.0396 6.8706 1.01304 8.65033C-1.09633 12.2098 0.464603 17.48 2.50367 20.3773C3.5021 21.8121 4.69742 23.3849 6.27242 23.3297C7.76304 23.2745 8.35367 22.3777 10.1537 22.3777C11.9677 22.3777 12.488 23.3297 14.063 23.3021C15.6943 23.2745 16.7209 21.8673 17.7193 20.4324C18.8584 18.8045 19.3224 17.2179 19.3505 17.1351C19.3224 17.1075 16.2005 15.9348 16.1724 12.403C16.1443 9.45052 18.6334 8.04329 18.7459 7.96051C17.3396 5.91865 15.1459 5.69791 14.3865 5.64272ZM25.6787 1.64177V23.1503H29.0818V15.7969H33.7927C38.0959 15.7969 41.1193 12.8996 41.1193 8.70552C41.1193 4.51142 38.1521 1.64177 33.9052 1.64177H25.6787ZM29.0818 4.45623H33.0052C35.9584 4.45623 37.6459 6.00143 37.6459 8.71932C37.6459 11.4372 35.9584 12.9962 32.9912 12.9962H29.0818V4.45623ZM47.3349 23.3159C49.4724 23.3159 51.4552 22.2536 52.3552 20.5704H52.4255V23.1503H55.5756V12.4443C55.5756 9.34015 53.0443 7.33968 49.149 7.33968C45.5349 7.33968 42.863 9.36774 42.7646 12.1546H45.8302C46.0834 10.8302 47.3349 9.96099 49.0505 9.96099C51.1318 9.96099 52.299 10.9129 52.299 12.6651V13.8516L48.0521 14.0999C44.1005 14.3344 41.963 15.921 41.963 18.6803C41.963 21.4672 44.1709 23.3159 47.3349 23.3159ZM48.249 20.7636C46.4349 20.7636 45.2818 19.9082 45.2818 18.5975C45.2818 17.2455 46.3927 16.4591 48.5162 16.3349L52.299 16.1004V17.3145C52.299 19.3287 50.5552 20.7636 48.249 20.7636ZM59.7802 29C63.099 29 64.6599 27.7583 66.024 23.9919L72.0005 7.54662H68.5412L64.5334 20.2531H64.463L60.4552 7.54662H56.8974L62.663 23.2055L62.3537 24.1575C61.8334 25.7716 60.9896 26.3925 59.4849 26.3925C59.2177 26.3925 58.6974 26.3649 58.4865 26.3373V28.9172C58.6834 28.9724 59.5271 29 59.7802 29Z" fill="black"/>
</g>
<defs>
<clipPath id="clip0">
<rect width="72" height="29" fill="white"/>
</clipPath>
</defs>
</svg>
