<svg width="30" height="32" viewBox="0 0 30 32" fill="none" xmlns="http://www.w3.org/2000/svg">
<path d="M16.3347 19.1428V16.8095L19.8214 14.9524C20.4901 14.619 20.7289 13.8095 20.3468 13.1428C20.108 12.7143 19.6781 12.4286 19.1527 12.4286C18.9139 12.4286 18.7229 12.4762 18.5318 12.5714L14.9496 14.4762L11.3675 12.5714C11.1764 12.4762 10.9376 12.4286 10.7465 12.4286C10.2689 12.4286 9.79129 12.7143 9.55248 13.1428C9.36143 13.4762 9.36143 13.8095 9.45695 14.1428C9.55248 14.4762 9.79129 14.7619 10.1256 14.9524L13.6123 16.8095V19.1428C13.6123 19.9048 14.2332 20.4762 14.9496 20.4762C15.7616 20.4762 16.3347 19.9048 16.3347 19.1428Z" fill="#CFD7DD"/>
<path d="M29.3739 7.52381L29.2784 7.47619L15.6661 0.142857C15.4273 0.0476191 15.2362 0 14.9974 0C14.7586 0 14.5675 0.0476191 14.3765 0.142857L0.716436 7.47619H0.668674L0.620911 7.52381C0.238812 7.76191 0 8.19048 0 8.66667V23.3333C0 23.8095 0.286574 24.2857 0.716436 24.5238L14.3765 31.8571C14.5675 31.9524 14.8063 32 14.9974 32C15.1884 32 15.4273 31.9524 15.6183 31.8571L29.2784 24.5238C29.7082 24.2857 29.9948 23.8571 29.9948 23.3333V8.66667C30.0426 8.19048 29.756 7.76191 29.3739 7.52381ZM13.66 25.4286V28.4286L2.67469 22.5238V10.9048L4.91953 12.0952C5.11058 12.1905 5.34939 12.2381 5.54044 12.2381C6.01806 12.2381 6.49569 11.9524 6.7345 11.5238C6.92555 11.1905 6.92555 10.8571 6.83002 10.5238C6.7345 10.1905 6.49569 9.90476 6.16135 9.71429L4.15533 8.61905L14.9974 2.85714L25.8395 8.66667L23.8334 9.76191C23.1648 10.0952 22.926 10.9048 23.3081 11.5714C23.5469 12 23.9767 12.2857 24.5021 12.2857C24.7409 12.2857 24.932 12.2381 25.123 12.1429L27.3679 10.9524V22.5714L16.3825 28.4762V25.4762C16.3825 24.7143 15.7616 24.1429 15.0452 24.1429C14.281 24.0952 13.66 24.7143 13.66 25.4286Z" fill="#CFD7DD"/>
</svg>
