<svg width="239" height="240" viewBox="0 0 239 240" fill="none" xmlns="http://www.w3.org/2000/svg">
<path d="M230.095 117.897C230.095 179.987 179.71 230.33 117.547 230.33C55.3846 230.33 5 179.987 5 117.897C5 55.8068 55.3846 5.46436 117.547 5.46436C179.71 5.46436 230.095 55.8068 230.095 117.897Z" fill="white" fill-opacity="0.9" stroke="#AD263A" stroke-width="10"/>
<path d="M103.482 178.931H46.6422L39.9916 197.096L30.0703 193.585L70.0318 76.152H80.0928L129.414 229.088H118.407L103.482 178.931ZM49.9099 168.633H100.129L75.0192 90.8627L49.9099 168.633Z" fill="#AD263A"/>
<path d="M165.444 159.513H129.07V229.088H118.407V76.152H159.081C172.438 76.152 182.871 79.846 190.381 87.234C197.891 94.6221 201.646 104.952 201.646 118.225C201.646 127.378 199.296 135.452 194.595 142.448C189.894 149.444 183.588 154.282 175.677 156.963L198.583 201.388L189.794 208.02L165.444 159.513ZM129.07 149.215H161.488C170.374 149.215 177.511 146.338 182.9 140.585C188.289 134.831 190.983 127.378 190.983 118.225C190.983 108.156 188.174 100.343 182.556 94.7855C176.938 89.2282 169.056 86.4495 158.909 86.4495H129.07V149.215Z" fill="#AD263A"/>
</svg>
