<?xml version="1.0" standalone="no"?>
<!DOCTYPE svg PUBLIC "-//W3C//DTD SVG 20010904//EN"
 "http://www.w3.org/TR/2001/REC-SVG-20010904/DTD/svg10.dtd">
<svg version="1.0" xmlns="http://www.w3.org/2000/svg"
 width="1280.000000pt" height="788.000000pt" viewBox="0 0 1280.000000 788.000000"
 preserveAspectRatio="xMidYMid meet">
<metadata>
Created by potrace 1.16, written by Peter Selinger 2001-2019
</metadata>
<g transform="translate(0.000000,788.000000) scale(0.100000,-0.100000)"
fill="#000000" stroke="none">
<path d="M6202 7865 c-231 -52 -417 -157 -571 -321 -65 -70 -314 -332 -474
-501 -48 -51 -127 -134 -175 -185 -49 -51 -130 -137 -180 -190 -51 -54 -132
-139 -180 -190 -125 -132 -254 -268 -358 -377 -49 -52 -100 -106 -114 -121
-14 -15 -95 -100 -180 -190 -85 -90 -166 -176 -180 -190 -14 -15 -67 -71 -117
-124 -51 -53 -133 -139 -182 -192 -50 -52 -131 -137 -180 -190 -50 -52 -130
-136 -178 -187 -49 -51 -162 -171 -253 -267 -91 -96 -205 -217 -255 -269 -96
-102 -217 -229 -356 -376 -168 -178 -275 -291 -361 -380 -48 -50 -96 -102
-108 -115 -12 -14 -63 -68 -113 -120 -78 -80 -342 -359 -427 -450 -14 -15 -65
-69 -115 -121 -49 -52 -130 -138 -180 -190 -49 -52 -130 -138 -180 -190 -49
-52 -130 -137 -180 -189 -378 -398 -416 -443 -489 -593 -83 -169 -116 -318
-116 -525 0 -247 53 -429 186 -638 152 -239 406 -414 683 -470 127 -25 355
-16 476 20 160 47 311 134 442 252 17 16 280 292 584 614 614 650 696 737 814
860 45 47 776 819 1625 1715 848 897 1554 1641 1567 1655 l24 25 47 -52 c26
-28 117 -124 202 -214 85 -89 166 -175 180 -189 14 -15 95 -100 180 -190 85
-90 166 -175 180 -190 14 -15 65 -69 114 -121 114 -120 246 -259 355 -374 47
-50 128 -136 180 -190 52 -55 134 -142 183 -193 48 -51 127 -134 175 -185 49
-51 162 -171 253 -267 91 -96 204 -216 253 -267 48 -51 128 -135 178 -187 49
-53 130 -138 180 -190 49 -53 131 -139 182 -192 50 -53 103 -109 117 -124 50
-53 337 -357 426 -450 110 -116 244 -257 367 -387 50 -54 133 -141 182 -193
156 -164 258 -272 351 -370 50 -52 142 -150 205 -216 64 -67 137 -140 163
-163 115 -100 245 -170 401 -217 84 -26 102 -28 280 -28 180 0 195 1 280 28
370 114 644 401 751 787 32 117 44 357 25 489 -26 177 -108 372 -216 515 -51
68 -5320 5637 -5452 5763 -131 125 -292 217 -459 262 -103 29 -366 37 -462 15z"/>
</g>
</svg>
