<svg width="24" height="24" viewBox="0 0 24 24" fill="none" xmlns="http://www.w3.org/2000/svg">
<path fill-rule="evenodd" clip-rule="evenodd" d="M3.6 24C1.61177 24 0 22.3882 0 20.4V6C0 4.01178 1.61177 2.4 3.6 2.4H4.8V1.2C4.8 0.537258 5.33726 0 6 0C6.66274 0 7.2 0.537258 7.2 1.2V2.4H16.8V1.2C16.8 0.537258 17.3373 0 18 0C18.6627 0 19.2 0.537258 19.2 1.2V2.4H20.4C22.3882 2.4 24 4.01178 24 6V20.4C24 22.3882 22.3882 24 20.4 24H3.6ZM7.2 18H2.4V20.4C2.4 21.0627 2.93726 21.6 3.6 21.6H7.2V18ZM14.4 18H9.6V21.6H14.4V18ZM21.6 18H16.8V21.6H20.4C21.0627 21.6 21.6 21.0627 21.6 20.4V18ZM7.2 12H2.4V15.6H7.2V12ZM14.4 12H9.6V15.6H14.4V12ZM21.6 12H16.8V15.6H21.6V12ZM4.8 4.8H3.6C2.93726 4.8 2.4 5.33726 2.4 6V9.6H21.6V6C21.6 5.33726 21.0627 4.8 20.4 4.8H19.2V6C19.2 6.66274 18.6627 7.2 18 7.2C17.3373 7.2 16.8 6.66274 16.8 6V4.8H7.2V6C7.2 6.66274 6.66274 7.2 6 7.2C5.33726 7.2 4.8 6.66274 4.8 6V4.8Z" fill="#CFD7DD"/>
</svg>
