<svg width="17" height="27" viewBox="0 0 17 27" fill="none" xmlns="http://www.w3.org/2000/svg">
<path d="M15.1111 1.92857V0.904018C15.1111 0.403795 14.6448 0 14.0672 0H2.93275C2.35514 0 1.88889 0.403795 1.88889 0.904018V1.92857H15.1111Z" fill="#CFD7DD"/>
<path d="M5.95 24.08C5.95 23.654 6.28828 23.3086 6.70556 23.3086H10.1528C10.5701 23.3086 10.9083 23.654 10.9083 24.08V26.2286C10.9083 26.6546 10.5701 27 10.1528 27H6.70556C6.28828 27 5.95 26.6546 5.95 26.2286V24.08Z" fill="#CFD7DD"/>
<path d="M15.9375 3.85714H1.0625C0.474583 3.85714 0 4.20171 0 4.62857V26.2286C0 26.6546 0.338274 27 0.755556 27H3.06945C3.48673 27 3.825 26.6546 3.825 26.2286V22.6286C3.825 22.2017 4.29958 21.8571 4.8875 21.8571H11.9708C12.5587 21.8571 13.0333 22.2017 13.0333 22.6286V26.2286C13.0333 26.6546 13.3716 27 13.7889 27H16.2444C16.6617 27 17 26.6546 17 26.2286V4.62857C17 4.20171 16.5254 3.85714 15.9375 3.85714ZM5.24167 18.5143C5.24167 18.9411 4.76708 19.2857 4.17917 19.2857C3.59125 19.2857 3.11667 18.9411 3.11667 18.5143V16.9714C3.11667 16.5446 3.59125 16.2 4.17917 16.2C4.76708 16.2 5.24167 16.5446 5.24167 16.9714V18.5143ZM5.24167 13.8857C5.24167 14.3126 4.76708 14.6571 4.17917 14.6571C3.59125 14.6571 3.11667 14.3126 3.11667 13.8857V12.3429C3.11667 11.916 3.59125 11.5714 4.17917 11.5714C4.76708 11.5714 5.24167 11.916 5.24167 12.3429V13.8857ZM5.24167 9.25714C5.24167 9.684 4.76708 10.0286 4.17917 10.0286C3.59125 10.0286 3.11667 9.684 3.11667 9.25714V7.71429C3.11667 7.28743 3.59125 6.94286 4.17917 6.94286C4.76708 6.94286 5.24167 7.28743 5.24167 7.71429V9.25714ZM9.49167 18.5143C9.49167 18.9411 9.01708 19.2857 8.42917 19.2857C7.84125 19.2857 7.36667 18.9411 7.36667 18.5143V16.9714C7.36667 16.5446 7.84125 16.2 8.42917 16.2C9.01708 16.2 9.49167 16.5446 9.49167 16.9714V18.5143ZM9.49167 13.8857C9.49167 14.3126 9.01708 14.6571 8.42917 14.6571C7.84125 14.6571 7.36667 14.3126 7.36667 13.8857V12.3429C7.36667 11.916 7.84125 11.5714 8.42917 11.5714C9.01708 11.5714 9.49167 11.916 9.49167 12.3429V13.8857ZM9.49167 9.25714C9.49167 9.684 9.01708 10.0286 8.42917 10.0286C7.84125 10.0286 7.36667 9.684 7.36667 9.25714V7.71429C7.36667 7.28743 7.84125 6.94286 8.42917 6.94286C9.01708 6.94286 9.49167 7.28743 9.49167 7.71429V9.25714ZM13.7417 18.5143C13.7417 18.9411 13.2671 19.2857 12.6792 19.2857C12.0913 19.2857 11.6167 18.9411 11.6167 18.5143V16.9714C11.6167 16.5446 12.0913 16.2 12.6792 16.2C13.2671 16.2 13.7417 16.5446 13.7417 16.9714V18.5143ZM13.7417 13.8857C13.7417 14.3126 13.2671 14.6571 12.6792 14.6571C12.0913 14.6571 11.6167 14.3126 11.6167 13.8857V12.3429C11.6167 11.916 12.0913 11.5714 12.6792 11.5714C13.2671 11.5714 13.7417 11.916 13.7417 12.3429V13.8857ZM13.7417 9.25714C13.7417 9.684 13.2671 10.0286 12.6792 10.0286C12.0913 10.0286 11.6167 9.684 11.6167 9.25714V7.71429C11.6167 7.28743 12.0913 6.94286 12.6792 6.94286C13.2671 6.94286 13.7417 7.28743 13.7417 7.71429V9.25714Z" fill="#CFD7DD"/>
</svg>
