<svg width="10" height="10" viewBox="0 0 10 10" fill="none" xmlns="http://www.w3.org/2000/svg">
<path fill-rule="evenodd" clip-rule="evenodd" d="M5 10C7.76142 10 10 7.76142 10 5C10 2.23858 7.76142 0 5 0C2.23858 0 0 2.23858 0 5C0 7.76142 2.23858 10 5 10ZM4.99995 8.88892C2.85218 8.88892 1.11106 7.1478 1.11106 5.00003C1.11106 2.85225 2.85218 1.11114 4.99995 1.11114C7.14773 1.11114 8.88884 2.85225 8.88884 5.00003C8.88884 7.1478 7.14773 8.88892 4.99995 8.88892ZM5 2.22222C5.30682 2.22222 5.55556 2.47095 5.55556 2.77778V4.21433L6.50395 5.16272C6.72091 5.37968 6.72091 5.73144 6.50395 5.94839C6.28699 6.16535 5.93523 6.16535 5.71827 5.94839L4.60716 4.83728C4.50298 4.7331 4.44444 4.59179 4.44444 4.44444V2.77778C4.44444 2.47095 4.69318 2.22222 5 2.22222Z" fill="#C0C8CE"/>
</svg>
