<svg width="11" height="11" viewBox="0 0 11 11" fill="none" xmlns="http://www.w3.org/2000/svg">
<path fill-rule="evenodd" clip-rule="evenodd" d="M6.79295 5.50018L10.7321 1.56166C11.0893 1.20442 11.0893 0.62518 10.7321 0.267934C10.3748 -0.0893114 9.79562 -0.0893114 9.43912 0.267934L5.5 4.20719L1.56088 0.267934C1.20364 -0.0893114 0.625159 -0.0893114 0.267925 0.267934C-0.0893084 0.62518 -0.0893084 1.20442 0.267925 1.56166L4.20705 5.50018L0.267925 9.43944C-0.0893084 9.79669 -0.0893084 10.3752 0.267925 10.7324C0.446542 10.9111 0.681022 11 0.914768 11C1.14851 11 1.38226 10.9111 1.56088 10.7324L5.5 6.79318L9.43912 10.7324C9.61774 10.9111 9.85149 11 10.0852 11C10.319 11 10.5535 10.9111 10.7321 10.7324C11.0893 10.3752 11.0893 9.79669 10.7321 9.43944L6.79295 5.50018Z" fill="white"/>
</svg>
