<svg width="22" height="17" viewBox="0 0 22 17" fill="none" xmlns="http://www.w3.org/2000/svg">
<path d="M3.17847 16.9686C1.43343 16.9686 0 15.6174 0 13.9205V3.07948C0 1.38262 1.43343 0 3.17847 0H18.8527C20.5666 0 22 1.38262 22 3.07948V13.9205C22 15.6174 20.5666 17 18.8215 17H3.17847V16.9686ZM1.86969 13.9205C1.86969 14.6118 2.46176 15.2089 3.17847 15.2089H18.8527C19.5694 15.2089 20.1615 14.6433 20.1615 13.9205V3.01664L11.6544 10.244C11.4986 10.4011 11.2805 10.464 11.0312 10.464C10.8442 10.464 10.6572 10.4011 10.5014 10.3068L10.4079 10.244L1.86969 3.01664V13.9205ZM11 8.39002L18.7592 1.79113H3.24079L11 8.39002Z" fill="#363636"/>
</svg>
