<svg width="10" height="20" viewBox="0 0 10 20" fill="none" xmlns="http://www.w3.org/2000/svg">
<path d="M0.31933 10.652H2.4893V19.6774C2.4893 19.8556 2.6322 20 2.80859 20H6.48787C6.66426 20 6.80716 19.8556 6.80716 19.6774V10.6945H9.30176C9.46396 10.6945 9.60044 10.5716 9.61896 10.4088L9.99784 7.08609C10.0082 6.99469 9.97959 6.90313 9.91904 6.83453C9.85845 6.7659 9.77172 6.7266 9.68071 6.7266H6.80732V4.64375C6.80732 4.0159 7.14192 3.6975 7.802 3.6975C7.89607 3.6975 9.68071 3.6975 9.68071 3.6975C9.8571 3.6975 10 3.55305 10 3.37492V0.324961C10 0.146758 9.8571 0.00238281 9.68071 0.00238281H7.09154C7.07329 0.00148437 7.03273 0 6.97295 0C6.52371 0 4.96217 0.0891015 3.72865 1.23555C2.36194 2.50602 2.55194 4.02715 2.59733 4.2909V6.72652H0.319292C0.142904 6.72652 0 6.8709 0 7.0491V10.3294C3.86645e-05 10.5075 0.142943 10.652 0.31933 10.652Z" fill="#3A5694"/>
</svg>
