<svg width="22" height="22" viewBox="0 0 22 22" fill="none" xmlns="http://www.w3.org/2000/svg">
<path d="M13.0529 5.7298C12.3175 5.7298 11.6128 5.94429 11 6.31198C10.3872 5.94429 9.68245 5.7298 8.94707 5.7298C7.93593 5.7298 7.01671 6.09749 6.31198 6.77159C5.60724 7.44568 5.20891 8.3649 5.20891 9.3454C5.20891 10.3259 5.60724 11.2145 6.31198 11.9192L10.8162 16.2089L11.0306 16.4234L11.2451 16.2089L15.7493 11.9192C16.454 11.2451 16.8524 10.3259 16.8524 9.3454C16.8524 8.3649 16.454 7.47632 15.7493 6.77159C14.9833 6.09749 14.0641 5.7298 13.0529 5.7298ZM7.47632 7.99721C7.87465 7.62953 8.39554 7.41504 8.94707 7.41504C9.49861 7.41504 10.0195 7.62953 10.4178 7.99721L10.8162 8.3649L11.0306 8.57939L11.2451 8.3649L11.6435 7.99721C12.0418 7.62953 12.5627 7.41504 13.1142 7.41504C13.6657 7.41504 14.1866 7.62953 14.585 7.99721C14.9526 8.3649 15.1671 8.82451 15.1671 9.3454C15.1671 9.86629 14.9526 10.3259 14.585 10.6936L11 14.0334L7.47632 10.6936C7.10863 10.3259 6.89415 9.86629 6.89415 9.3454C6.89415 8.82451 7.10863 8.3649 7.47632 7.99721Z" fill="#363636"/>
<path d="M11 0C4.93315 0 0 4.93315 0 11C0 17.0669 4.93315 22 11 22C17.0669 22 22 17.0669 22 11C22 4.93315 17.0669 0 11 0ZM11 20.1616C5.94429 20.1616 1.83844 16.0557 1.83844 11C1.83844 5.94429 5.94429 1.83844 11 1.83844C16.0557 1.83844 20.1616 5.94429 20.1616 11C20.1616 16.0557 16.0557 20.1616 11 20.1616Z" fill="#363636"/>
</svg>
