<svg width="24" height="24" viewBox="0 0 24 24" fill="none" xmlns="http://www.w3.org/2000/svg">
<path d="M8.41848 14.7504L0.201458 1.8438C-0.335164 1.03923 0.268536 0 1.20762 0H22.8067C23.7457 0 24.3159 1.03923 23.8128 1.8438L15.5958 14.7504V20.3824C15.5958 20.8517 15.3275 21.254 14.925 21.4551L10.129 23.8688C9.32403 24.2711 8.38494 23.7012 8.38494 22.7961V14.7504H8.41848ZM3.38765 2.4137L10.632 13.7447C10.7662 13.9458 10.8333 14.147 10.8333 14.3817V20.8517L13.2481 19.6449V14.3817C13.2481 14.147 13.3152 13.9458 13.4493 13.7447L20.6266 2.4137H3.38765Z" fill="#363636"/>
</svg>
