<svg width="26" height="26" viewBox="0 0 26 26" fill="none" xmlns="http://www.w3.org/2000/svg">
<path fill-rule="evenodd" clip-rule="evenodd" d="M13 0C20.1797 0 26 5.8203 26 13C26 20.1797 20.1797 26 13 26C5.8203 26 0 20.1797 0 13C0 5.8203 5.8203 0 13 0ZM13.0002 2.60003C7.2564 2.60003 2.60016 7.25626 2.60016 13C2.60016 18.7438 7.2564 23.4 13.0002 23.4C18.7439 23.4 23.4002 18.7438 23.4002 13C23.4002 7.25626 18.7439 2.60003 13.0002 2.60003ZM13.0001 18.1999C13.718 18.1999 14.3001 18.7819 14.3001 19.4999C14.3001 20.2179 13.718 20.7999 13.0001 20.7999C12.2821 20.7999 11.7001 20.2179 11.7001 19.4999C11.7001 18.7819 12.2821 18.1999 13.0001 18.1999ZM12.9999 5.19992C15.8718 5.19992 18.1999 7.52804 18.1999 10.3999C18.1999 12.7332 16.6632 14.7075 14.5467 15.366L14.2999 15.4361V15.5999C14.2999 16.3179 13.7179 16.8999 12.9999 16.8999C12.3333 16.8999 11.7838 16.3981 11.7087 15.7515L11.6999 15.5999V14.2999C11.6999 13.6332 12.2018 13.0838 12.8483 13.0087L13.194 12.9928C14.5393 12.8935 15.5999 11.7706 15.5999 10.3999C15.5999 8.96398 14.4359 7.79992 12.9999 7.79992C11.564 7.79992 10.3999 8.96398 10.3999 10.3999C10.3999 11.1179 9.81792 11.6999 9.09995 11.6999C8.38198 11.6999 7.79995 11.1179 7.79995 10.3999C7.79995 7.52804 10.1281 5.19992 12.9999 5.19992Z" fill="#363636"/>
</svg>
