<svg width="15" height="12" viewBox="0 0 15 12" fill="none" xmlns="http://www.w3.org/2000/svg">
<path d="M12.0779 0.761905C12.0779 0.333333 12.0779 0.047619 12.0779 0.047619H7.5487L3.01948 0C3.01948 0 3.01948 0.285714 3.01948 0.714286H0V1.19048C0 1.28571 0 3.90476 1.65584 5.33333C2.33766 5.90476 3.21429 6.2381 4.18831 6.2381C4.33442 6.2381 4.48052 6.2381 4.67532 6.2381C5.25974 7 5.89286 7.52381 6.62338 7.80952V9.90476H4.48052V11.2381H3.75V12H7.5H7.5487H11.2987V11.2381H10.5682V9.90476H8.37662V7.80952C9.10714 7.52381 9.78896 7 10.3247 6.2381C10.4708 6.2381 10.6169 6.2381 10.8117 6.2381C11.8344 6.2381 12.6623 5.95238 13.3442 5.33333C15 3.90476 15 1.33333 15 1.19048V0.714286H12.0779V0.761905ZM2.33766 4.61905C1.36364 3.80952 1.12013 2.42857 1.02273 1.71429H3.06818C3.11688 2.61905 3.31169 3.7619 3.7987 4.7619C3.8961 4.95238 3.99351 5.09524 4.04221 5.28571C3.36039 5.2381 2.77597 5.04762 2.33766 4.61905ZM12.7597 4.61905C12.2727 5 11.6883 5.23809 11.0065 5.23809C11.1039 5.04762 11.2013 4.90476 11.25 4.71429C11.737 3.71429 11.9318 2.57143 11.9805 1.66667H14.026C13.9773 2.42857 13.6851 3.80952 12.7597 4.61905Z" fill="#363636"/>
</svg>
