<svg width="32" height="32" viewBox="0 0 32 32" fill="none" xmlns="http://www.w3.org/2000/svg">
<path d="M30.6522 14.6522C29.913 14.6522 29.3043 15.2609 29.3043 16C29.3043 23.3478 23.3478 29.3043 16 29.3043C8.65217 29.3043 2.69565 23.3478 2.69565 16C2.69565 8.65217 8.65217 2.69565 16 2.69565C19.087 2.69565 22.0435 3.73913 24.4348 5.69565L22.1739 7.95652C20.3913 6.6087 18.2609 5.86957 16 5.86957C10.4348 5.86957 5.86957 10.4348 5.86957 16C5.86957 21.5652 10.4348 26.1739 16 26.1739C21.6087 26.1739 26.1304 21.6087 26.1304 16.0435C26.1304 15.3043 25.5217 14.6957 24.7826 14.6957C24.0435 14.6957 23.4348 15.3043 23.4348 16.0435C23.4783 20.1304 20.1304 23.4783 16 23.4783C11.913 23.4783 8.56522 20.1304 8.56522 16.0435C8.56522 11.9565 11.913 8.6087 16 8.6087C17.5217 8.6087 19 9.04348 20.2174 9.91304L17.913 12.1739C17.3043 11.8696 16.6522 11.7391 16 11.7391C13.6522 11.7391 11.7391 13.6522 11.7391 16C11.7391 18.3478 13.6522 20.2609 16 20.2609C18.3478 20.2609 20.2609 18.3478 20.2609 16C20.2609 15.3478 20.087 14.6522 19.8261 14.087L27.3043 6.6087C27.5652 6.34783 27.6957 6 27.6957 5.65217C27.6957 5.30435 27.5652 4.95652 27.3043 4.69565C24.2609 1.65217 20.2609 0 16 0C11.7391 0 7.69565 1.65217 4.69565 4.69565C1.65217 7.69565 0 11.7391 0 16C0 20.2609 1.65217 24.3043 4.69565 27.3043C7.73913 30.3478 11.7391 32 16 32C20.2609 32 24.3043 30.3478 27.3043 27.3043C30.3478 24.2609 32 20.2609 32 16C32 15.2609 31.3913 14.6522 30.6522 14.6522ZM16 17.6087C15.1304 17.6087 14.4348 16.913 14.4348 16.0435C14.4348 15.1739 15.1304 14.4783 16 14.4783C16.4348 14.4783 16.8261 14.6522 17.1304 14.9565C17.4348 15.2609 17.6087 15.6522 17.6087 16.087C17.6087 16.8696 16.8696 17.6087 16 17.6087Z" fill="#CFD7DD"/>
</svg>
