<svg width="32" height="32" viewBox="0 0 32 32" fill="none" xmlns="http://www.w3.org/2000/svg">
<path d="M12.1529 0.938839C12.1484 0.93803 12.1459 0.937551 12.1447 0.937317L12.1398 0.935914C12.1285 0.932708 12.1196 0.929525 12.1069 0.924992C12.1007 0.922774 12.0936 0.920233 12.0848 0.917208C12.0642 0.910045 12.0368 0.901179 12.005 0.895685C11.9544 0.881999 11.9053 0.875003 11.8658 0.869363L11.8624 0.868875L11.8624 0.868504L11.8519 0.867749C11.7569 0.860963 11.6618 0.860963 11.5668 0.867749L11.5668 0.867375L11.5563 0.868875L11.5529 0.869363C11.511 0.875345 11.4584 0.882852 11.4045 0.898249L11.4026 0.898782C11.36 0.910951 11.3135 0.924248 11.2727 0.93784V0.937841C11.2722 0.937961 11.2706 0.938346 11.2656 0.939333L11.2646 0.93954C11.2564 0.941164 11.2409 0.944263 11.2225 0.950395L11.2156 0.952682L11.209 0.955618L1.57312 5.23685L1.57312 5.23684L1.57145 5.2376C1.13654 5.43723 0.85 5.87259 0.85 6.35321V29.9251C0.85 30.3387 1.0567 30.7256 1.40796 30.9486C1.75388 31.1784 2.19022 31.2052 2.56631 31.042L2.56751 31.0414L11.7156 26.9756L20.8638 31.0414L20.8704 31.0444L20.8772 31.0467C20.8935 31.0521 20.9077 31.0546 20.9185 31.056C21.2076 31.1816 21.5435 31.1777 21.8289 31.0433C21.8465 31.0417 21.8791 31.037 21.9138 31.0169L30.477 26.7322C30.8926 26.5244 31.15 26.1016 31.15 25.6376V2.07198C31.15 1.39221 30.5989 0.848535 29.9266 0.848535C29.7353 0.848535 29.5484 0.890967 29.3812 0.977942C29.3809 0.978141 29.3805 0.978341 29.3801 0.978542L21.3227 5.00722L12.2116 0.956471C12.1972 0.949741 12.1843 0.945924 12.1755 0.94367C12.1661 0.941241 12.1573 0.939647 12.1529 0.938851L12.1529 0.938839ZM10.4922 3.94747V24.8433L3.29062 28.0433V7.1475L10.4922 3.94747ZM20.1344 7.1475V28.0433L12.9328 24.8433V3.94747L20.1344 7.1475ZM28.7031 4.04727V24.8857L22.575 27.9498V7.11133L28.7031 4.04727Z" fill="#CFD7DD" stroke="#CFD7DD" stroke-width="0.3"/>
</svg>
