<svg width="16" height="29" viewBox="0 0 16 29" fill="none" xmlns="http://www.w3.org/2000/svg">
<path d="M4.05635 13.2478H11.9812C13.5963 13.2478 14.8733 11.9775 14.8733 10.4531V2.79474C14.8733 1.23404 13.5587 0 11.9812 0H4.05635C2.47889 0 1.16433 1.27034 1.16433 2.79474V10.4531C1.16433 11.9775 2.47889 13.2478 4.05635 13.2478ZM3.04227 2.79474C3.04227 2.25031 3.49297 1.81477 4.05635 1.81477H11.9812C12.5446 1.81477 12.9953 2.25031 12.9953 2.79474V10.4531C12.9953 10.9975 12.5446 11.433 11.9812 11.433H4.05635C3.49297 11.433 3.04227 10.9975 3.04227 10.4531V2.79474Z" fill="#363636"/>
<path d="M8 13.5019C3.60563 13.5019 0 16.9862 0 21.2691C0 25.5519 3.60563 29 8 29C12.3944 29 16 25.5156 16 21.2691C16 17.0225 12.4319 13.5019 8 13.5019ZM8 27.1852C4.61972 27.1852 1.87793 24.5357 1.87793 21.2691C1.87793 18.0025 4.61972 15.353 8 15.353C11.3803 15.353 14.1221 18.0025 14.1221 21.2691C14.1221 24.5357 11.4178 27.1852 8 27.1852Z" fill="#363636"/>
<path d="M8 16.7322C5.40845 16.7322 3.30516 18.7647 3.30516 21.2691C3.30516 23.7735 5.40845 25.806 8 25.806C10.5915 25.806 12.6948 23.7735 12.6948 21.2691C12.6948 18.7647 10.5915 16.7322 8 16.7322ZM8 23.9912C6.46009 23.9912 5.1831 22.7572 5.1831 21.2691C5.1831 19.781 6.46009 18.5469 8 18.5469C9.53991 18.5469 10.8169 19.781 10.8169 21.2691C10.8169 22.7572 9.57746 23.9912 8 23.9912Z" fill="#363636"/>
</svg>
