<svg width="21" height="25" viewBox="0 0 21 25" fill="none" xmlns="http://www.w3.org/2000/svg">
<path fill-rule="evenodd" clip-rule="evenodd" d="M19.6875 11.2292C20.4124 11.2292 21 11.7878 21 12.4769C21 17.5665 16.9927 21.7665 11.8138 22.381L11.8125 23.706C11.8125 24.3951 11.2249 24.9537 10.5 24.9537C9.77513 24.9537 9.1875 24.3951 9.1875 23.706L9.18756 22.3811C4.008 21.7672 0 17.567 0 12.4769C0 11.7878 0.587626 11.2292 1.3125 11.2292C2.03737 11.2292 2.625 11.7878 2.625 12.4769C2.625 16.6113 6.15076 19.963 10.5 19.963C14.8492 19.963 18.375 16.6113 18.375 12.4769C18.375 11.7878 18.9626 11.2292 19.6875 11.2292ZM10.5 0C13.3995 0 15.75 2.23443 15.75 4.99075V12.4769C15.75 15.2332 13.3995 17.4676 10.5 17.4676C7.6005 17.4676 5.25 15.2332 5.25 12.4769V4.99075C5.25 2.23443 7.6005 0 10.5 0ZM10.5 2.49537C9.05025 2.49537 7.875 3.61259 7.875 4.99075V12.4769C7.875 13.855 9.05025 14.9722 10.5 14.9722C11.9497 14.9722 13.125 13.855 13.125 12.4769V4.99075C13.125 3.61259 11.9497 2.49537 10.5 2.49537Z" fill="#363636"/>
</svg>
