<svg width="8" height="14" viewBox="0 0 8 14" fill="none" xmlns="http://www.w3.org/2000/svg">
<path d="M0.0311377 7.73031L0.945302 5.49535C0.9803 5.40889 1.0321 5.3282 1.0951 5.26047L2.88563 3.31371C2.96682 3.21716 3.13762 3.04136 3.40921 2.92753C3.6346 2.83386 3.83339 2.82378 3.95238 2.82666C3.95238 2.82666 3.95238 2.82666 3.95378 2.82666C4.06018 2.8353 4.31637 2.87277 4.56836 3.06586C4.57116 3.0673 4.57396 3.07018 4.57676 3.07162C4.83575 3.27336 4.97014 3.6019 4.94074 3.93477C4.83855 5.10052 4.81895 6.31382 4.61736 7.40176C4.59356 7.53001 4.62296 7.66402 4.69855 7.76921L6.1377 9.78514C6.24549 9.93644 6.28329 10.1295 6.23849 10.3111L5.56512 13.1037C5.53572 13.2248 5.60432 13.3472 5.72051 13.3833L6.47508 13.6167C6.53668 13.6354 6.57308 13.7003 6.55768 13.7651C6.52548 13.902 6.40649 14 6.26929 14H4.51096C4.36397 14 4.23937 13.8905 4.21697 13.7406L4.21557 13.7349C4.20437 13.6628 4.20577 13.5893 4.21697 13.5173L4.72095 10.4624C4.72095 10.4581 4.72095 10.4538 4.71815 10.4509L2.80863 8.29661C2.62524 8.09055 2.53144 7.81532 2.54964 7.53721L2.64903 5.90603C2.65183 5.85415 2.67283 5.80372 2.70923 5.76625L3.489 4.93193C3.545 4.87285 3.5772 4.79359 3.5786 4.71146V4.69128C3.58 4.66246 3.5618 4.63653 3.5352 4.63076C3.4512 4.61059 3.36161 4.63365 3.29581 4.69273L1.95186 5.89306C1.86927 5.9579 1.80347 6.04148 1.75867 6.13658L0.829106 8.11505C0.72691 8.33263 0.463721 8.41189 0.263529 8.28364L0.187932 8.23465C0.0213381 8.12946 -0.0444594 7.91475 0.0311377 7.73031Z" fill="#C0C8CE"/>
<path d="M5.48252 6.26195C5.37053 6.12362 5.20533 5.919 5.12274 5.81092C5.08634 5.76337 5.06954 5.70429 5.07514 5.64521C5.09894 5.37143 5.16754 4.56015 5.19973 4.19703C5.20533 4.13939 5.27813 4.12066 5.30893 4.17109L5.93471 5.20139C5.9571 5.23886 5.9977 5.26191 6.0411 5.26191H7.56284C7.79383 5.26191 7.98283 5.44924 7.99263 5.68556L7.99963 5.85992C8.00943 6.10344 7.82603 6.3095 7.58804 6.31959C7.05326 6.34264 6.1615 6.38155 5.78071 6.3974C5.66592 6.40317 5.55672 6.35273 5.48252 6.26195Z" fill="#C0C8CE"/>
<path d="M0.794108 12.67C0.806707 12.6267 0.820707 12.585 0.837506 12.5432L1.61168 10.5878C1.64387 10.5071 1.68027 10.4278 1.72087 10.35L2.59304 8.70873C2.61684 8.6655 2.67423 8.6583 2.70643 8.69432L3.5912 9.67563C3.6416 9.73182 3.6528 9.81252 3.6178 9.88025L1.96026 13.1959C1.90286 13.3098 1.96726 13.4495 2.08906 13.4769L2.77363 13.6311C2.86603 13.6513 2.92202 13.7493 2.89403 13.8429C2.86603 13.9366 2.78203 14 2.68683 14H0.848705C0.770309 14 0.697512 13.9597 0.654113 13.8919C0.563117 13.7507 0.536518 13.5749 0.582716 13.4121L0.794108 12.67Z" fill="#C0C8CE"/>
<path d="M4.29817 2.62348C3.90759 2.62348 3.538 2.44912 3.33361 2.08023C2.98502 1.47214 3.02562 0.364028 3.74379 0.103211C4.09238 -0.0264773 4.52356 -0.049533 4.87215 0.124825C5.18014 0.277569 5.32433 0.560001 5.36493 0.907276C5.44753 1.64506 5.09894 2.62348 4.29817 2.62348Z" fill="#C0C8CE"/>
</svg>
