<svg width="11" height="12" viewBox="0 0 11 12" fill="none" xmlns="http://www.w3.org/2000/svg">
<path d="M5.52274 2.41341C4.17629 2.41341 3.08087 3.48603 3.08087 4.80447C3.08087 6.1229 4.17629 7.21788 5.52274 7.21788C6.8692 7.21788 7.96462 6.14525 7.96462 4.80447C7.96462 3.46369 6.8692 2.41341 5.52274 2.41341ZM5.52274 6.01117C4.83811 6.01117 4.29039 5.47486 4.29039 4.80447C4.29039 4.13408 4.83811 3.59777 5.52274 3.59777C6.20738 3.59777 6.75509 4.13408 6.75509 4.80447C6.73227 5.47486 6.18456 6.01117 5.52274 6.01117ZM5.52274 2.41341C4.17629 2.41341 3.08087 3.48603 3.08087 4.80447C3.08087 6.1229 4.17629 7.21788 5.52274 7.21788C6.8692 7.21788 7.96462 6.14525 7.96462 4.80447C7.96462 3.46369 6.8692 2.41341 5.52274 2.41341ZM5.52274 6.01117C4.83811 6.01117 4.29039 5.47486 4.29039 4.80447C4.29039 4.13408 4.83811 3.59777 5.52274 3.59777C6.20738 3.59777 6.75509 4.13408 6.75509 4.80447C6.73227 5.47486 6.18456 6.01117 5.52274 6.01117ZM5.52274 0C2.5788 0 0.159749 2.23464 0 5.05028C0 5.13966 0 5.2514 0 5.34078C0 7.21788 1.55184 9.2067 4.56425 11.352C4.74682 11.486 4.95221 11.6201 5.1576 11.7542L5.49992 12L6.07045 11.5978C9.33389 9.34078 10.9998 7.28492 10.9998 5.34078C11.0227 2.39106 8.55797 0 5.52274 0ZM5.52274 10.5475C2.64726 8.53631 1.23235 6.77095 1.23235 5.34078C1.23235 3.03911 3.14933 1.18436 5.52274 1.18436C7.89615 1.18436 9.81314 3.03911 9.81314 5.34078C9.81314 6.7933 8.39822 8.53631 5.52274 10.5475ZM5.52274 2.41341C4.17629 2.41341 3.08087 3.48603 3.08087 4.80447C3.08087 6.1229 4.17629 7.21788 5.52274 7.21788C6.8692 7.21788 7.96462 6.14525 7.96462 4.80447C7.96462 3.46369 6.8692 2.41341 5.52274 2.41341ZM5.52274 6.01117C4.83811 6.01117 4.29039 5.47486 4.29039 4.80447C4.29039 4.13408 4.83811 3.59777 5.52274 3.59777C6.20738 3.59777 6.75509 4.13408 6.75509 4.80447C6.73227 5.47486 6.18456 6.01117 5.52274 6.01117Z" fill="#363636"/>
</svg>
