<svg width="11" height="14" viewBox="0 0 11 14" fill="none" xmlns="http://www.w3.org/2000/svg">
<path d="M7.77262 2.92095C8.68799 2.92095 9.087 1.8324 8.99312 1.00994C8.94617 0.622895 8.78188 0.308424 8.42981 0.139093C8.03081 -0.0544277 7.53791 -0.0302376 7.13891 0.114903C6.31742 0.405184 6.27048 1.63888 6.66949 2.3162C6.9042 2.72743 7.32667 2.92095 7.77262 2.92095Z" fill="#363636"/>
<path d="M7.98386 4.56587L7.44403 5.58185C7.42056 5.63023 7.42056 5.7028 7.4675 5.75118L8.07775 6.35593C8.1951 6.47688 8.38287 6.52526 8.57064 6.47688L10.73 5.79956C10.9412 5.72699 11.0351 5.50928 10.9882 5.31576L10.9412 5.14643C10.8708 4.95291 10.683 4.83196 10.4953 4.88034L8.75841 5.31576C8.71146 5.33995 8.64105 5.31576 8.61758 5.24319L8.24205 4.56587C8.14816 4.4691 8.03081 4.4691 7.98386 4.56587Z" fill="#363636"/>
<path d="M5.98883 4.61425C5.49593 4.63844 3.82949 5.17062 3.82949 5.17062C3.75908 5.19481 3.71214 5.219 3.64172 5.26738L2.0457 6.59783C1.8814 6.71878 1.64669 6.71878 1.50586 6.57364L1.36504 6.40431C1.20074 6.23498 1.22421 5.96889 1.38851 5.82375L3.24272 4.17883C3.28966 4.13045 3.36007 4.08207 3.43049 4.05788L5.6837 3.21122C5.89494 3.13865 6.12965 3.06608 6.36436 3.04189C6.66949 3.0177 7.04502 3.0177 7.25626 3.18703C7.65527 3.5015 7.81957 4.13045 7.56138 4.71101L6.10618 7.37192C6.0123 7.54125 6.03577 7.73477 6.17659 7.87991L7.96039 9.6216C8.1951 9.83931 8.26552 10.178 8.12469 10.4682L7.02155 13.0808C6.99808 13.1533 7.02155 13.2501 7.11544 13.2501L7.93692 13.492C8.05428 13.5162 8.14816 13.613 8.1951 13.7581L8.21857 13.8307C8.24204 13.9274 8.17163 14 8.07775 14H5.87147C5.77759 14 5.6837 13.9274 5.6837 13.8307V13.7581C5.66023 13.5404 5.6837 13.2985 5.75412 13.0808L6.5756 10.565C6.59907 10.4682 6.5756 10.3715 6.50519 10.3231L4.32238 8.50885C4.11114 8.33952 3.97032 8.09762 3.92338 7.80734C3.85296 7.49287 3.87643 7.1784 3.99379 6.88811L4.46321 5.67861C4.51015 5.53347 4.62751 5.41252 4.76833 5.36414C5.1204 5.219 5.75412 4.9771 5.98883 4.83196C6.12965 4.7352 6.05924 4.61425 5.98883 4.61425Z" fill="#363636"/>
<path d="M3.10189 9.50064C3.28966 9.08941 3.45396 8.67818 3.64173 8.26695C3.6652 8.21857 3.73561 8.21857 3.75908 8.26695C3.85296 8.41209 3.99379 8.58142 4.18156 8.75075C4.36933 8.92008 4.53362 9.06522 4.69792 9.16198C4.74486 9.18617 4.76833 9.25874 4.74486 9.30712L4.29891 10.3473C4.2285 10.4924 4.11115 10.6134 3.97032 10.6618L1.36504 11.6778C1.34157 11.7019 1.31809 11.7261 1.31809 11.7503V12.7663C1.31809 12.8873 1.24768 13.1533 1.13033 13.1775L0.966029 13.2259C0.895616 13.2501 0.825203 13.2259 0.801732 13.1533L0.0271884 11.2907C-0.0432246 11.1214 0.0271886 10.9521 0.191486 10.8795L2.96107 9.59741C3.03148 9.59741 3.07842 9.54902 3.10189 9.50064Z" fill="#363636"/>
</svg>
