<svg width="64" height="31" viewBox="0 0 64 31" fill="none" xmlns="http://www.w3.org/2000/svg">
<path d="M3.30353 0C1.6818 0 0.360506 0.548425 0.12025 2.04039C0.060186 2.43622 0.0600694 2.80148 0.150162 3.28865C0.510547 5.20628 3.75401 5.72403 4.20449 6.91151C4.29458 7.12435 4.26443 7.42889 4.2344 7.58113C4.1443 7.88562 3.96411 8.1901 3.33344 8.1901C2.76283 8.1901 2.43248 7.85511 2.43248 7.36824V6.48512H0V7.18567C0 9.25645 1.5917 9.86535 3.30352 9.86535C4.95528 9.86535 6.30708 9.28671 6.5173 7.7643C6.63743 6.97265 6.54733 6.45533 6.5173 6.24189C6.12689 4.32396 2.67273 3.74519 2.43248 2.64935C2.40245 2.46666 2.40245 2.28409 2.43248 2.1623C2.49254 1.85782 2.703 1.55334 3.27361 1.55334C3.81418 1.55334 4.11474 1.88803 4.11474 2.3752V2.95384H6.36714V2.31454C6.36714 0.304958 4.5949 0 3.30352 0H3.30353ZM60.3046 0.0606592C58.6825 0.0606592 57.3309 0.608728 57.1207 2.34428C57.1207 2.49652 57.0908 2.801 57.0908 2.95324V6.81993C57.0908 7.00262 57.0907 7.12441 57.1207 7.42889C57.2709 9.10355 58.7126 9.71251 60.3046 9.71251C61.926 9.71251 63.3676 9.10355 63.5178 7.42889C63.5481 7.12441 63.5477 7.00262 63.5477 6.81993V4.35374H60.3345V5.69358H61.2654V7.03283C61.2654 7.12448 61.2655 7.27659 61.2355 7.36824C61.1751 7.61152 60.965 8.03786 60.3046 8.03786C59.6439 8.03786 59.4036 7.6421 59.4036 7.33731C59.3733 7.24627 59.3731 7.12429 59.3731 7.0025V2.801C59.3731 2.64876 59.3733 2.4964 59.4036 2.37461C59.4634 2.16147 59.6439 1.70498 60.3046 1.70498C60.9953 1.70498 61.1752 2.16147 61.2055 2.37461C61.2356 2.52685 61.2354 2.73974 61.2354 2.73974V3.25773H63.5178V2.95324C63.5178 2.95324 63.5179 2.61831 63.4879 2.34428C63.3377 0.608728 61.926 0.0606586 60.3046 0.0606586L60.3046 0.0606592ZM32.8857 0.121912C31.294 0.121912 29.9726 0.639413 29.7323 2.13138C29.6722 2.5272 29.6421 2.89258 29.7622 3.34931C30.0923 5.20635 33.2757 5.72403 33.7262 6.91151C33.8163 7.12435 33.7862 7.39875 33.7561 7.58113C33.6961 7.88562 33.4857 8.1901 32.8851 8.1901C32.3145 8.1901 31.9841 7.85511 31.9841 7.36824V6.48512H29.5816V7.18567C29.5816 9.226 31.1734 9.83442 32.8552 9.83443C34.4769 9.83443 35.8282 9.28612 36.0384 7.76371C36.1586 6.97205 36.0688 6.45521 36.0384 6.27222C35.648 4.35429 32.2546 3.80603 32.0146 2.74034C31.9546 2.55765 31.9846 2.37508 32.0146 2.25329C32.0747 1.94881 32.2847 1.64432 32.8252 1.64432C33.3658 1.64432 33.6664 1.97902 33.6664 2.46619V3.04482H35.9188V2.40553C35.9188 0.426394 34.147 0.121912 32.8857 0.121912H32.8857ZM9.7305 0.334812L8.04883 9.52994H10.4813L11.7424 1.15668H11.7729L13.0041 9.52994H15.4366L13.7549 0.334812H9.7305ZM17.4485 0.334812L17.2385 9.52994H19.5208L19.5812 1.24826H19.6411L21.1427 9.52994H23.4549L24.9565 1.24826H25.0169L25.0768 9.52994H27.3591L27.1491 0.334812H23.4549L22.314 7.36824H22.2841L21.1726 0.334812H17.4485ZM38.1706 0.334812V6.94184C38.1706 7.12453 38.2005 7.45916 38.2005 7.55081C38.3507 9.28605 39.6721 9.83443 41.3539 9.83443C43.036 9.83442 44.3876 9.25591 44.5377 7.55081C44.5377 7.45916 44.5677 7.12453 44.5677 6.94184V0.334812H42.2554V7.09409C42.2554 7.21588 42.2548 7.36818 42.2249 7.45922C42.1949 7.70311 41.9854 8.12944 41.3545 8.12944C40.7238 8.12944 40.5431 7.70317 40.5128 7.52048C40.4827 7.39869 40.4828 7.27653 40.4828 7.15474V0.334812H38.1706ZM47.0905 0.334812V9.43836H49.313L49.1927 1.94821H49.2525L51.475 9.43836H54.7187V0.334812H52.4663L52.586 7.55081H52.5561L50.4538 0.334812H47.0905Z" fill="#211F1F"/>
<path d="M31.4833 14.9197C30.1919 14.9197 28.7802 15.3765 27.639 16.564C26.5878 17.6602 26.0476 19.03 26.0476 20.6133C26.0476 21.344 26.1976 22.044 26.4676 22.7447C26.7382 23.4453 27.1285 24.0542 27.609 24.5715C28.1196 25.1199 28.7202 25.5458 29.3511 25.8198C30.0115 26.0938 30.6118 26.2462 31.393 26.2462C31.9633 26.2462 32.5041 26.1547 33.0447 25.972C33.5553 25.8198 34.276 25.394 34.5463 24.9373V26.0333H36.8885V15.1629H34.5164V16.2595C34.1864 15.7115 33.5553 15.3456 33.0447 15.1629C32.5342 15.0107 32.0239 14.9197 31.4833 14.9197ZM19.23 14.95C18.6894 14.95 18.1785 15.0112 17.668 15.1938C17.1574 15.3765 16.5275 15.7418 16.1969 16.2899V15.1938H13.8242V30.1135V30.1444H16.1664V24.9682C16.4367 25.4249 17.1574 25.8203 17.668 26.003C18.1785 26.186 18.7491 26.2765 19.3197 26.2765C20.1006 26.2765 20.7014 26.1248 21.3621 25.8507C21.9931 25.577 22.594 25.1502 23.1042 24.6019C23.585 24.0846 23.9754 23.4756 24.2457 22.775C24.5157 22.1051 24.6657 21.3744 24.6657 20.6436C24.6657 19.0603 24.1249 17.6905 23.0737 16.5943C21.9325 15.4069 20.5511 14.95 19.23 14.95ZM38.3308 15.1938L42.8955 25.394L40.9135 30.1135H43.3759L49.5928 15.1938H47.1L44.0668 22.8666L40.8231 15.1938H38.3308ZM31.5736 17.0207C32.4142 17.0207 33.1651 17.2948 33.7961 17.9342C34.4265 18.604 34.6666 19.5784 34.6666 20.5223C34.6666 21.5575 34.457 22.5318 33.826 23.2014C33.1954 23.8709 32.4441 24.1148 31.5431 24.1148C30.6422 24.1148 29.9214 23.7496 29.3511 23.171C28.7202 22.5009 28.4197 21.6183 28.4197 20.6436C28.4197 19.6084 28.7202 18.6647 29.3511 17.9948C29.8917 17.4163 30.6423 17.0515 31.5736 17.0207ZM19.1402 17.0511C20.0412 17.0511 20.8219 17.4162 21.3627 18.0252C21.9937 18.695 22.2942 19.6088 22.2942 20.6745C22.2942 21.6489 21.9937 22.5318 21.3627 23.2014C20.8222 23.7802 20.0717 24.1451 19.1707 24.1451C18.2698 24.1451 17.5185 23.9019 16.8878 23.2317C16.2872 22.5621 16.0467 21.5571 16.0467 20.5526C16.0467 19.5783 16.2871 18.6344 16.9178 17.9645C17.5184 17.3251 18.2693 17.0511 19.1402 17.0511Z" fill="#211F1F"/>
</svg>
