<svg width="24" height="24" viewBox="0 0 24 24" fill="none" xmlns="http://www.w3.org/2000/svg">
<path d="M10.7858 0C16.7481 0 21.5715 4.82303 21.5715 10.7848C21.5715 13.3303 20.7006 15.6748 19.2268 17.517L23.6483 21.9381C24.1172 22.407 24.1172 23.1773 23.6483 23.6462C23.2128 24.0816 22.5429 24.1151 22.074 23.7467L21.9735 23.6462L17.5185 19.2251C15.6762 20.6988 13.3315 21.5696 10.7858 21.5696C4.82345 21.5696 0 16.7466 0 10.7848C0 4.82303 4.82345 0 10.7858 0ZM10.7858 2.41151C6.16329 2.41151 2.41172 6.16276 2.41172 10.7848C2.41172 15.4069 6.16329 19.1581 10.7858 19.1581C15.4082 19.1581 19.1598 15.4069 19.1598 10.7848C19.1933 6.16276 15.4082 2.41151 10.7858 2.41151Z" fill="#363636"/>
</svg>
