<svg width="10" height="10" viewBox="0 0 10 10" fill="none" xmlns="http://www.w3.org/2000/svg">
<path d="M9.38028 8.75706C9.71831 8.75706 10 9.03955 10 9.37853C10 9.71751 9.71831 10 9.38028 10H4.02817C3.69014 10 3.40845 9.71751 3.40845 9.37853C3.40845 9.03955 3.69014 8.75706 4.02817 8.75706H9.38028Z" fill="black"/>
<path d="M9.38028 4.37853C9.71831 4.37853 10 4.66102 10 5C10 5.33898 9.71831 5.62147 9.38028 5.62147H2.33803C1.97183 5.64972 1.69014 5.36723 1.69014 5C1.69014 4.63277 1.97183 4.37853 2.30986 4.37853H9.38028Z" fill="black"/>
<path d="M9.38028 0C9.71831 0 10 0.282486 10 0.621469C10 0.960452 9.71831 1.24294 9.38028 1.24294H0.647887C0.28169 1.24294 0 0.960452 0 0.621469C0 0.282486 0.28169 0 0.619718 0H9.38028Z" fill="black"/>
</svg>
