<svg width="20" height="26" viewBox="0 0 20 26" fill="none" xmlns="http://www.w3.org/2000/svg">
<path fill-rule="evenodd" clip-rule="evenodd" d="M16.25 7.8C16.9404 7.8 17.5 8.38203 17.5 9.1V22.1C17.5 24.2539 15.8211 26 13.75 26H6.25C4.17893 26 2.5 24.2539 2.5 22.1V9.1C2.5 8.38203 3.05964 7.8 3.75 7.8H16.25ZM15 10.4H5V22.1C5 22.818 5.55964 23.4 6.25 23.4H13.75C14.4404 23.4 15 22.818 15 22.1V10.4ZM6.25 1.3C6.25 0.58203 6.80964 0 7.5 0H12.5C13.1904 0 13.75 0.58203 13.75 1.3V2.6H18.75C19.4404 2.6 20 3.18203 20 3.9C20 4.61797 19.4404 5.2 18.75 5.2H1.25C0.559644 5.2 0 4.61797 0 3.9C0 3.18203 0.559644 2.6 1.25 2.6H6.25V1.3Z" fill="#363636"/>
</svg>
