<svg width="32" height="26" viewBox="0 0 32 26" fill="none" xmlns="http://www.w3.org/2000/svg">
<path fill-rule="evenodd" clip-rule="evenodd" d="M16 1.56549V23.4385C16 24.8304 14.2766 25.5275 13.2686 24.5433L7.33726 18.7514H1.6C0.716344 18.7514 0 18.0519 0 17.1891V7.81493C0 6.95206 0.716344 6.25257 1.6 6.25257H7.33726L13.2686 0.460737C14.2766 -0.523495 16 0.173578 16 1.56549ZM25.25 6C25.9404 6 26.5 6.55964 26.5 7.25V11H30.25C30.9404 11 31.5 11.5596 31.5 12.25C31.5 12.9404 30.9404 13.5 30.25 13.5H26.5V17.25C26.5 17.9404 25.9404 18.5 25.25 18.5C24.5596 18.5 24 17.9404 24 17.25V13.5H20.25C19.5596 13.5 19 12.9404 19 12.25C19 11.5596 19.5596 11 20.25 11H24V7.25C24 6.55964 24.5596 6 25.25 6Z" fill="#CFD7DD"/>
</svg>
